<svg width="119" height="89" viewBox="0 0 119 89" fill="none" xmlns="http://www.w3.org/2000/svg">
<g id="Choose Character">
<path id="Vector" d="M0.484502 56.8234C-0.161501 57.4742 -0.161501 58.531 0.484502 59.1818L8.75333 67.5119C9.39934 68.1627 10.4484 68.1627 11.0944 67.5119C11.7404 66.8611 11.7404 65.8042 11.0944 65.1535L6.99359 58L11.0893 50.8465C11.7353 50.1958 11.7353 49.1389 11.0893 48.4881C10.4433 47.8373 9.39417 47.8373 8.74817 48.4881L0.479334 56.8182L0.484502 56.8234Z" fill="white"/>
<path id="Vector_2" d="M118.095 56.8234C118.741 57.4742 118.741 58.531 118.095 59.1818L109.826 67.5119C109.18 68.1627 108.131 68.1627 107.485 67.5119C106.839 66.8611 106.839 65.8042 107.485 65.1535L111.586 58L107.49 50.8465C106.844 50.1958 106.844 49.1389 107.49 48.4881C108.136 47.8373 109.185 47.8373 109.831 48.4881L118.1 56.8182L118.095 56.8234Z" fill="white"/>
<g id="Pinky Girl">
<path id="Vector_3" fill-rule="evenodd" clip-rule="evenodd" d="M57.2785 5.6369L53.416 12.4777L42.0079 0.31958L42.3972 13.1947L23.294 6.92143L33.1151 19.8861L15 21.5889L30.2107 30.8195L21.3178 35.868L34.4625 38.1682L29.0729 44.3817L39.7323 42.6192L36.9776 49.1912C43.8644 45.6064 50.7212 41.9919 57.6079 38.4072L68.2374 16.3612L60.8716 19.3484L57.3085 5.66678L57.2785 5.6369ZM55.5419 36.4356L42.2774 43.366L44.044 39.1838L35.9297 40.5281L39.5527 36.3459L29.0729 34.4938L35.4805 30.8793L23.2341 23.4708L38.1454 22.0668L30.5999 12.1193L45.2118 16.9287L44.9123 7.2799L54.0148 16.9586L56.4102 12.6868L59.0751 22.9331L62.8478 21.4096L55.5718 36.4654L55.5419 36.4356Z" fill="black"/>
<path id="Vector_4" fill-rule="evenodd" clip-rule="evenodd" d="M56.8289 9.16186L53.7149 14.7182L43.4446 3.78479L43.804 15.0766L26.9464 9.52033L35.6297 20.9615L19.1016 22.5149L32.8451 30.8494L25.2098 35.1809L37.0071 37.272L32.4858 42.4698L41.8876 40.8866L39.612 46.2636L56.5594 37.4213L65.5121 18.8705L59.9728 21.1408L56.8289 9.16186Z" fill="#FF0066"/>
<path id="Vector_5" fill-rule="evenodd" clip-rule="evenodd" d="M42.9356 33.9262L34.7614 32.4625L39.3126 29.0271L19.1016 22.5149L32.8451 30.8494L25.2098 35.1809L37.0071 37.272L32.4858 42.4698L41.8876 40.8865L39.612 46.2636L56.5594 37.4213L40.3905 37.8694L42.9356 33.9262Z" fill="#DC0058"/>
<path id="Vector_6" fill-rule="evenodd" clip-rule="evenodd" d="M26.9473 9.52026L45.0025 20.3043L43.8048 15.0766L26.9473 9.52026Z" fill="#FF6699"/>
<path id="Vector_7" fill-rule="evenodd" clip-rule="evenodd" d="M43.4453 3.78479L43.625 9.43071L44.6131 7.25001L54.7934 21.7382L53.7155 14.7182L43.4453 3.78479Z" fill="#FF6699"/>
<path id="Vector_8" fill-rule="evenodd" clip-rule="evenodd" d="M54.2246 13.7921L56.3805 12.4478L59.9735 21.1407L56.8296 9.1618L54.2246 13.7921Z" fill="#FF6699"/>
<path id="Vector_9" fill-rule="evenodd" clip-rule="evenodd" d="M50.9906 21.4993C48.236 21.4993 45.7507 22.6046 43.9542 24.3969C42.1577 26.1893 41.0498 28.6687 41.0498 31.417C41.0498 34.1653 42.1577 36.6447 43.9542 38.437C45.7507 40.2294 48.236 41.3347 50.9906 41.3347C53.7453 41.3347 56.2305 40.2294 58.0271 38.437C59.8236 36.6447 60.9315 34.1653 60.9315 31.417C60.9315 28.6687 59.8236 26.1893 58.0271 24.3969C56.2305 22.6046 53.7453 21.4993 50.9906 21.4993ZM56.9791 37.3915C55.4521 38.915 53.3261 39.8709 50.9906 39.8709C48.6551 39.8709 46.5292 38.915 45.0022 37.3915C43.4751 35.868 42.517 33.747 42.517 31.417C42.517 29.0869 43.4751 26.966 45.0022 25.4425C46.5292 23.9189 48.6551 22.963 50.9906 22.963C53.3261 22.963 55.4521 23.9189 56.9791 25.4425C58.5062 26.966 59.4643 29.0869 59.4643 31.417C59.4643 33.747 58.5062 35.868 56.9791 37.3915Z" fill="black"/>
<path id="Vector_10" fill-rule="evenodd" clip-rule="evenodd" d="M50.9908 22.246C45.9305 22.246 41.7686 26.3685 41.7686 31.4468C41.7686 36.5251 45.9006 40.6476 50.9908 40.6476C56.081 40.6476 60.213 36.5251 60.213 31.4468C60.213 26.3685 56.081 22.246 50.9908 22.246Z" fill="#FFCC00"/>
<path id="Vector_11" fill-rule="evenodd" clip-rule="evenodd" d="M41.7682 31.417C41.7682 35.0615 43.8941 38.228 46.9782 39.6917C44.4331 38.0488 42.7264 35.2109 42.7264 31.9547C42.7264 26.8764 46.8584 22.754 51.9486 22.754C53.3858 22.754 54.7332 23.0826 55.9309 23.6502C54.4937 22.7241 52.787 22.1864 50.9605 22.1864C45.8703 22.1864 41.7383 26.3088 41.7383 31.3872L41.7682 31.417Z" fill="#FFFF00"/>
<path id="Vector_12" fill-rule="evenodd" clip-rule="evenodd" d="M89.646 50.2368L81.9209 53.8812L82.2203 54.867C83.5977 59.6466 84.7654 64.0379 85.5739 68.459C86.3823 72.8503 86.8314 77.2715 86.7715 82.081L86.7117 86.9203L89.0472 82.6784C91.6521 77.9585 92.9995 72.9698 93.1792 67.7421C93.3589 62.5443 92.3109 57.1075 90.1251 51.4615L89.646 50.2666V50.2368ZM89.0472 76.7636C88.8675 73.7764 88.4783 70.8787 87.9393 68.011C87.1608 63.7989 86.0829 59.6168 84.7954 55.1657L88.2986 53.5227C90.0652 58.4219 90.8736 63.1417 90.7239 67.6525C90.6341 70.7891 90.0652 73.8361 89.0172 76.7636H89.0472Z" fill="black"/>
<path id="Vector_13" fill-rule="evenodd" clip-rule="evenodd" d="M83.3877 54.5383C86.1723 64.1573 88.1186 72.3125 87.9988 82.1107C92.9992 72.9697 93.2687 62.9026 89.0168 51.8796L83.3877 54.5383Z" fill="#DC0058"/>
<path id="Vector_14" fill-rule="evenodd" clip-rule="evenodd" d="M84.5852 31.2377H49.3731C47.0376 31.2377 44.9416 32.1936 43.3846 33.7171C41.8576 35.2406 40.8994 37.3616 40.8994 39.6916V68.6382C40.8994 70.9384 41.8276 72.9697 43.3247 74.4633C44.8219 75.957 46.9777 76.9428 49.2833 77.0921C53.6249 77.3311 58.6552 77.8389 63.416 78.3468C69.7338 79.004 75.6624 79.6014 79.1657 79.5118C82.3396 79.4222 86.2021 78.3169 89.0167 76.1661C91.3821 74.3737 93.0289 71.8943 93.0289 68.668V39.7215C93.0289 37.3914 92.0708 35.3003 90.5437 33.747C89.0167 32.2235 86.8908 31.2675 84.5553 31.2675L84.5852 31.2377ZM90.6336 68.6382C90.6336 70.9981 89.376 72.8502 87.5795 74.2243C85.1841 76.0466 81.8605 77.0025 79.1357 77.0622C75.7822 77.1519 69.9434 76.5544 63.6855 75.9271C58.8648 75.4491 53.8045 74.9114 49.433 74.6724C47.7263 74.5828 46.1693 73.8659 45.0315 72.7606C43.9835 71.715 43.3247 70.2812 43.3247 68.6382V39.6916C43.3247 38.0188 44.0134 36.5251 45.0913 35.4198C46.1693 34.3145 47.6963 33.6574 49.3731 33.6574H84.5852C86.262 33.6574 87.7591 34.3444 88.867 35.4198C89.9748 36.4952 90.6336 38.0188 90.6336 39.6916V68.6382Z" fill="black"/>
<path id="Vector_15" fill-rule="evenodd" clip-rule="evenodd" d="M84.5861 32.4626H49.374C45.3916 32.4626 42.1279 35.7187 42.1279 39.6917V68.6383C42.1279 72.6113 45.3916 75.6583 49.374 75.8674C59.4645 76.435 73.1481 78.4365 79.1665 78.2573C84.4663 78.1079 91.8321 74.9115 91.8321 68.6084V39.6618C91.8321 35.6888 88.5684 32.4327 84.5861 32.4327V32.4626Z" fill="#FFE7AD"/>
<path id="Vector_16" fill-rule="evenodd" clip-rule="evenodd" d="M53.7755 72.9697C49.7932 72.7307 46.5294 69.7136 46.5294 65.7405V36.7641C46.5294 35.2107 47.0385 33.7768 47.8768 32.5819C44.6131 33.269 42.1279 36.1965 42.1279 39.6617V68.6083C42.1279 72.5813 45.3916 75.6283 49.374 75.8374C59.4645 76.405 73.1481 78.4065 79.1665 78.2272C82.6399 78.1376 86.9815 76.7336 89.5865 74.0152C87.6103 74.8516 81.7416 77.122 79.8552 77.1817C73.8069 77.3609 63.866 73.5074 53.7455 72.9398L53.7755 72.9697Z" fill="#FFD26B"/>
<path id="Vector_17" fill-rule="evenodd" clip-rule="evenodd" d="M36.3787 59.0193C34.7319 60.6623 33.7139 62.9625 33.7139 65.4718C33.7139 67.9811 34.7319 70.2514 36.3787 71.9243C38.0256 73.5673 40.3311 74.6128 42.8463 74.6128C44.2236 74.6128 45.5411 74.3141 46.7088 73.7465C46.5292 72.8802 46.4094 71.984 46.3495 71.0281C45.3315 71.6554 44.1338 72.0139 42.8463 72.0139C41.0198 72.0139 39.4029 71.2671 38.2052 70.1021C37.0375 68.9072 36.2889 67.2642 36.2889 65.4718C36.2889 63.6794 37.0375 62.0365 38.2052 60.8415C39.4029 59.6466 41.0198 58.9297 42.8463 58.9297C44.6727 58.9297 46.1998 59.6168 47.3676 60.7221C47.667 59.796 48.0263 58.9596 48.4155 58.2426C46.8585 57.0477 44.9422 56.3607 42.8463 56.3607C40.3311 56.3607 38.0555 57.3763 36.3787 59.0193Z" fill="black"/>
<path id="Vector_18" fill-rule="evenodd" clip-rule="evenodd" d="M42.8166 57.6451C38.4749 57.6451 34.9717 61.1402 34.9717 65.4717C34.9717 69.8032 38.4749 73.2983 42.8166 73.2983C44.134 73.2983 45.3617 72.9697 46.4695 72.4021C46.2899 71.1774 46.2 69.863 46.2 68.5187C46.2 65.0236 46.8288 61.8571 47.8169 59.4374C46.4695 58.3023 44.7029 57.6451 42.8166 57.6451Z" fill="#FFE7AD"/>
<path id="Vector_19" fill-rule="evenodd" clip-rule="evenodd" d="M38.7139 65.4717C38.7139 69.2655 41.7979 72.3125 45.5707 72.3125C45.8701 72.3125 46.1695 72.3125 46.439 72.2527C46.2893 71.0578 46.1994 70.9981 46.1994 68.5187C46.1994 66.0392 45.8701 64.456 46.9779 62.0064C43.2052 59.7361 38.7139 60.6323 38.7139 65.4717Z" fill="#FFD26B"/>
<path id="Vector_20" fill-rule="evenodd" clip-rule="evenodd" d="M34.9717 65.4717C34.9717 66.9952 35.4208 68.4291 36.1694 69.6539C35.6903 68.6382 35.4508 67.5329 35.4508 66.338C35.4508 62.0065 38.954 58.5114 43.2956 58.5114C44.9125 58.5114 46.4096 58.9893 47.6672 59.8258C47.7271 59.7063 47.757 59.5569 47.8169 59.4374C46.4695 58.3023 44.7029 57.6451 42.8166 57.6451C38.4749 57.6451 34.9717 61.1402 34.9717 65.4717Z" fill="#FFF8E9"/>
<path id="Vector_21" fill-rule="evenodd" clip-rule="evenodd" d="M73.6573 72.0437C73.6573 72.0437 80.8435 77.361 80.8435 72.193C80.1548 75.1803 73.6274 71.9839 73.6573 72.0437Z" fill="black"/>
<path id="Vector_22" fill-rule="evenodd" clip-rule="evenodd" d="M78.4775 65.4418C77.1001 65.6509 76.2617 68.429 76.2617 68.4589C76.2617 68.4589 80.5734 66.3678 81.0225 68.3693C81.0225 67.0549 79.3458 65.3223 78.4775 65.4418Z" fill="#FFF8E9"/>
<path id="Vector_23" fill-rule="evenodd" clip-rule="evenodd" d="M65.9019 59.1687H65.842C64.1952 58.9596 62.6382 59.4375 61.4105 60.3636C60.1829 61.3195 59.2846 62.7235 59.0751 64.3964C58.8655 66.0692 59.3146 67.6525 60.2727 68.8773C61.2309 70.102 62.6382 70.9982 64.3149 71.2073C65.9917 71.4164 67.5787 70.9683 68.8063 70.0124C70.0339 69.0565 70.9322 67.6525 71.1418 65.9796V65.9199C71.3514 64.2769 70.8723 62.7235 69.9441 61.4987C68.986 60.2739 67.5787 59.3778 65.9019 59.1687ZM69.6147 65.8004C69.4351 67.055 68.7764 68.1006 67.8781 68.8175C66.9499 69.5345 65.7522 69.8631 64.5246 69.7137C63.267 69.5345 62.219 68.8773 61.5004 67.9811C60.7818 67.055 60.4524 65.8601 60.6021 64.6354C60.7818 63.3807 61.4405 62.3352 62.3388 61.6182C63.267 60.9013 64.4647 60.5727 65.6923 60.722H65.7222C66.9499 60.9013 67.9979 61.5585 68.6865 62.4546C69.4051 63.3807 69.7345 64.5756 69.5848 65.8004H69.6147Z" fill="black"/>
<path id="Vector_24" fill-rule="evenodd" clip-rule="evenodd" d="M65.8125 59.9452C62.9081 59.5569 60.2133 61.5882 59.8241 64.4859C59.4348 67.3835 61.4709 70.072 64.3753 70.4604C67.2797 70.8487 69.9745 68.8174 70.3637 65.9197C70.753 63.0221 68.7169 60.3336 65.8125 59.9452Z" fill="white"/>
<path id="Vector_25" fill-rule="evenodd" clip-rule="evenodd" d="M65.9314 61.4987C63.4761 61.1701 61.2005 62.9027 60.8711 65.3522C60.5418 67.8018 62.2784 70.0721 64.7337 70.4007C67.189 70.7293 69.4646 68.9967 69.7939 66.5471C70.1233 64.0976 68.3867 61.8273 65.9314 61.4987Z" fill="#663399"/>
<path id="Vector_26" fill-rule="evenodd" clip-rule="evenodd" d="M65.8718 61.8572C63.6261 61.5585 61.5302 63.1417 61.2307 65.3822C60.9313 67.6226 62.8776 65.3821 65.1532 65.7107C67.3988 66.0095 69.1056 68.7279 69.405 66.4874C69.7044 64.247 68.1175 62.1559 65.8718 61.8572Z" fill="#562C80"/>
<path id="Vector_27" fill-rule="evenodd" clip-rule="evenodd" d="M65.6325 63.7092C64.4048 63.5299 63.267 64.3962 63.1173 65.621C62.9376 66.8458 63.806 67.981 65.0336 68.1303C66.2612 68.3096 67.399 67.4432 67.5488 66.2185C67.7284 64.9937 66.8601 63.8585 65.6325 63.7092Z" fill="#381D53"/>
<path id="Vector_28" fill-rule="evenodd" clip-rule="evenodd" d="M64.3746 60.6623C63.0272 60.4831 61.7697 61.439 61.59 62.7832C61.4104 64.1275 62.3685 65.3822 63.7159 65.5614C65.0633 65.7406 66.3209 64.7847 66.5006 63.4404C66.6802 62.0962 65.7221 60.8415 64.3746 60.6623Z" fill="white"/>
<path id="Vector_29" fill-rule="evenodd" clip-rule="evenodd" d="M67.4285 67.2044C66.9195 67.1446 66.4704 67.5031 66.3806 67.9811C66.3207 68.4889 66.68 68.937 67.1591 69.0266C67.6681 69.0864 68.1172 68.7279 68.207 68.2499C68.2669 67.7421 67.9076 67.294 67.4285 67.2044Z" fill="white"/>
<path id="Vector_30" fill-rule="evenodd" clip-rule="evenodd" d="M58.9546 64.3366C58.7151 66.129 59.284 67.8317 60.3619 69.1163C59.6733 67.9811 59.3439 66.5771 59.5535 65.1432C59.793 63.4405 60.6913 61.9767 62.0088 61.0208L60.7811 60.722C59.823 61.6481 59.1642 62.9027 58.9546 64.3068V64.3366Z" fill="black"/>
<path id="Vector_31" fill-rule="evenodd" clip-rule="evenodd" d="M60.6914 60.7818C60.6016 61.4091 61.2304 61.1701 61.1406 61.7974C65.8415 59.6765 69.9735 61.3792 70.8419 67.0849C71.8898 60.4233 65.6618 57.1373 60.6914 60.7818Z" fill="black"/>
<path id="Vector_32" fill-rule="evenodd" clip-rule="evenodd" d="M57.668 58.5413C58.0572 61.2298 58.7459 62.9624 60.0634 62.9624L60.9616 60.6921C59.5244 61.17 58.5064 60.1843 57.668 58.5413Z" fill="black"/>
<path id="Vector_33" fill-rule="evenodd" clip-rule="evenodd" d="M90.5141 60.0647C89.9452 59.4075 89.2565 59.0491 88.5379 59.1088C88.4481 59.1088 88.3283 59.1088 88.2385 59.1685C87.3103 59.3777 86.5018 60.2738 85.9629 61.4986C85.4239 62.7234 85.1544 64.3365 85.2742 66.0094C85.3041 66.5471 85.394 67.0848 85.5137 67.5627C85.7832 68.7278 86.2623 69.6837 86.8312 70.311C87.4001 70.9682 88.0888 71.2968 88.8373 71.267L89.1367 71.2072C90.065 70.9981 90.8734 70.1019 91.4124 68.8771C91.9513 67.6524 92.2208 66.0392 92.101 64.3963C92.0711 63.8585 91.9813 63.3208 91.8615 62.8429C91.592 61.7077 91.1129 60.7518 90.544 60.0946L90.5141 60.0647ZM90.7237 67.9212C90.3344 68.8473 89.7356 69.5045 89.017 69.6837H88.7774C88.2385 69.7733 87.7295 69.5045 87.2803 68.9966C86.8611 68.5187 86.5018 67.8017 86.2922 66.9354C86.2024 66.5769 86.1425 66.1886 86.1126 65.7704C86.0227 64.5157 86.2024 63.3507 86.6216 62.4247C87.0108 61.4986 87.6097 60.8414 88.3283 60.692H88.5678C89.1068 60.6024 89.6158 60.8713 90.065 61.3791C90.4841 61.8571 90.8435 62.574 91.053 63.4403C91.1429 63.7988 91.2028 64.1871 91.2327 64.6054C91.3225 65.86 91.1429 67.025 90.7237 67.9511V67.9212Z" fill="black"/>
<path id="Vector_34" fill-rule="evenodd" clip-rule="evenodd" d="M88.2688 59.9452C86.622 60.3336 85.4842 62.9922 85.6938 65.9197C85.9034 68.8174 87.4305 70.8487 89.0773 70.4604C90.7241 70.072 91.8619 67.4134 91.6523 64.4859C91.4427 61.5882 89.9157 59.5569 88.2688 59.9452Z" fill="white"/>
<path id="Vector_35" fill-rule="evenodd" clip-rule="evenodd" d="M88.2088 61.4987C86.8315 61.8273 85.8434 64.0976 86.0231 66.5471C86.2027 68.9967 87.4902 70.7293 88.8676 70.4007C90.2449 70.0721 91.233 67.8018 91.0534 65.3522C90.8737 62.9027 89.5862 61.1701 88.2088 61.4987Z" fill="#663399"/>
<path id="Vector_36" fill-rule="evenodd" clip-rule="evenodd" d="M88.3581 61.8572C87.0706 62.1559 86.1424 64.2171 86.3221 66.4874C86.5017 68.7279 87.4898 66.0095 88.7773 65.7107C90.0649 65.412 91.2027 67.6525 91.023 65.3822C90.8434 63.1417 89.6457 61.5585 88.3581 61.8572Z" fill="#562C80"/>
<path id="Vector_37" fill-rule="evenodd" clip-rule="evenodd" d="M88.3583 63.7092C87.6696 63.8585 87.1905 64.9937 87.2804 66.2185C87.3702 67.4432 87.999 68.3096 88.7176 68.1303C89.4063 67.981 89.9153 66.8458 89.7955 65.621C89.7057 64.3962 89.0769 63.5299 88.3583 63.7092Z" fill="#381D53"/>
<path id="Vector_38" fill-rule="evenodd" clip-rule="evenodd" d="M89.0776 60.6623C88.2991 60.8415 87.7602 62.0962 87.8799 63.4404C87.9698 64.7847 88.6884 65.7406 89.4669 65.5614C90.2454 65.3822 90.7843 64.1275 90.6646 62.7832C90.5748 61.439 89.8561 60.4831 89.0776 60.6623Z" fill="white"/>
<path id="Vector_39" fill-rule="evenodd" clip-rule="evenodd" d="M87.3401 67.2043C87.0406 67.2641 86.861 67.742 86.8909 68.2499C86.9209 68.7577 87.1904 69.1162 87.4898 69.0265C87.7892 68.9668 87.9689 68.4888 87.9389 67.981C87.909 67.4732 87.6395 67.1147 87.3401 67.2043Z" fill="white"/>
<path id="Vector_40" fill-rule="evenodd" clip-rule="evenodd" d="M90.4248 61.0505C91.1434 62.0065 91.6824 63.4403 91.8021 65.1729C91.9219 66.6068 91.7423 67.981 91.3231 69.146C91.9519 67.8615 92.2513 66.1587 92.1315 64.3664C92.0117 62.9325 91.6524 61.7077 91.1135 60.7817L90.4248 61.0804V61.0505Z" fill="black"/>
<path id="Vector_41" fill-rule="evenodd" clip-rule="evenodd" d="M85.6039 67.0551C85.7536 61.3494 88.2388 59.6466 90.8737 61.7676C90.8138 61.1403 91.1731 61.3793 91.1133 60.7519C88.2987 57.1075 84.8254 60.8117 85.5739 67.0551H85.6039Z" fill="black"/>
<path id="Vector_42" fill-rule="evenodd" clip-rule="evenodd" d="M91.0234 60.6921L91.5325 62.9624C92.281 62.9624 92.6703 61.2597 92.8799 58.5413C92.4008 60.1843 91.8319 61.17 91.0234 60.6921Z" fill="black"/>
<path id="Vector_43" fill-rule="evenodd" clip-rule="evenodd" d="M59.5845 69.4447C57.3987 69.146 55.5123 69.8629 55.3327 71.028C55.183 72.193 56.8298 73.3879 59.0156 73.6568C61.2014 73.9555 63.0877 73.2385 63.2674 72.0735C63.4171 70.9085 61.7703 69.7136 59.5845 69.4447Z" fill="#FF938E"/>
<path id="Vector_44" fill-rule="evenodd" clip-rule="evenodd" d="M57.4887 69.9228C56.8 69.9527 56.291 70.2813 56.291 70.6398C56.291 70.9982 56.8899 71.2671 57.5486 71.2073C58.2373 71.1775 58.7463 70.8489 58.7463 70.4904C58.7463 70.1319 58.1474 69.8631 57.4887 69.9228Z" fill="white"/>
<path id="Vector_45" fill-rule="evenodd" clip-rule="evenodd" d="M91.1734 69.8928C89.8859 70.0422 88.8978 70.8488 88.9577 71.7449C89.0175 72.6112 90.0955 73.2386 91.383 73.0892C92.6705 72.9398 93.6586 72.1333 93.5987 71.2371C93.5388 70.3708 92.4609 69.7435 91.1734 69.8928Z" fill="#FF938E"/>
<path id="Vector_46" fill-rule="evenodd" clip-rule="evenodd" d="M90.0653 70.5799C89.6761 70.7293 89.4366 71.0579 89.4964 71.2969C89.5563 71.5657 89.9156 71.6554 90.3049 71.506C90.6941 71.3566 90.9337 71.028 90.8738 70.7891C90.8139 70.5202 90.4546 70.4306 90.0653 70.5799Z" fill="white"/>
<path id="Vector_47" fill-rule="evenodd" clip-rule="evenodd" d="M72.3097 58.4816C71.3815 56.5399 69.8844 55.4645 68.0878 54.9567C66.3512 54.4787 64.375 54.5982 62.4886 55.1359C61.5604 55.3749 60.6022 55.7333 59.7339 56.1516L57.3086 57.3166L59.9735 57.1075C62.0395 56.9581 64.0756 57.0179 66.1116 57.4958C68.1178 57.9738 70.094 58.8998 72.0701 60.4831L73.2678 61.439L72.8786 59.9752C72.7289 59.4375 72.5492 58.9596 72.3396 58.4816H72.3097ZM66.3512 56.5399C65.2134 56.271 64.0756 56.1217 62.9377 56.0619C64.6145 55.6437 66.3512 55.5242 67.8483 55.9424C69.2855 56.3308 70.5131 57.1971 71.3216 58.6907C69.6748 57.6153 68.0279 56.9282 66.3811 56.5399H66.3512Z" fill="black"/>
<path id="Vector_48" fill-rule="evenodd" clip-rule="evenodd" d="M59.9434 56.6294C64.1652 56.3008 68.3272 56.8684 72.3694 60.1245C70.7825 54.2097 64.5844 54.4188 59.9434 56.6294Z" fill="#DC0058"/>
<path id="Vector_49" fill-rule="evenodd" clip-rule="evenodd" d="M59.9434 56.6295C60.4524 56.5996 60.9913 56.5698 61.5004 56.5399C65.3929 55.2852 69.7045 55.584 71.531 59.4674C71.8005 59.6765 72.0999 59.8856 72.3694 60.0947C70.7825 54.1799 64.5844 54.3891 59.9434 56.5996V56.6295Z" fill="#FF0066"/>
<path id="Vector_50" fill-rule="evenodd" clip-rule="evenodd" d="M90.6646 54.7773C89.8562 54.5682 88.9878 54.5383 88.1495 54.7175C87.3111 54.9267 86.4727 55.3449 85.7241 56.0618C84.8259 56.9281 84.0773 58.2126 83.5982 59.9751L83.209 61.4688L84.8858 60.1245C88.3591 57.3165 88.9878 56.8385 92.8205 57.1372L94.1379 57.2268L93.2396 56.2709C92.551 55.554 91.6827 55.0461 90.7245 54.7773H90.6646ZM85.1552 58.601C85.5145 57.8542 85.9337 57.2567 86.4128 56.8086C87.0117 56.241 87.6704 55.8826 88.3591 55.7332C89.0477 55.5838 89.7364 55.5838 90.3951 55.7631C90.6646 55.8228 90.9341 55.9423 91.1736 56.0618C88.6585 56.0618 87.6105 56.6593 85.1253 58.6309L85.1552 58.601Z" fill="black"/>
<path id="Vector_51" fill-rule="evenodd" clip-rule="evenodd" d="M84.0771 60.0947C88.1194 56.8685 88.6284 56.3009 92.8502 56.5996C90.5447 54.1799 85.694 54.1799 84.0771 60.0947Z" fill="#DC0058"/>
<path id="Vector_52" fill-rule="evenodd" clip-rule="evenodd" d="M84.0771 60.0947C84.3466 59.8856 84.6461 59.6466 84.9155 59.4674C86.7121 55.5839 90.5746 55.2852 91.2932 56.5398C91.8023 56.5398 92.3412 56.5697 92.8502 56.6295C90.5447 54.2098 85.694 54.2098 84.0771 60.1246V60.0947Z" fill="#FF0066"/>
<path id="Vector_53" fill-rule="evenodd" clip-rule="evenodd" d="M83.2983 51.9693C81.921 52.1784 82.3402 57.5256 82.3701 57.5555C83.4181 58.0633 84.3163 55.5241 85.8434 54.8968C85.8434 53.5824 84.1666 51.8498 83.2983 51.9693Z" fill="#FFF8E9"/>
<path id="Vector_54" fill-rule="evenodd" clip-rule="evenodd" d="M72.759 51.7602C71.8906 51.6109 70.2139 53.3734 70.2139 54.6878C71.7409 55.345 72.6392 57.8543 73.6872 57.3464C73.7471 57.3464 74.1363 51.9693 72.759 51.7602Z" fill="#FFF8E9"/>
<path id="Vector_55" fill-rule="evenodd" clip-rule="evenodd" d="M50.8408 47.4884L78.0584 50.864L91.8318 49.1912V42.6789L51.4397 41.1853L50.8408 47.4884Z" fill="#FFD26B"/>
<path id="Vector_56" fill-rule="evenodd" clip-rule="evenodd" d="M89.9156 25.5619C85.6039 22.1265 78.4477 20.7524 66.0516 21.1109C53.6256 21.4693 44.8824 24.128 39.8222 30.1921C34.7619 36.2563 33.5044 45.5467 35.9596 59.2283L36.3489 61.3493L37.9658 59.9154C39.0137 58.9893 40.1515 58.4218 41.2894 58.1529C42.2774 57.9139 43.2655 57.9139 44.1938 58.0633C44.1039 60.7518 44.1339 66.5471 44.7327 72.2528C45.1519 76.2856 45.8406 80.3184 46.9484 83.1563L48.8348 88.0255L49.254 82.8277C49.763 76.7038 50.7811 69.4447 52.5776 62.0662C53.9549 56.48 55.7814 50.8341 58.2067 45.5765L77.9687 48.7729L96.5928 43.2465L96.473 42.2607C95.6646 34.5237 94.3172 29.0869 89.8857 25.5918L89.9156 25.5619ZM77.8189 46.2935L56.7995 42.9179L56.4102 43.7244C53.7154 49.3405 51.7093 55.4644 50.2421 61.4986C49.0444 66.3977 48.1761 71.267 47.5772 75.7479C47.3976 74.5231 47.2179 73.2684 47.0982 71.9839C46.4394 65.5314 46.4993 58.9595 46.649 57.1671L46.7389 56.1813L45.7807 55.9125C44.2237 55.4644 42.487 55.3747 40.7504 55.7631C39.8222 55.9722 38.894 56.3307 37.9957 56.8684C36.1093 45.009 37.337 36.9135 41.6786 31.7156C46.2298 26.249 54.3741 23.8591 66.1115 23.5007C77.8788 23.1422 84.556 24.367 88.4185 27.4439C91.9817 30.2818 93.2392 34.912 93.9878 41.484L77.8189 46.2636V46.2935Z" fill="black"/>
<path id="Vector_57" fill-rule="evenodd" clip-rule="evenodd" d="M66.0819 22.3058C41.9185 23.0228 32.3669 32.4326 37.1277 58.9894C39.6728 56.6892 42.8467 56.3307 45.4218 57.0775C45.1822 59.9752 45.1822 75.4193 48.0267 82.7082C48.955 71.6255 51.53 56.7191 57.4885 44.2323L77.8792 47.5183L95.2757 42.3503C93.6887 27.5037 90.2154 21.5889 66.052 22.3058H66.0819Z" fill="#FF0066"/>
<path id="Vector_58" fill-rule="evenodd" clip-rule="evenodd" d="M66.0817 22.3057C48.6253 22.8136 38.7743 27.8919 36.4688 40.6774C39.8522 30.4012 49.4038 26.1892 65.2134 25.7411C87.6701 25.0839 92.2512 30.1324 94.0478 42.7386L95.2754 42.3801C93.6885 27.5334 90.2152 21.6187 66.0517 22.3356L66.0817 22.3057Z" fill="#FF6699"/>
<path id="Vector_59" fill-rule="evenodd" clip-rule="evenodd" d="M48.0562 82.7082C48.5353 76.9129 49.4635 70.0721 51.1104 63.0819C49.4036 69.4746 48.3257 75.8674 47.667 81.5731C47.7868 81.9614 47.9365 82.3497 48.0562 82.7082Z" fill="#FF6699"/>
<path id="Vector_60" fill-rule="evenodd" clip-rule="evenodd" d="M47.0384 46.652C42.9064 48.3846 39.3133 51.2524 36.6484 56.032C36.7981 56.988 36.9479 58.0036 37.1275 59.0193C39.6726 56.7191 42.8465 56.3606 45.4215 57.1074C45.182 60.0051 45.182 75.4492 48.0265 82.7381C48.835 73.0295 50.9309 60.3636 55.4522 48.9522C51.6196 54.6579 48.8948 61.0208 47.3678 68.1902L47.0684 46.652H47.0384Z" fill="#DC0058"/>
<path id="Vector_61" fill-rule="evenodd" clip-rule="evenodd" d="M51.41 30.9688L50.2422 31.4766C47.248 32.7612 44.3735 34.3145 41.7985 36.4355C39.1935 38.5565 36.9179 41.245 35.0615 44.7401L34.8818 45.0687C35.5106 50.0574 36.1095 55.076 36.7383 60.0946L38.445 58.6607C41.0499 56.48 43.8645 54.6279 46.8887 53.1642C49.9129 51.6705 53.1766 50.5354 56.7098 49.7886L58.0572 49.4898L51.8591 32.1637L51.4399 30.9688H51.41ZM45.8108 50.9835C43.2357 52.2381 40.8404 53.7317 38.5947 55.4345L37.367 45.4869C39.0139 42.4698 41.02 40.1397 43.2956 38.2577C45.3317 36.5849 47.6073 35.2705 49.9728 34.1652L54.8234 47.6975C51.6196 48.4742 48.6253 49.5794 45.7808 50.9536L45.8108 50.9835Z" fill="black"/>
<path id="Vector_62" fill-rule="evenodd" clip-rule="evenodd" d="M36.1094 45.2778L37.6364 57.7346C42.9961 53.2836 49.1942 50.147 56.4402 48.5936L50.6913 32.5819C44.8525 35.0613 39.6426 38.6162 36.1094 45.2778Z" fill="#381D53"/>
<path id="Vector_63" fill-rule="evenodd" clip-rule="evenodd" d="M36.1094 45.2779L36.319 46.9208C40.0618 40.7671 45.4514 37.3019 51.4997 34.8523L50.6913 32.5521C44.8525 35.0316 39.6426 38.5864 36.1094 45.248V45.2779Z" fill="#562C80"/>
<path id="Vector_64" fill-rule="evenodd" clip-rule="evenodd" d="M37.3076 55.0163L37.637 57.7347C42.9967 53.2837 49.1947 50.1471 56.4407 48.5937L55.5425 46.0844C48.536 47.6378 42.5176 50.6848 37.3076 55.0163Z" fill="#2C1742"/>
<path id="Vector_65" fill-rule="evenodd" clip-rule="evenodd" d="M50.1827 36.1368L49.5539 36.4056C47.7274 37.1823 43.8649 39.5423 40.5712 42.1113C38.116 44.0231 35.9302 46.0545 35.0918 47.6676L35.002 47.8468C35.3313 50.5354 35.6607 53.194 35.9901 55.8826L36.8883 55.1358C38.4453 53.8214 42.1282 51.4614 45.7213 49.4898C48.5658 47.9066 51.3804 46.5922 53.0272 46.2337L53.7458 46.0844L50.4222 36.8239L50.1827 36.1667V36.1368ZM45.0925 48.3248C42.0085 50.0275 38.8645 51.9991 36.9781 53.4031L36.3194 48.0858C37.1279 46.6818 39.104 44.8596 41.3497 43.127C44.2242 40.9164 47.5178 38.8253 49.4341 37.8993L52.0391 45.1583C50.2426 45.696 47.6675 46.9208 45.0925 48.3547V48.3248Z" fill="black"/>
<path id="Vector_66" fill-rule="evenodd" clip-rule="evenodd" d="M35.6305 47.9365L36.439 54.5981C39.3134 52.2083 48.9848 46.3831 52.8473 45.5765L49.7633 37.0031C46.6493 38.3474 37.487 44.3816 35.6006 47.9664L35.6305 47.9365Z" fill="#333333"/>
<path id="Vector_67" fill-rule="evenodd" clip-rule="evenodd" d="M35.6299 47.9365L35.7497 48.8327C37.7558 45.5467 47.008 39.5423 50.2417 38.2279L49.7926 37.0031C46.6786 38.3474 37.5162 44.3816 35.6299 47.9664V47.9365Z" fill="#4D4D4D"/>
<path id="Vector_68" fill-rule="evenodd" clip-rule="evenodd" d="M36.2588 53.1642L36.4384 54.628C39.3129 52.2382 48.9843 46.413 52.8468 45.6065L52.3677 44.2622C48.625 45.0986 39.0434 50.8641 36.2588 53.1941V53.1642Z" fill="#1A1A1A"/>
<path id="Vector_69" fill-rule="evenodd" clip-rule="evenodd" d="M80.3945 39.4826L80.0652 39.2137L79.646 39.3034L56.4107 43.7843L55.8718 43.8739L55.7221 44.3817C55.5724 52.3577 51.111 54.5683 40.0024 58.6011L37.0381 59.6765L40.1221 60.3337C46.7094 61.7676 54.9735 61.8572 62.9981 60.5727C69.6752 59.4972 76.2026 57.4659 81.5323 54.389C81.3227 55.1358 80.9934 55.8528 80.6041 56.51C79.8556 57.7049 78.8375 58.7803 77.7596 59.8258L75.5139 61.9767L78.5381 61.3792C82.1911 60.6623 85.7542 59.5271 88.6885 57.8543C91.2935 56.3606 93.4194 54.4488 94.7069 52.059L95.0662 51.4018L94.4674 50.9238L80.3646 39.4826H80.3945ZM87.7903 56.271C85.8141 57.4062 83.5085 58.2725 81.0832 58.9297C81.4724 58.4517 81.8318 57.9737 82.1312 57.4659C82.9995 56.0619 83.5684 54.4786 83.5984 52.6265V50.9238L82.1911 51.8499C76.8314 55.3151 69.8848 57.6153 62.7286 58.7803C56.1712 59.8258 49.4941 59.9453 43.7152 59.1089C46.949 57.8244 49.4641 56.51 51.4703 54.7774C54.0453 52.5668 55.8119 49.7289 57.2491 45.4571L79.5561 41.1555L92.7008 51.82C91.5331 53.6123 89.8264 55.0761 87.7304 56.271H87.7903Z" fill="black"/>
<path id="Vector_70" fill-rule="evenodd" clip-rule="evenodd" d="M56.5897 44.6505C53.7153 53.463 49.703 56.0619 40.3311 59.4375C52.7571 62.126 71.2914 60.0349 82.6994 52.6265C82.6395 55.9723 80.6633 58.3023 78.3578 60.5129C85.005 59.1985 91.2629 56.4801 93.8978 51.6407L79.795 40.1995L56.5598 44.6804L56.5897 44.6505Z" fill="#FF0066"/>
<path id="Vector_71" fill-rule="evenodd" clip-rule="evenodd" d="M56.5904 44.6506C55.4526 48.1158 54.1351 50.6251 52.3984 52.5967C52.9374 53.3136 53.7758 53.6124 54.8537 53.6422C58.6564 53.6721 59.7044 53.6721 63.5669 53.7916C68.178 53.9111 72.5795 50.6848 77.2206 50.8342C78.9273 50.8939 80.6939 51.82 82.4605 52.7162L82.6402 52.5967V52.8058C84.257 53.6123 85.844 54.389 87.401 54.4189C88.5987 54.4189 89.8263 54.4787 91.024 54.5085C91.1737 54.5085 91.4132 54.4787 91.7127 54.4189C92.581 53.5825 93.2996 52.6266 93.8685 51.6109L79.7657 40.1697L56.5305 44.6506H56.5904Z" fill="#DC0058"/>
<path id="Vector_72" fill-rule="evenodd" clip-rule="evenodd" d="M58.6862 44.2322L56.5903 44.6206C55.3626 48.3845 53.9254 51.0133 51.9492 53.0745C55.0333 51.0432 57.0394 48.4144 58.6862 44.2322Z" fill="#DC0058"/>
<path id="Vector_73" fill-rule="evenodd" clip-rule="evenodd" d="M85.4541 50.3263C74.6449 57.3463 57.488 59.6166 45.1518 57.5256C43.7145 58.1529 42.1276 58.7802 40.3311 59.4075C52.7571 62.0961 71.2914 60.005 82.6994 52.5966C82.6395 55.9423 80.6633 58.2724 78.3578 60.4829C83.7773 59.4075 88.9274 57.4061 92.0713 54.0902C89.0472 56.0917 85.1547 57.4061 81.1125 58.1828C83.3881 56.0021 85.3643 53.6421 85.4541 50.2964V50.3263Z" fill="#DC0058"/>
<path id="Vector_74" fill-rule="evenodd" clip-rule="evenodd" d="M91.6827 35.4796C91.4431 33.6275 91.1138 31.2078 86.9219 31.1182C82.6701 31.0286 78.0889 30.3415 73.2682 29.6246C67.8486 28.818 62.1296 27.9517 56.1711 27.8322C55.9016 27.8322 55.6621 27.8322 55.4226 27.892C53.7458 28.1309 52.069 29.2661 50.8414 30.5506C49.5838 31.865 48.7155 33.3885 48.6855 34.3444V34.673L50.542 47.817C50.7216 49.1613 51.2007 50.1769 51.9493 50.864C52.7577 51.6108 53.7757 51.9394 55.0333 51.9693H56.3807C59.0755 51.9992 60.2433 52.029 63.7465 52.1186C66.2317 52.1784 68.5672 51.3718 70.8728 50.5951C73.0586 49.8483 75.2444 49.1015 77.4002 49.1613C78.7776 49.1911 80.3346 49.9977 81.9215 50.8042C83.7779 51.7602 85.6643 52.7161 87.6405 52.746L91.2635 52.8356C91.2635 52.8356 91.5629 52.8356 91.7126 52.8356C92.4911 52.7161 93.8685 52.268 95.0662 51.6706C96.4136 51.0134 97.5813 50.1172 97.5813 49.1613V48.8028C96.8028 47.1 91.8025 36.316 91.7126 35.5393L91.6827 35.4796ZM93.7188 49.6691C92.7307 50.1471 91.5929 50.5354 91.024 50.625H90.9341L87.3111 50.5653C85.9338 50.5653 84.3468 49.7288 82.7599 48.9223C80.9035 47.9962 79.077 47.0403 77.1307 46.9806C74.5557 46.8909 72.1902 47.6975 69.8248 48.5041C67.669 49.221 65.5431 49.9678 63.477 49.9081C60.2433 49.8185 58.9558 49.8185 56.0514 49.7886H54.7339C54.135 49.7886 53.6859 49.6392 53.4464 49.4002C53.1469 49.1314 52.9374 48.5937 52.8176 47.817L50.9911 34.7029C50.9911 34.1652 51.6798 33.0898 52.6679 32.0741C53.656 31.0286 54.9435 30.1324 56.1112 29.983C56.231 29.983 56.3807 29.983 56.5005 29.983C62.3093 30.1324 67.9384 30.9688 73.2682 31.7455C78.1787 32.4923 82.8198 33.1794 87.2213 33.269C89.1076 33.2989 89.2873 34.5237 89.4071 35.4199V35.7485L95.2159 48.8028C95.0662 48.982 94.4374 49.3405 93.7188 49.699V49.6691Z" fill="black"/>
<path id="Vector_75" fill-rule="evenodd" clip-rule="evenodd" d="M87.0708 32.1937C77.9384 31.9846 67.5484 29.1467 56.35 28.8779C53.236 28.8181 49.6429 33.1795 49.8525 34.6433L51.679 47.7872C51.9784 49.9381 53.0264 50.8044 54.8828 50.8342C58.6855 50.8641 59.7335 50.8641 63.596 50.9836C68.2071 51.1031 72.6087 47.8768 77.2497 48.0262C80.5733 48.1457 84.1364 51.5512 87.46 51.6109C88.6577 51.6109 89.8854 51.6707 91.083 51.7005C92.161 51.7005 96.5625 49.9978 96.4128 48.8029L90.574 35.5992C90.3944 34.1952 90.2447 32.2535 87.0708 32.1639V32.1937Z" fill="#1A1A1A"/>
<path id="Vector_76" fill-rule="evenodd" clip-rule="evenodd" d="M96.8016 47.2794H97.9394L95.9333 32.9405C95.6938 31.0884 95.3644 28.6687 91.1725 28.5791L57.1281 27.7725C55.1519 27.7128 54.044 28.3401 53.4452 29.2363C52.8763 30.1026 52.8463 31.1482 52.9661 32.0742L54.7926 45.2181C54.9722 46.5624 55.4513 47.5482 56.1999 48.2652C57.0083 49.012 58.0264 49.3406 59.2839 49.3704H60.8709C63.386 49.4003 64.5837 49.4302 67.9971 49.5198C70.4824 49.5795 72.7879 48.773 75.1234 47.9963C77.3092 47.2495 79.495 46.5027 81.6508 46.5624C83.0282 46.5923 84.5852 47.3989 86.1721 48.2054C88.0285 49.1613 89.9149 50.1173 91.8911 50.1471L95.5141 50.2367C95.6938 50.2367 95.8734 50.2367 96.0231 50.2367C96.6519 50.1471 97.131 49.8783 97.4903 49.4601C97.8197 49.0717 97.9694 48.5639 97.9993 47.9664C97.9993 47.7872 97.9993 47.5781 97.9694 47.369H96.8316L96.8016 47.2794ZM95.574 47.9664C95.574 47.9664 95.4542 48.056 95.3345 48.0859H95.1847L91.5617 48.0262C90.1844 48.0262 88.5974 47.1897 87.0105 46.3832C85.1541 45.4571 83.3276 44.5012 81.3814 44.4415C78.8063 44.3518 76.4409 45.1584 74.0754 45.965C71.9196 46.6819 69.7937 47.4287 67.7277 47.369C64.5837 47.3092 63.2962 47.2794 60.5415 47.2495H58.9845C58.3857 47.2196 57.9365 47.1001 57.697 46.8611C57.3976 46.5923 57.188 46.0546 57.0682 45.2779L55.2417 32.1339C55.1519 31.5962 55.1818 30.9689 55.4513 30.5507C55.7208 30.1624 56.2897 29.8636 57.4275 29.8935L91.4719 30.7001C93.3583 30.7299 93.5379 31.9547 93.6577 32.8509C94.2865 37.6305 95.0051 42.44 95.6638 47.2196V47.5183C95.6638 47.6976 95.6339 47.8469 95.5441 47.9664H95.574Z" fill="black"/>
<path id="Vector_77" fill-rule="evenodd" clip-rule="evenodd" d="M91.3232 29.6545C82.1908 29.4454 68.4772 29.1168 57.2788 28.848C54.1648 28.7882 53.8953 30.6403 54.1049 32.134L55.9314 45.2779C56.2308 47.4287 57.2788 48.295 59.1352 48.3249C62.9379 48.3548 63.9859 48.3548 67.8484 48.4743C72.4595 48.5938 76.8611 45.3675 81.5021 45.5169C84.8257 45.6364 88.3888 49.0418 91.7124 49.1016C92.9101 49.1016 94.1378 49.1613 95.3355 49.1912C96.4134 49.1912 96.9523 48.4743 96.8026 47.3092L94.8264 33.1197C94.6468 31.7157 94.4971 29.774 91.3232 29.6844V29.6545Z" fill="#3E3E3E"/>
<path id="Vector_78" fill-rule="evenodd" clip-rule="evenodd" d="M90.1856 31.0286C81.7718 30.8195 69.1062 30.5208 58.7761 30.2818C55.9016 30.222 55.6322 31.8053 55.8118 33.0599L57.3688 44.2622C57.6383 46.0844 58.5665 46.8312 60.3032 46.891C63.8064 46.9208 64.7945 46.9507 68.3576 47.0105C72.6094 47.1001 76.6517 44.1427 80.9633 44.2622C84.0175 44.3518 87.3111 47.5183 90.3652 47.578C91.4731 47.578 92.581 47.6079 93.7188 47.6378C94.7069 47.6378 95.2159 47.0403 95.0961 46.0247L93.4193 33.8964C93.2397 32.7015 93.1499 31.0286 90.2155 30.9689L90.1856 31.0286Z" fill="#1A1A1A"/>
<path id="Vector_79" fill-rule="evenodd" clip-rule="evenodd" d="M88.1493 30.9988L58.7759 30.3117C55.9613 30.252 55.6319 31.7755 55.8116 33.0899C56.6799 39.393 56.4404 46.6819 59.8239 46.891C74.1363 47.7573 71.0822 43.9934 80.9332 44.322C82.9992 44.3817 93.5988 50.6549 92.97 46.0844C91.7124 37.0032 92.431 31.1481 88.1193 31.0286L88.1493 30.9988Z" fill="#0096DC"/>
<path id="Vector_80" fill-rule="evenodd" clip-rule="evenodd" d="M88.1493 30.9988L58.7759 30.3117C55.9613 30.252 55.6319 31.7755 55.8116 33.0899C56.0511 34.9121 56.2308 36.8239 56.4104 38.6163C69.4653 42.8283 74.2261 35.8979 92.0418 37.3318C91.5627 33.3886 90.8441 31.0585 88.1493 30.9988Z" fill="#00ADFE"/>
<path id="Vector_81" opacity="0.2" fill-rule="evenodd" clip-rule="evenodd" d="M61.0811 46.9209C63.3267 47.0105 65.0933 47.0105 66.5305 46.9209L70.0637 30.5806L64.6442 30.4611L61.0811 46.9508V46.9209Z" fill="white"/>
<path id="Vector_82" opacity="0.2" fill-rule="evenodd" clip-rule="evenodd" d="M69.3756 46.5325C70.5434 46.2935 71.4417 45.9947 72.28 45.696L75.5138 30.6701L72.7891 30.6104L69.3457 46.5325H69.3756Z" fill="white"/>
<path id="Vector_83" opacity="0.2" fill-rule="evenodd" clip-rule="evenodd" d="M83.3282 30.8792L80.4238 44.292H80.9628C81.8611 44.3219 84.3762 45.5467 86.8614 46.5026L90.0652 31.626C89.5562 31.2377 88.9274 30.9987 88.1489 30.9987L83.3282 30.8792Z" fill="white"/>
</g>
</g>
</svg>
