<svg width="119" height="66" viewBox="0 0 119 66" fill="none" xmlns="http://www.w3.org/2000/svg">
<g id="Choose Character">
<path id="Vector" d="M0.484502 41.8234C-0.161501 42.4742 -0.161501 43.531 0.484502 44.1818L8.75333 52.5119C9.39934 53.1627 10.4484 53.1627 11.0944 52.5119C11.7404 51.8611 11.7404 50.8042 11.0944 50.1535L6.99359 43L11.0893 35.8465C11.7353 35.1958 11.7353 34.1389 11.0893 33.4881C10.4433 32.8373 9.39417 32.8373 8.74817 33.4881L0.479334 41.8182L0.484502 41.8234Z" fill="white"/>
<path id="Vector_2" d="M118.095 41.8234C118.741 42.4742 118.741 43.531 118.095 44.1818L109.826 52.5119C109.18 53.1627 108.131 53.1627 107.485 52.5119C106.839 51.8611 106.839 50.8042 107.485 50.1535L111.586 43L107.49 35.8465C106.844 35.1958 106.844 34.1389 107.49 33.4881C108.136 32.8373 109.185 32.8373 109.831 33.4881L118.1 41.8182L118.095 41.8234Z" fill="white"/>
<g id="Capped">
<path id="Vector_3" fill-rule="evenodd" clip-rule="evenodd" d="M87.3 42.65C87.0382 42.1882 86.66 41.813 86.1946 41.4955C85.4092 40.8606 84.3911 40.341 83.373 39.9947C82.0931 39.5329 80.8132 39.302 79.9697 39.302H77.3808C75.6646 39.302 75.7227 39.302 74.152 39.7061V39.8215C73.3957 40.2545 72.0576 41.409 71.9703 42.3325C71.8831 42.5634 71.8249 42.8232 71.7667 43.0541C71.7085 43.3139 71.7085 43.5736 71.7085 43.8334C71.7085 47.6432 69.0906 58.0048 73.9193 61.5837C75.0246 61.5837 77.2353 62.1898 79.9988 62.1898C81.2205 62.1898 83.6057 61.728 85.322 60.8044C86.6891 60.054 87.7072 58.9861 87.7654 57.543V57.0812C87.7945 53.1848 88.1145 48.0184 87.7945 44.2663C87.7654 43.6891 87.5909 43.1407 87.3 42.6789V42.65ZM85.4092 57.4275C85.4092 57.9182 84.8856 58.38 84.1584 58.7552C82.7913 59.5056 80.9296 59.852 79.9697 59.852C70.545 59.852 74.0356 57.8027 74.0356 43.8045C74.0356 43.6602 74.0356 43.5448 74.0647 43.4293C74.0647 43.285 74.1229 43.1696 74.152 43.083C75.2573 40.8894 77.7299 41.6398 79.9406 41.6398C80.5514 41.6398 81.5405 41.8419 82.5295 42.1882C83.3439 42.4769 84.1293 42.8809 84.7111 43.3427L84.8565 43.4293C85.0311 43.5159 85.1474 43.6602 85.2638 43.8334C85.3511 43.9777 85.4092 44.122 85.4092 44.2952C85.5838 46.5464 85.7292 55.2629 85.3801 57.3409V57.3987L85.4092 57.4275Z" fill="black"/>
<path id="Vector_4" fill-rule="evenodd" clip-rule="evenodd" d="M86.6023 44.324C86.5732 43.5447 86.1368 42.8521 85.4969 42.448C83.9843 41.178 81.279 40.4565 79.9701 40.4565H76.1595H76.1013H76.0722H76.0431H75.9849H75.9268H75.8395H75.8104H75.7813H75.7231H75.665H75.6068H75.5777H75.5195H75.4613H75.4032H75.345H75.3159H75.2868H75.2286H75.1705H75.1123V40.4853H75.0832L75.0541 40.5142L74.9959 40.5431L74.9377 40.5719L74.8796 40.6008L74.8505 40.6297H74.8214V40.6585H74.7632V40.6874H74.705V40.7162H74.6759V40.774L74.6469 40.8317L74.5887 40.8894L74.5305 40.9183L74.5014 40.9471H74.4723V40.976H74.4432V41.0049H74.3851V41.0626H74.356V41.1203L74.3269 41.178L74.2978 41.2358L74.2396 41.2935L74.2105 41.3512V41.4089H74.1814V41.4667V41.5244H74.1524V41.5821H74.0942V41.6398L74.0651 41.6976L74.036 41.7553L74.0069 41.813V41.8707V41.9285V41.9862H73.9778V42.0439H73.9487V42.1305V42.2171V42.3037V42.3614V42.4191V42.4768C73.8324 42.8232 73.7451 43.1984 73.7451 43.6025V57.6873V57.7161V57.8027V57.8893V57.9182V57.9759V58.0336V58.0913V58.1491V58.2068V58.2645V58.3222V58.38V58.4377V58.5243L73.8033 58.6109L73.8324 58.6686L73.8615 58.7263L73.8906 58.784L73.9196 58.8418L73.9487 58.8995V58.9572L73.9778 59.0149V59.0727V59.1304L74.036 59.1593V59.217V59.2747V59.3324V59.3902H74.0651V59.4479H74.0942V59.5056H74.1233V59.5633H74.1524V59.6211H74.1814V59.6788H74.2396V59.7365H74.2978V59.7942L74.356 59.852L74.4142 59.9097L74.4723 59.9674L74.5305 60.0251L74.5887 60.054L74.6469 60.0828L74.705 60.1117L74.7632 60.1406L74.8214 60.1694L74.8796 60.1983L74.9377 60.2272L74.9959 60.256L75.0541 60.2849H75.1123H75.1414H75.1705H75.1995H75.2286H75.2577H75.2868H75.3159H75.345H75.4032H75.4323H75.4904H75.5486H75.6068H75.665H75.7231H75.7813H75.8395H75.9268H76.014H76.1013H79.8246C81.6863 60.2849 86.4277 59.1593 86.4277 56.706C86.4277 56.706 86.4568 56.4462 86.4568 56.3307V43.6313V43.5736L86.6023 44.324Z" fill="black"/>
<path id="Vector_5" fill-rule="evenodd" clip-rule="evenodd" d="M79.999 40.4565H76.2756C74.414 40.4565 72.9014 41.9573 72.9014 43.8045V57.6584C72.9014 59.5056 74.414 61.0064 76.2756 61.0064H79.999C81.8606 61.0064 86.6021 59.8808 86.6021 57.4275V44.4106C86.6312 41.9285 81.8606 40.4565 79.999 40.4565Z" fill="#323936"/>
<path id="Vector_6" d="M78.515 40.1968H77.0024C74.3998 40.1968 72.29 42.2902 72.29 44.8725V56.5328C72.29 59.1152 74.3998 61.2085 77.0024 61.2085H78.515C81.1175 61.2085 83.2273 59.1152 83.2273 56.5328V44.8725C83.2273 42.2902 81.1175 40.1968 78.515 40.1968Z" fill="#292E2C"/>
<path id="Vector_7" fill-rule="evenodd" clip-rule="evenodd" d="M33.0789 40.6008L33.3116 41.813C33.6606 43.6314 33.3988 45.3054 32.3225 46.8062C31.159 48.4225 29.0937 49.9522 25.8358 51.4242L23.1306 52.6364L25.9812 53.358C26.7957 53.56 27.6102 53.6754 28.4247 53.7332C26.8539 54.9165 25.1086 55.9556 22.927 56.0133L19 56.1287L22.4615 57.9471C24.0032 58.7552 25.894 59.6499 27.7556 60.054C28.7447 60.2561 29.7628 60.3426 30.6936 60.1695C30.2282 60.5447 29.501 60.891 28.3665 61.1796L25.2249 61.9878L28.2792 63.1423C30.9263 64.1525 36.3077 64.2968 41.1364 63.6618C45.4415 63.0846 49.4266 61.8435 50.9101 59.9674L51.1137 59.7077L51.6955 40.3411L34.2715 40.572H33.0498L33.0789 40.6008ZM49.6011 42.4191L49.1066 58.9284C47.7977 60.2272 44.5106 61.1219 40.9037 61.6126C37.8203 62.0167 34.5624 62.1032 32.0317 61.8146C33.3406 60.8622 33.5152 59.7365 33.6897 58.7841L33.777 58.3223L34.7369 54.8877L32.0898 57.3121C31.0717 58.2357 29.7046 58.3223 28.2502 58.0048C27.5811 57.8605 26.9121 57.6296 26.243 57.3698C28.1338 56.6483 29.6755 55.4072 31.1299 54.2238C31.5372 53.9063 31.9444 53.56 32.3807 53.2425L35.9004 50.5872L31.5662 51.4242C31.0136 51.5396 30.4609 51.5974 29.8791 51.6262C31.7699 50.4717 33.1661 49.2595 34.0679 47.9607C35.2605 46.2867 35.6968 44.4972 35.5514 42.5923L49.6302 42.3903L49.6011 42.4191Z" fill="black"/>
<path id="Vector_8" fill-rule="evenodd" clip-rule="evenodd" d="M26.2431 52.3477C28.0465 52.8095 29.8791 52.8095 31.6826 52.4343C29.2392 54.2815 26.7957 56.8791 22.9561 56.9946C25.9231 58.5531 30.1409 60.458 32.7589 58.0625C32.4389 59.2458 32.788 61.093 28.6574 62.1609C33.3698 63.9504 47.3322 62.8825 50.1247 59.3324L50.6483 41.3801L34.3297 41.611C35.1151 45.796 33.137 49.2595 26.2431 52.3477Z" fill="#FFCC00"/>
<path id="Vector_9" fill-rule="evenodd" clip-rule="evenodd" d="M25.0795 56.6771C24.4105 56.8791 23.7124 56.9945 22.9561 57.0234C25.7776 58.4954 29.181 60.5735 32.7298 58.2068C32.9916 57.6007 35.8423 54.0506 35.9877 53.5599C33.9515 55.4071 27.6975 57.8316 25.0795 56.6771Z" fill="#FEA000"/>
<path id="Vector_10" fill-rule="evenodd" clip-rule="evenodd" d="M26.2432 52.3478C27.3776 52.6364 29.5011 53.0693 31.6827 52.4344C32.6717 51.8571 34.8825 51.1356 36.2205 48.7689C34.417 49.3461 29.4429 51.3665 28.3375 51.2799C27.6976 51.6262 26.9995 51.9726 26.2432 52.3189V52.3478Z" fill="#FEA000"/>
<path id="Vector_11" fill-rule="evenodd" clip-rule="evenodd" d="M30.7225 61.4105C30.1989 61.6992 29.5299 61.9589 28.6572 62.1898C33.3696 63.9793 47.3321 62.9114 50.1246 59.3613L50.27 54.2527C47.8847 57.2832 34.7367 62.2475 30.7225 61.4394V61.4105Z" fill="#FEA000"/>
<path id="Vector_12" fill-rule="evenodd" clip-rule="evenodd" d="M77.9042 42.1016C75.4608 42.1016 73.2501 43.0829 71.6211 44.6992C70.0212 46.2867 69.0322 48.5091 69.0322 50.9335C69.0322 53.3579 70.0212 55.5515 71.6502 57.1677C73.2501 58.7552 75.4899 59.7365 77.9333 59.7365C80.3768 59.7365 82.5875 58.7552 84.2164 57.1389C85.8163 55.5515 86.8053 53.3291 86.8053 50.9046C86.8053 48.4802 85.8163 46.2578 84.2164 44.6704C82.6166 43.0829 80.3768 42.1016 77.9333 42.1016H77.9042ZM82.4129 55.3783C81.2785 56.5328 79.6786 57.2255 77.9042 57.2255C76.1298 57.2255 74.559 56.5328 73.3955 55.3783C72.232 54.2527 71.5338 52.6652 71.5338 50.9046C71.5338 49.144 72.232 47.5855 73.3955 46.431C74.53 45.2765 76.1298 44.5838 77.9042 44.5838C79.6786 44.5838 81.2494 45.3053 82.4129 46.431C83.5765 47.5566 84.2746 49.144 84.2746 50.9046C84.2746 52.6652 83.5765 54.2238 82.4129 55.3783Z" fill="black"/>
<path id="Vector_13" fill-rule="evenodd" clip-rule="evenodd" d="M77.9044 43.3428C73.6866 43.3428 70.2832 46.7197 70.2832 50.9047C70.2832 55.0897 73.6866 58.4666 77.9044 58.4666C82.1222 58.4666 85.5256 55.0897 85.5256 50.9047C85.5256 46.7197 82.1222 43.3428 77.9044 43.3428Z" fill="#FFE7AD"/>
<path id="Vector_14" fill-rule="evenodd" clip-rule="evenodd" d="M75.2277 44.2952C71.5334 44.2952 68.5664 47.268 68.5664 50.9047C68.5664 54.5413 71.5625 57.5142 75.2277 57.5142C78.8928 57.5142 81.889 54.5413 81.889 50.9047C81.889 47.268 78.8928 44.2952 75.2277 44.2952Z" fill="#FFD26B"/>
<path id="Vector_15" fill-rule="evenodd" clip-rule="evenodd" d="M75.9558 18.3768H41.7477C39.4788 18.3768 37.4426 19.3004 35.93 20.7724C34.4465 22.2444 33.5156 24.2936 33.5156 26.5449V54.5413C33.5156 56.7637 34.4174 58.7263 35.8718 60.1694C37.3262 61.6126 39.4206 62.565 41.6604 62.7093C45.8783 62.9402 50.7651 63.4309 55.3902 63.9216C61.5279 64.5565 67.2874 65.1338 70.6908 65.0472C73.7742 64.9606 77.5266 63.8927 80.2609 61.8146C82.5589 60.0829 84.1588 57.6873 84.1588 54.5702V26.5737C84.1588 24.3225 83.2279 22.3021 81.7444 20.8013C80.2609 19.3293 78.1956 18.4057 75.9267 18.4057L75.9558 18.3768ZM81.8317 54.5124C81.8317 56.7926 80.61 58.582 78.8647 59.9097C76.5376 61.6703 73.3087 62.5939 70.6617 62.6516C67.4038 62.7382 61.7315 62.1609 55.652 61.5548C50.9687 61.093 46.0528 60.5735 41.8059 60.3426C40.1478 60.256 38.6352 59.5633 37.5298 58.4954C36.5117 57.4853 35.8718 56.0999 35.8718 54.5124V26.516C35.8718 24.8997 36.5408 23.4566 37.588 22.3887C38.6352 21.3208 40.1187 20.6858 41.7477 20.6858H75.9558C77.5848 20.6858 79.0392 21.3496 80.1155 22.3887C81.1917 23.4277 81.8317 24.8997 81.8317 26.516V54.5124Z" fill="black"/>
<path id="Vector_16" fill-rule="evenodd" clip-rule="evenodd" d="M75.9556 19.5313H41.7474C37.8787 19.5313 34.708 22.6773 34.708 26.516V54.5124C34.708 58.3511 37.8787 61.2951 41.7474 61.4971C51.5503 62.0455 64.8437 63.9792 70.6905 63.8061C75.8392 63.6618 82.995 60.5735 82.995 54.4836V26.4871C82.995 22.6484 79.8243 19.5024 75.9556 19.5024V19.5313Z" fill="#FFE7AD"/>
<path id="Vector_17" fill-rule="evenodd" clip-rule="evenodd" d="M46.0234 58.6975C42.1547 58.4666 38.984 55.5515 38.984 51.7128V23.7164C38.984 22.2155 39.4785 20.8302 40.293 19.6757C37.1224 20.3395 34.708 23.168 34.708 26.516V54.5125C34.708 58.3511 37.8787 61.2951 41.7474 61.4971C51.5503 62.0455 64.8437 63.9793 70.6905 63.8061C74.0648 63.7195 78.2826 62.363 80.8133 59.7365C78.8935 60.5447 73.1921 62.7382 71.3596 62.7959C65.4837 62.9691 55.8263 59.2459 45.9944 58.6975H46.0234Z" fill="#FFD26B"/>
<path id="Vector_18" fill-rule="evenodd" clip-rule="evenodd" d="M75.9553 18.9542H41.7472C39.6528 18.9542 37.733 19.82 36.3658 21.1766C34.9695 22.5619 34.126 24.438 34.126 26.5161V42.6501L43.2598 46.2002L43.1725 27.9592L71.5338 31.9711C75.548 30.8454 79.5914 29.7487 83.6056 28.6519V26.4872C83.6056 24.4091 82.7329 22.5042 81.3658 21.1477C79.9695 19.7623 78.0788 18.9253 75.9844 18.9253L75.9553 18.9542ZM82.4129 27.8149L71.4466 30.8166L41.9799 26.6315L42.0381 44.4973L35.2604 41.8708V26.5161C35.2604 24.7555 35.9876 23.1392 37.1512 21.9847C38.3147 20.8302 39.9437 20.1086 41.7181 20.1086H75.9262C77.7006 20.1086 79.3296 20.8302 80.4931 21.9847C81.6566 23.1392 82.3839 24.7555 82.3839 26.5161V27.8149H82.4129Z" fill="black"/>
<path id="Vector_19" fill-rule="evenodd" clip-rule="evenodd" d="M75.9556 19.5313H41.7474C37.8787 19.5313 34.708 22.6773 34.708 26.516V42.2748L42.6492 45.3631L42.591 27.3241L71.505 31.4226L83.0241 28.2477V26.516C83.0241 22.6773 79.8534 19.5313 75.9846 19.5313H75.9556Z" fill="#FFCC00"/>
<path id="Vector_20" fill-rule="evenodd" clip-rule="evenodd" d="M58.7932 50.414C57.9206 49.5481 56.7279 49.0286 55.419 49.0286C54.11 49.0286 52.9173 49.5481 52.0447 50.414C51.172 51.2799 50.6484 52.4632 50.6484 53.762C50.6484 55.0608 51.172 56.2442 52.0447 57.1101C52.9173 57.9759 54.11 58.4955 55.419 58.4955C56.7279 58.4955 57.9206 57.9759 58.7932 57.1101C59.6659 56.2442 60.1895 55.0608 60.1895 53.762C60.1895 52.4632 59.6659 51.2799 58.7932 50.414ZM57.2806 55.5804C56.8152 56.0422 56.1462 56.3308 55.448 56.3308C54.7499 56.3308 54.0809 56.0422 53.6155 55.5804C53.1501 55.1186 52.8592 54.4547 52.8592 53.762C52.8592 53.0693 53.1501 52.4055 53.6155 51.9437C54.0809 51.4819 54.7499 51.1933 55.448 51.1933C56.1462 51.1933 56.8152 51.4819 57.2806 51.9437C57.746 52.4055 58.0369 53.0693 58.0369 53.762C58.0369 54.4547 57.746 55.1186 57.2806 55.5804Z" fill="black"/>
<path id="Vector_21" fill-rule="evenodd" clip-rule="evenodd" d="M55.7972 49.2885C53.5574 49.2885 51.7539 51.0779 51.7539 53.3003C51.7539 55.5227 53.5574 57.3122 55.7972 57.3122C58.037 57.3122 59.8405 55.5227 59.8405 53.3003C59.8405 51.0779 58.037 49.2885 55.7972 49.2885Z" fill="white"/>
<path id="Vector_22" fill-rule="evenodd" clip-rule="evenodd" d="M56.4658 50.7315C55.0405 50.7315 53.877 51.886 53.877 53.3002C53.877 54.7145 55.0405 55.869 56.4658 55.869C57.8912 55.869 59.0547 54.7145 59.0547 53.3002C59.0547 51.886 57.8912 50.7315 56.4658 50.7315Z" fill="#00D064"/>
<path id="Vector_23" fill-rule="evenodd" clip-rule="evenodd" d="M56.6988 52.0015C55.9716 52.0015 55.4189 52.5787 55.4189 53.2714C55.4189 53.9641 56.0007 54.5414 56.6988 54.5414C57.397 54.5414 57.9787 53.9641 57.9787 53.2714C57.9787 52.5787 57.397 52.0015 56.6988 52.0015Z" fill="#00662F"/>
<path id="Vector_24" fill-rule="evenodd" clip-rule="evenodd" d="M54.8077 49.9811C53.7606 49.9811 52.917 50.8181 52.917 51.8572C52.917 52.8962 53.7606 53.7332 54.8077 53.7332C55.8549 53.7332 56.6985 52.8962 56.6985 51.8572C56.6985 50.8181 55.8549 49.9811 54.8077 49.9811Z" fill="white"/>
<path id="Vector_25" fill-rule="evenodd" clip-rule="evenodd" d="M57.7743 54.5701C57.3961 54.5701 57.0762 54.8876 57.0762 55.2628C57.0762 55.638 57.3961 55.9555 57.7743 55.9555C58.1524 55.9555 58.4724 55.638 58.4724 55.2628C58.4724 54.8876 58.1524 54.5701 57.7743 54.5701Z" fill="white"/>
<path id="Vector_26" fill-rule="evenodd" clip-rule="evenodd" d="M80.4057 48.8843C79.5621 48.8843 78.7767 49.4327 78.224 50.2985C77.6713 51.1644 77.3223 52.3766 77.3223 53.6754C77.3223 54.9742 77.6713 56.1864 78.224 57.0523C78.7767 57.9182 79.5621 58.4666 80.4057 58.4666C81.2492 58.4666 82.0346 57.9182 82.5873 57.0523C83.14 56.1864 83.489 54.9742 83.489 53.6754C83.489 52.3766 83.14 51.1644 82.5873 50.2985C82.0346 49.4327 81.2492 48.8843 80.4057 48.8843ZM81.5983 55.5226C81.2783 55.9844 80.8711 56.3019 80.4057 56.3019C79.9402 56.3019 79.5039 56.0133 79.213 55.5226C78.9221 55.032 78.7185 54.397 78.7185 53.6754C78.7185 52.9539 78.9221 52.29 79.213 51.8282C79.5039 51.3664 79.9402 51.049 80.4057 51.049C80.8711 51.049 81.3074 51.3376 81.5983 51.8282C81.8892 52.29 82.0928 52.9539 82.0928 53.6754C82.0928 54.397 81.8892 55.0608 81.5983 55.5226Z" fill="black"/>
<path id="Vector_27" fill-rule="evenodd" clip-rule="evenodd" d="M80.1443 49.2595C78.719 49.2595 77.5264 51.0489 77.5264 53.2713C77.5264 55.4937 78.6899 57.2832 80.1443 57.2832C81.5988 57.2832 82.7623 55.4937 82.7623 53.2713C82.7623 51.0489 81.5988 49.2595 80.1443 49.2595Z" fill="white"/>
<path id="Vector_28" fill-rule="evenodd" clip-rule="evenodd" d="M80.5516 50.7026C79.6208 50.7026 78.8936 51.8571 78.8936 53.2714C78.8936 54.6856 79.6499 55.8401 80.5516 55.8401C81.4533 55.8401 82.2096 54.6856 82.2096 53.2714C82.2096 51.8571 81.4533 50.7026 80.5516 50.7026Z" fill="#00D064"/>
<path id="Vector_29" fill-rule="evenodd" clip-rule="evenodd" d="M80.7254 51.9725C80.26 51.9725 79.8818 52.5497 79.8818 53.2424C79.8818 53.9351 80.26 54.5124 80.7254 54.5124C81.1908 54.5124 81.569 53.9351 81.569 53.2424C81.569 52.5497 81.1908 51.9725 80.7254 51.9725Z" fill="#00662F"/>
<path id="Vector_30" fill-rule="evenodd" clip-rule="evenodd" d="M79.5039 49.9521C78.8349 49.9521 78.2822 50.7892 78.2822 51.8282C78.2822 52.8672 78.8349 53.7042 79.5039 53.7042C80.173 53.7042 80.7257 52.8672 80.7257 51.8282C80.7257 50.7892 80.173 49.9521 79.5039 49.9521Z" fill="white"/>
<path id="Vector_31" fill-rule="evenodd" clip-rule="evenodd" d="M81.3951 54.5413C81.1333 54.5413 80.9297 54.8588 80.9297 55.234C80.9297 55.6092 81.1333 55.9267 81.3951 55.9267C81.6569 55.9267 81.8605 55.6092 81.8605 55.234C81.8605 54.8588 81.6569 54.5413 81.3951 54.5413Z" fill="white"/>
<path id="Vector_32" fill-rule="evenodd" clip-rule="evenodd" d="M48.467 47.2969L48.0889 47.8453L63.0985 53.5023L64.4075 47.6721L53.1503 40.6008L48.467 47.3257V47.2969ZM63.2149 48.1339L62.3132 52.088L49.6887 47.3546L53.4121 42.0151L63.1858 48.1628L63.2149 48.1339Z" fill="black"/>
<path id="Vector_33" fill-rule="evenodd" clip-rule="evenodd" d="M48.874 47.5855L62.6911 52.7807L63.7964 47.903L53.2955 41.2935L48.874 47.5855Z" fill="#FFCC00"/>
<path id="Vector_34" fill-rule="evenodd" clip-rule="evenodd" d="M53.2955 41.2935L49.6594 46.4599L48.874 47.5855H48.9031L50.852 48.3359L54.2263 49.6059L59.4622 51.5685L62.6911 52.7807L63.1274 50.8469L51.6083 46.5176L53.2955 41.2935Z" fill="#FEA000"/>
<path id="Vector_35" fill-rule="evenodd" clip-rule="evenodd" d="M81.5112 41.3513L74.7627 47.9607L75.5481 53.4157L84.5364 48.1339L81.6567 41.7265L81.4821 41.3513H81.5112ZM76.0135 52.088L75.4899 48.3937L81.3658 42.6501L83.6056 47.6432L76.0426 52.088H76.0135Z" fill="black"/>
<path id="Vector_36" fill-rule="evenodd" clip-rule="evenodd" d="M75.1123 48.1916L75.7813 52.7519L84.0716 47.903L81.4245 42.0151L75.1123 48.1916Z" fill="#FFCC00"/>
<path id="Vector_37" fill-rule="evenodd" clip-rule="evenodd" d="M81.4245 42.0151L82.4426 46.8928L75.5195 50.9624L75.7813 52.7519L77.7303 51.6262L80.8718 49.779L82.8789 48.5957L84.0425 47.903H84.0716L83.6061 46.8639L81.4245 42.0151Z" fill="#FEA000"/>
<path id="Vector_38" fill-rule="evenodd" clip-rule="evenodd" d="M29.1231 45.2188C27.5232 46.8063 26.5342 49.0287 26.5342 51.4531C26.5342 53.8775 27.5232 56.0711 29.1231 57.6873C30.7229 59.2748 32.9627 60.285 35.4062 60.285C36.7443 60.285 38.0242 59.9963 39.1586 59.4479C38.9841 58.6109 38.8677 57.7451 38.8095 56.8215C37.8205 57.4276 36.657 57.7739 35.4062 57.7739C33.6318 57.7739 32.061 57.0524 30.8975 55.9267C29.763 54.7723 29.0358 53.1848 29.0358 51.4531C29.0358 49.7214 29.763 48.1339 30.8975 46.9794C32.061 45.8249 33.6318 45.1322 35.4062 45.1322C37.1806 45.1322 38.6641 45.7961 39.7986 46.864C40.0894 45.9693 40.4385 45.1611 40.8166 44.4684C39.304 43.3139 37.4424 42.6501 35.4062 42.6501C32.9627 42.6501 30.752 43.6314 29.1231 45.2188Z" fill="black"/>
<path id="Vector_39" fill-rule="evenodd" clip-rule="evenodd" d="M35.4064 43.8911C31.1885 43.8911 27.7852 47.2679 27.7852 51.453C27.7852 55.638 31.1885 59.0149 35.4064 59.0149C36.6862 59.0149 37.8789 58.6974 38.9552 58.149C38.7806 56.9657 38.6934 55.6957 38.6934 54.3969C38.6934 51.02 39.3042 47.9606 40.2641 45.6228C38.9552 44.526 37.2389 43.8911 35.4064 43.8911Z" fill="#FFE7AD"/>
<path id="Vector_40" fill-rule="evenodd" clip-rule="evenodd" d="M31.3916 51.4531C31.3916 55.1186 34.3877 58.0626 38.0529 58.0626C38.3438 58.0626 38.6346 58.0626 38.8964 58.0048C38.751 56.8503 38.6637 56.7926 38.6637 54.3971C38.6637 52.0015 38.3438 50.4718 39.42 48.1051C35.7549 45.9115 31.3916 46.7774 31.3916 51.4531Z" fill="#FFD26B"/>
<path id="Vector_41" fill-rule="evenodd" clip-rule="evenodd" d="M27.7852 51.453C27.7852 52.925 28.2215 54.3103 28.9487 55.4937C28.4833 54.5124 28.2506 53.4445 28.2506 52.29C28.2506 48.1049 31.6539 44.7281 35.8718 44.7281C37.4425 44.7281 38.897 45.1899 40.1187 45.998C40.1769 45.8826 40.206 45.7382 40.2641 45.6228C38.9552 44.526 37.2389 43.8911 35.4064 43.8911C31.1885 43.8911 27.7852 47.2679 27.7852 51.453Z" fill="#FFF8E9"/>
<path id="Vector_42" fill-rule="evenodd" clip-rule="evenodd" d="M44.7719 56.6482C43.4629 55.8112 42.8812 54.3392 42.7066 52.4343C42.5321 50.4428 42.7939 48.0184 43.1139 45.4496L43.1721 44.8724L38.1107 45.363H37.7034V45.796C37.6452 46.9216 37.558 48.0472 37.4416 49.144C37.0344 53.6465 36.6562 57.745 39.6814 59.9962L40.525 60.6023L40.3214 58.3799L42.9684 59.419L42.503 57.0523L47.099 58.0913L44.801 56.6482H44.7719ZM41.2813 55.84L41.6885 57.947L39.2451 56.9657L39.3615 58.4088C37.7034 56.3307 37.9943 52.8961 38.3434 49.2017C38.4306 48.2204 38.5179 47.2102 38.5761 46.2289L42.0958 45.8826C41.8049 48.307 41.6013 50.5871 41.7758 52.492C41.9213 53.9351 42.2703 55.2051 42.9684 56.1864L41.2813 55.8112V55.84Z" fill="black"/>
<path id="Vector_43" fill-rule="evenodd" clip-rule="evenodd" d="M42.6494 45.392L38.1698 45.8249C37.908 51.4242 36.4536 57.0235 39.9733 59.6211L39.7988 57.6873L42.3586 58.6975L41.9222 56.4751L44.5402 57.0812C41.6023 55.234 42.0095 50.6449 42.6494 45.4208V45.392Z" fill="#FFCC00"/>
<path id="Vector_44" fill-rule="evenodd" clip-rule="evenodd" d="M43.1721 55.6669L41.2523 55.1185L41.6013 57.3409L41.485 57.312L39.8851 56.5328L39.507 56.3596L39.6524 58.2934C39.187 57.8893 38.8379 57.3698 38.547 56.8214C38.547 56.8214 38.547 56.7925 38.518 56.7637C38.518 56.7637 38.518 56.7637 38.518 56.7348C38.1398 55.8978 37.9362 54.9453 37.8198 53.9063C37.6744 52.492 37.7617 50.9046 37.878 49.2306C37.7617 50.5871 37.6162 51.9148 37.6162 53.1559C37.6162 54.5701 37.7035 55.8689 38.0816 56.9657C38.1689 57.2255 38.2562 57.4563 38.3725 57.6872C38.4016 57.745 38.4307 57.8316 38.4598 57.8893C38.547 58.0625 38.6634 58.2356 38.7798 58.4088C39.0997 58.8706 39.4779 59.2747 39.9433 59.621L39.7688 57.6872L42.3286 58.6974L42.0958 57.4852L41.8922 56.475L44.5102 57.0811C43.9575 56.7348 43.4921 56.273 43.1721 55.7246V55.6669Z" fill="#FEA000"/>
<path id="Vector_45" fill-rule="evenodd" clip-rule="evenodd" d="M42.6496 45.392L41.7478 45.4786C41.3406 49.8079 41.2533 53.56 43.0277 55.4072C41.806 53.0982 42.1551 49.4327 42.6496 45.392Z" fill="#FFF841"/>
<path id="Vector_46" fill-rule="evenodd" clip-rule="evenodd" d="M65.3672 59.5634C65.3672 59.5634 71.6794 56.5329 72.3484 59.4191C72.3484 54.426 65.4254 59.448 65.3672 59.5634Z" fill="black"/>
<path id="Vector_47" fill-rule="evenodd" clip-rule="evenodd" d="M70.0207 51.3954C68.6826 51.5974 67.8682 54.2816 67.8682 54.3105C67.8682 54.3105 72.0569 52.2901 72.4932 54.2239C72.4932 52.9539 70.8643 51.2799 70.0207 51.3954Z" fill="#FFF8E9"/>
<path id="Vector_48" fill-rule="evenodd" clip-rule="evenodd" d="M75.5483 45.4208C74.2102 44.5838 72.4067 44.0931 70.4578 44.0931C68.5088 44.0931 66.6762 44.6127 65.3673 45.4208C63.8547 46.3733 62.9238 47.7009 62.9238 49.2595C62.9238 49.7502 63.0111 50.2408 63.2147 50.7026C63.3892 51.1644 63.651 51.5685 64.0001 51.9725L64.96 53.0982L65.9199 51.9725C66.3272 51.5108 66.938 51.1355 67.6943 50.8469C68.4797 50.5583 69.4106 50.3851 70.4287 50.3851C71.4468 50.3851 72.3776 50.5583 73.163 50.8469C73.9193 51.1355 74.5302 51.5108 74.9374 51.9725L75.8973 53.0982L76.8863 51.9725C77.2354 51.5973 77.4972 51.1644 77.6717 50.7026C77.8462 50.2408 77.9626 49.7502 77.9626 49.2595C77.9626 47.7298 77.0318 46.3733 75.5192 45.4208H75.5483ZM74.0938 48.4225C73.0176 48.0184 71.7667 47.7875 70.4578 47.7875C69.1488 47.7875 67.898 48.0184 66.8217 48.4225C66.3563 48.5957 65.9199 48.7977 65.5418 49.0286C65.6291 48.5091 66.0654 47.9896 66.7344 47.5566C67.6653 46.9794 68.9742 46.6042 70.4578 46.6042C71.9413 46.6042 73.2503 46.9505 74.1811 47.5566C74.8501 47.9607 75.2865 48.4802 75.3737 49.0286C74.9665 48.7977 74.5302 48.5957 74.0938 48.4225Z" fill="black"/>
<path id="Vector_49" fill-rule="evenodd" clip-rule="evenodd" d="M70.4281 45.3631C66.9956 45.3631 64.2031 47.0948 64.2031 49.2595C64.2031 49.9233 64.4649 50.5583 64.9594 51.1356C66.0066 49.9233 68.0719 49.1152 70.4281 49.1152C72.7842 49.1152 74.8495 49.9233 75.8967 51.1356C76.3912 50.5872 76.653 49.9522 76.653 49.2595C76.653 47.0948 73.8605 45.3631 70.4281 45.3631Z" fill="black"/>
<path id="Vector_50" fill-rule="evenodd" clip-rule="evenodd" d="M70.4281 45.3631C66.9956 45.3631 64.2031 47.0948 64.2031 49.2595C64.2031 49.4904 64.2322 49.7213 64.2904 49.9233C64.7849 48.0762 67.3447 46.6908 70.4281 46.6908C73.5115 46.6908 76.0712 48.0762 76.5658 49.9233C76.6239 49.6924 76.653 49.4904 76.653 49.2595C76.653 47.0948 73.8605 45.3631 70.4281 45.3631Z" fill="#333333"/>
<path id="Vector_51" fill-rule="evenodd" clip-rule="evenodd" d="M32.584 42.9098V43.718L42.765 48.4803L43.1722 50.2986L48.2918 51.8283L48.5827 44.122L32.584 39.937V42.881V42.9098ZM45.9356 46.0847L45.8484 48.4225L45.3539 48.2782L45.0048 46.6908L40.8742 44.757L45.9356 46.0847Z" fill="black"/>
<path id="Vector_52" fill-rule="evenodd" clip-rule="evenodd" d="M33.8643 42.9098L43.8998 47.5855L44.278 49.2884L47.0705 50.1254L47.2741 45.1034L33.8643 41.611V42.9098Z" fill="#1A1A1A"/>
<path id="Vector_53" fill-rule="evenodd" clip-rule="evenodd" d="M33.8643 42.8521L47.0123 46.2867L46.8668 50.0677L47.0705 50.1254L47.2741 45.1034L33.8643 41.611V42.8521Z" fill="#333333"/>
<path id="Vector_54" fill-rule="evenodd" clip-rule="evenodd" d="M67.2876 45.1899L66.9385 44.5838L46.4893 43.7468L46.1402 44.3241C45.733 44.9879 45.3839 45.6806 45.1803 46.431C44.9767 47.1526 44.8604 47.903 44.8604 48.6823C44.8604 51.3087 45.2385 53.7043 46.9256 55.5804C48.6419 57.4853 51.6089 58.7264 56.6994 58.9284C61.819 59.1304 64.7569 58.1491 66.5022 56.3885C68.2184 54.6568 68.5675 52.2901 68.5675 49.6636C68.5675 48.8843 68.4512 48.105 68.2475 47.3835C68.0439 46.6331 67.6949 45.8826 67.2876 45.1899ZM64.466 54.9165C63.2152 56.1865 60.8881 56.908 56.6994 56.7349C52.4815 56.5617 50.1545 55.6381 48.9327 54.2816C47.6819 52.8962 47.4201 50.9624 47.4201 48.7689C47.4201 48.1628 47.5074 47.5855 47.6819 47.0083C47.7983 46.6619 47.9146 46.3156 48.0892 45.9692L65.3387 46.6908C65.5132 47.0371 65.6587 47.4123 65.7459 47.7587C65.9204 48.3359 66.0077 48.9132 66.0077 49.5193C66.0077 51.684 65.7459 53.6177 64.4951 54.8877L64.466 54.9165Z" fill="black"/>
<path id="Vector_55" fill-rule="evenodd" clip-rule="evenodd" d="M47.2741 44.8724C46.5469 46.0269 46.1396 47.3257 46.1396 48.7399C46.1396 53.5311 47.4195 57.4563 56.7279 57.8315C66.0362 58.2068 67.3161 54.3969 67.3161 49.6058C67.3161 48.1915 66.9089 46.8639 66.1816 45.6517L47.3032 44.8724H47.2741Z" fill="#333333"/>
<g id="Clip path group">
<mask id="mask0_34_21389" style="mask-type:luminance" maskUnits="userSpaceOnUse" x="46" y="44" width="22" height="14">
<g id="clippath">
<path id="Vector_56" d="M66.1524 45.6517C66.8796 46.8639 67.2868 48.1915 67.2868 49.6058C67.2868 54.3969 66.0069 58.2068 56.6986 57.8315C47.3902 57.4563 46.1104 53.5022 46.1104 48.7399C46.1104 47.3257 46.5176 46.0269 47.2448 44.8724L66.1233 45.6517H66.1524Z" fill="white"/>
</g>
</mask>
<g mask="url(#mask0_34_21389)">
<g id="Group">
<path id="Vector_57" fill-rule="evenodd" clip-rule="evenodd" d="M51.4629 59.9384L58.0951 60.1981L64.3782 43.256L57.746 42.9673L51.4629 59.9384Z" fill="#454545"/>
<path id="Vector_58" fill-rule="evenodd" clip-rule="evenodd" d="M60.0146 60.2847L63.3307 60.429L69.6139 43.458L66.2978 43.3425L60.0146 60.2847Z" fill="#454545"/>
<path id="Vector_59" fill-rule="evenodd" clip-rule="evenodd" d="M43.8125 59.6209L47.0995 59.7364L53.3826 42.7942L50.0956 42.6499L43.8125 59.6209Z" fill="#454545"/>
</g>
</g>
</g>
<path id="Vector_60" fill-rule="evenodd" clip-rule="evenodd" d="M64.931 45.5939C65.0474 46.1134 65.1056 46.633 65.1056 47.1814C65.1056 51.9725 63.8257 55.7823 54.5173 55.4071C50.9685 55.2628 48.5833 54.599 46.9834 53.5599C48.176 55.9266 50.8522 57.5718 56.699 57.8027C66.0073 58.1779 67.2872 54.3681 67.2872 49.5769C67.2872 48.1627 66.88 46.835 66.1527 45.6228L64.931 45.5651V45.5939Z" fill="#333333"/>
<path id="Vector_61" fill-rule="evenodd" clip-rule="evenodd" d="M86.6888 44.2085L86.427 43.5447L73.2208 44.324L72.959 45.0167C72.6972 45.7094 72.4645 46.4598 72.3482 47.2391C72.2027 47.9895 72.1445 48.7688 72.1445 49.548C72.1445 52.2034 72.3772 54.5989 73.5117 56.3884C74.6461 58.1779 76.566 59.2169 79.853 59.0149C83.1691 58.8128 85.0889 57.5429 86.1943 55.6091C87.2997 53.6753 87.5615 51.2509 87.5615 48.5956C87.5615 47.7874 87.4742 47.037 87.3578 46.2866C87.2124 45.5362 87.0088 44.8146 86.747 44.1508L86.6888 44.2085ZM84.6817 54.166C83.9254 55.4937 82.471 56.3595 79.8239 56.5039C77.1768 56.6482 75.7224 55.9555 74.9661 54.7433C74.1807 53.5022 74.0353 51.5973 74.0353 49.4615C74.0353 48.8842 74.0935 48.307 74.1807 47.7297C74.2389 47.4122 74.3262 47.0947 74.4134 46.8061L85.2344 46.1711C85.3216 46.4598 85.4089 46.7773 85.4671 47.0947C85.5543 47.6431 85.6125 48.1915 85.6125 48.7976C85.6125 50.9334 85.438 52.8672 84.6817 54.1949V54.166Z" fill="black"/>
<path id="Vector_62" fill-rule="evenodd" clip-rule="evenodd" d="M73.8024 45.5651C73.337 46.7773 73.0752 48.1049 73.0752 49.5192C73.0752 54.3103 73.8897 58.1202 79.8237 57.7738C85.7578 57.4275 86.5723 53.5022 86.5723 48.7111C86.5723 47.2968 86.3105 45.998 85.8451 44.8435L73.8024 45.5651Z" fill="#333333"/>
<g id="Clip path group_2">
<mask id="mask1_34_21389" style="mask-type:luminance" maskUnits="userSpaceOnUse" x="73" y="44" width="14" height="14">
<g id="clippath-1">
<path id="Vector_63" d="M85.8451 44.8724C86.3105 46.0269 86.5723 47.3257 86.5723 48.7399C86.5723 53.5311 85.7578 57.4563 79.8237 57.8027C73.8897 58.149 73.0752 54.3392 73.0752 49.5481C73.0752 48.1338 73.337 46.8061 73.8024 45.5939L85.8451 44.8724Z" fill="white"/>
</g>
</mask>
<g mask="url(#mask1_34_21389)">
<g id="Group_2">
<path id="Vector_64" fill-rule="evenodd" clip-rule="evenodd" d="M76.4785 60.3137L80.6963 60.054L84.7106 42.5923L80.4927 42.852L76.4785 60.3137Z" fill="#454545"/>
<path id="Vector_65" fill-rule="evenodd" clip-rule="evenodd" d="M81.9473 59.9962L84.0416 59.8519L88.0559 42.3902L85.9615 42.5345L81.9473 59.9962Z" fill="#454545"/>
<path id="Vector_66" fill-rule="evenodd" clip-rule="evenodd" d="M71.5918 60.6024L73.7153 60.4869L77.7004 43.0252L75.606 43.1407L71.5918 60.6024Z" fill="#454545"/>
</g>
</g>
</g>
<path id="Vector_67" fill-rule="evenodd" clip-rule="evenodd" d="M85.0597 44.9012C85.147 45.4208 85.1761 45.9403 85.1761 46.4887C85.1761 51.2798 84.3616 55.2051 78.4275 55.5514C76.1586 55.6957 74.646 55.2051 73.6279 54.3104C74.3842 56.5905 76.1005 58.0047 79.8238 57.8027C85.7578 57.4563 86.5723 53.5311 86.5723 48.7399C86.5723 47.3257 86.3105 46.0269 85.8451 44.8724L85.0597 44.9301V44.9012Z" fill="#333333"/>
<path id="Vector_68" fill-rule="evenodd" clip-rule="evenodd" d="M62.7202 54.3681C61.7893 54.6279 61.1785 55.3494 61.353 55.9555C61.5275 56.5905 62.4293 56.8791 63.3601 56.6194C64.2909 56.3596 64.9018 55.638 64.7273 55.0319C64.5527 54.397 63.651 54.1083 62.7202 54.3681Z" fill="white"/>
<path id="Vector_69" fill-rule="evenodd" clip-rule="evenodd" d="M66.7052 46.7484C66.5598 46.3732 66.3562 45.998 66.1526 45.6517L47.2741 44.8724C46.5469 46.0269 46.1396 47.3257 46.1396 48.7399C46.1396 51.5973 46.6051 54.166 48.9612 55.84C47.6523 54.2238 47.3614 52.1457 47.3614 49.8656C47.3614 48.4513 47.7686 47.1525 48.4958 45.998L66.7343 46.7484H66.7052Z" fill="#666666"/>
<path id="Vector_70" fill-rule="evenodd" clip-rule="evenodd" d="M49.4269 45.6229C47.507 46.1424 46.2562 47.6144 46.6053 48.9132C46.9543 50.212 48.816 50.8181 50.7358 50.2986C52.6557 49.779 53.9065 48.3071 53.5574 47.0083C53.2084 45.7094 51.3467 45.1033 49.4269 45.6229Z" fill="white"/>
<path id="Vector_71" fill-rule="evenodd" clip-rule="evenodd" d="M73.8024 45.5651C73.337 46.7773 73.0752 48.105 73.0752 49.5193C73.0752 52.9539 73.4824 55.8978 75.9259 57.1389C74.7914 55.6092 74.5587 53.3291 74.5587 50.7603C74.5587 49.3461 74.8205 48.0184 75.2859 46.8062L86.2814 46.1424C86.165 45.6806 86.0196 45.2476 85.8451 44.8147L73.8024 45.5363V45.5651Z" fill="#666666"/>
<path id="Vector_72" fill-rule="evenodd" clip-rule="evenodd" d="M76.1298 46.229C74.7045 46.633 73.7446 47.7298 74.0354 48.6823C74.2972 49.6347 75.6935 50.1254 77.1188 49.7213C78.5442 49.3172 79.5041 48.2205 79.2132 47.268C78.9514 46.3156 77.5552 45.8249 76.1298 46.229Z" fill="white"/>
<path id="Vector_73" fill-rule="evenodd" clip-rule="evenodd" d="M86.4563 12.691C86.4563 10.6417 85.351 9.08318 83.6056 7.89982C81.9767 6.77419 79.8241 6.02377 77.5552 5.47539C75.5481 4.98473 73.541 4.40749 71.5048 3.80138C66.5598 2.3294 61.6147 0.857422 56.8442 0.857422C51.8701 0.857422 47.3323 2.3294 42.7944 3.8591C41.0782 4.43635 39.362 5.01359 37.733 5.47539C35.5223 6.11036 33.3988 6.86078 31.7699 7.92869C30.0246 9.11204 28.8901 10.6129 28.8901 12.691V28.0746L27.3193 33.6739L29.2101 39.0422L30.2864 38.8979C34.4751 38.3784 39.1293 37.9455 44.1325 37.6569C48.9321 37.3682 54.0517 37.2239 59.3749 37.2239C64 37.2239 68.4796 37.3394 72.6974 37.5414C77.0898 37.7723 81.2495 38.0898 85.0892 38.4939L85.9618 38.5805L88.6089 34.4531L86.4854 28.0457V12.691H86.4563ZM84.5365 36.5312C80.8713 36.156 76.9444 35.8674 72.8429 35.6654C68.5087 35.4633 64 35.3479 59.3749 35.3479C54.0226 35.3479 48.8739 35.4922 43.958 35.7808C39.3329 36.0406 34.9696 36.4158 30.9845 36.9064L29.821 33.645L31.3045 28.3055V12.7198C31.3045 11.3056 32.1189 10.2377 33.3407 9.42953C34.7078 8.50593 36.5695 7.87096 38.5475 7.29372C40.351 6.77419 42.0672 6.22581 43.7544 5.64856C48.0886 4.20545 52.3937 2.76233 56.8442 2.7912C61.1784 2.7912 65.9198 4.20545 70.6613 5.59084C72.7556 6.19695 74.8209 6.80306 76.8571 7.29372C78.8351 7.78437 80.6968 8.41935 82.0349 9.34294C83.2566 10.1799 84.042 11.2767 84.042 12.691V28.2766L86.02 34.2511L84.5656 36.5312H84.5365Z" fill="black"/>
<path id="Vector_74" fill-rule="evenodd" clip-rule="evenodd" d="M85.2346 12.6909C85.2346 9.22746 81.424 7.40914 77.177 6.37009C70.4285 4.72494 63.3309 1.83871 56.8442 1.80985C50.3283 1.78099 44.3943 4.60949 38.1402 6.37009C33.9806 7.55345 30.0827 9.1986 30.0827 12.6909V28.1611L28.541 33.6161L30.0827 37.9455C38.4311 36.8776 48.5248 36.2714 59.3458 36.2714C68.7705 36.2714 77.5843 36.7332 85.2346 37.5414L87.2999 34.3377L85.2346 28.1323V12.6621V12.6909Z" fill="#333333"/>
<path id="Vector_75" fill-rule="evenodd" clip-rule="evenodd" d="M28.541 33.6161L30.0827 37.9455C33.8642 37.4548 37.9948 37.0796 42.4162 36.791L40.6418 34.8861L28.541 33.6161Z" fill="#1A1A1A"/>
<path id="Vector_76" fill-rule="evenodd" clip-rule="evenodd" d="M32.4685 29.8063L29.996 28.421L28.8906 32.3751L32.4685 32.5483L36.3082 32.7503L37.8208 32.8369L36.3082 31.971L32.4685 29.8063Z" fill="#4D4D4D"/>
<path id="Vector_77" fill-rule="evenodd" clip-rule="evenodd" d="M77.1769 6.37009C70.4284 4.72494 63.3308 1.83871 56.844 1.80985C50.3282 1.78099 44.3942 4.60949 38.1401 6.37009C33.9805 7.55345 30.0826 9.1986 30.0826 12.6909V28.1611L30.0244 28.4209L31.1589 29.0559V14.7113C31.1589 11.2478 35.0567 9.57381 39.2164 8.39046C45.4704 6.62986 51.4045 3.80135 57.9203 3.83021C64.4071 3.85907 71.5338 6.7453 78.2532 8.39046C81.0748 9.08315 83.6928 10.0933 85.1472 11.7385C84.5072 8.88111 81.0166 7.29369 77.206 6.37009H77.1769Z" fill="#4D4D4D"/>
<path id="Vector_78" fill-rule="evenodd" clip-rule="evenodd" d="M35.9593 22.7351C36.192 24.438 36.4247 26.0831 36.4538 27.6128H37.5592C37.5592 25.9965 37.2974 24.3225 37.0647 22.5908C36.163 16.2122 35.1739 9.11209 44.9768 4.17664C43.5514 4.63843 42.1261 5.12909 40.6717 5.59089C34.2722 10.5841 35.1449 16.9338 35.9593 22.7351Z" fill="#1A1A1A"/>
<path id="Vector_79" fill-rule="evenodd" clip-rule="evenodd" d="M37.5293 8.88114C38.0529 8.70796 38.6056 8.53479 39.1583 8.39048L39.391 8.33275C40.6709 6.86078 42.4743 5.44652 44.9469 4.20544C43.5215 4.66724 42.0962 5.1579 40.6418 5.6197C39.3037 6.65874 38.2856 7.75551 37.5293 8.91V8.88114Z" fill="#1A1A1A"/>
<path id="Vector_80" fill-rule="evenodd" clip-rule="evenodd" d="M62.7197 20.0508C57.1637 20.3394 52.1314 22.1578 47.07 23.9761C41.6305 25.9387 36.1909 27.9302 30.0823 27.9014V28.1323L29.8496 28.9404C36.22 28.9981 41.8632 26.9778 47.4773 24.9285C52.4514 23.1391 57.3965 21.3208 62.7778 21.061C66.6757 20.859 71.2135 21.4651 75.635 22.3598C79.0092 23.0525 82.2962 23.8895 85.2342 24.6976V23.6009C82.3544 22.7927 79.1256 21.9846 75.8677 21.3208C71.3589 20.3972 66.7339 19.8199 62.7197 19.9931V20.0508Z" fill="#1A1A1A"/>
<path id="Vector_81" fill-rule="evenodd" clip-rule="evenodd" d="M29.8496 28.9693C30.2278 28.9693 30.6059 28.9693 30.9841 28.9693L29.9951 28.421L29.8496 28.9982V28.9693Z" fill="#1A1A1A"/>
<path id="Vector_82" fill-rule="evenodd" clip-rule="evenodd" d="M30.0826 28.1611L30.0244 28.4209L31.0134 28.9693H31.1589V27.9302C30.8098 27.9302 30.4607 27.9302 30.1117 27.9302V28.1611H30.0826Z" fill="#1A1A1A"/>
<path id="Vector_83" fill-rule="evenodd" clip-rule="evenodd" d="M90.5871 35.8962C89.6271 34.5108 88.4636 33.2986 87.0673 32.2307C85.7002 31.1628 84.1003 30.268 82.2386 29.5465C76.5664 26.9777 72.9012 27.1509 66.3272 27.4395H65.6582C63.4475 27.555 61.2949 27.7859 59.2587 28.1322C57.048 28.5074 54.9536 28.9981 53.0047 29.5465C50.0958 30.4123 47.5651 31.4514 45.6162 32.5482C43.4927 33.7604 41.9801 35.0592 41.3402 36.3003C41.1656 36.6177 41.0784 36.9352 41.0202 37.2527C40.962 37.5991 40.962 37.9165 41.0202 38.234C41.5438 40.8894 43.1146 43.8622 45.9943 46.3443C48.3214 48.3647 51.5212 50.0387 55.7099 50.9912C57.8915 51.4818 60.3641 50.4139 63.4765 49.0574C67.0835 47.4988 71.6504 45.5073 77.3227 45.4785C88.2309 45.4207 89.9471 47.2102 90.6743 47.9895C91.4597 48.7976 91.8088 49.1728 93.2341 48.4513C93.9322 48.1049 94.3977 47.6143 94.6595 46.9793C94.8922 46.4309 94.9794 45.8248 94.9503 45.161C94.8631 43.9776 94.3686 42.5634 93.6704 41.1203C92.7687 39.2731 91.547 37.3682 90.5289 35.925L90.5871 35.8962ZM92.4778 46.1423L92.4196 46.2289C91.4015 45.1898 88.8999 43.0829 77.439 43.1406C71.2723 43.1406 66.4145 45.2764 62.5748 46.9505C59.8987 48.1049 57.7752 49.0285 56.408 48.7111C52.6265 47.874 49.7758 46.3443 47.7106 44.5837C45.238 42.4479 43.9 39.9369 43.4636 37.6857C43.4636 37.6279 43.4636 37.5702 43.4636 37.5125C43.4636 37.4259 43.5218 37.3104 43.58 37.2239C43.9872 36.4157 45.1217 35.4921 46.8088 34.5397C48.5832 33.5295 50.9394 32.577 53.6737 31.7689C55.5063 31.2205 57.5134 30.7587 59.6078 30.4124C61.5567 30.0949 63.622 29.864 65.7164 29.7774H66.3854C72.5522 29.4888 76.0137 29.3156 81.1624 31.6534H81.2496C82.9077 32.3461 84.333 33.1254 85.5257 34.0779C86.7183 35.0015 87.7364 36.0694 88.5799 37.2816C89.569 38.6958 90.7325 40.4853 91.547 42.1882C92.1288 43.4004 92.536 44.5549 92.5942 45.4207C92.5942 45.7382 92.5942 45.998 92.5069 46.1712L92.4778 46.1423Z" fill="black"/>
<path id="Vector_84" fill-rule="evenodd" clip-rule="evenodd" d="M65.6873 28.5941C52.8301 29.1424 41.602 34.5974 42.2419 37.9455C43.1146 42.3902 47.216 47.8452 56.059 49.8367C60.1604 50.7603 66.8799 44.324 77.3809 44.2952C93.6995 44.2374 90.7034 48.4225 92.7396 47.4123C95.5321 46.0269 91.9833 40.0813 89.5399 36.5601C85.7293 31.1051 78.5444 28.0457 65.6582 28.5941H65.6873Z" fill="#1A1A1A"/>
<path id="Vector_85" fill-rule="evenodd" clip-rule="evenodd" d="M65.6873 28.5941C54.2555 29.0847 44.1617 33.4429 42.4746 36.7332C43.3764 41.178 47.5069 46.5464 56.2626 48.5091C60.3641 49.4326 67.0835 42.9964 77.5845 42.9675C93.9031 42.8809 90.907 47.0948 92.9432 46.0846C93.3214 45.8826 93.6123 45.594 93.7577 45.2476C93.5832 42.7943 91.2852 39.0422 89.5399 36.5601C85.7293 31.1051 78.5444 28.0457 65.6582 28.5941H65.6873Z" fill="#333333"/>
<path id="Vector_86" fill-rule="evenodd" clip-rule="evenodd" d="M65.6871 28.5941C58.8803 28.8827 56.9896 29.5754 53.3535 30.6433C54.1971 30.5856 56.2333 30.499 56.9605 30.9608C66.6761 36.993 64.4653 37.9743 77.0025 38.667C85.9036 39.1577 86.2236 35.521 81.7148 30.5856C76.1007 28.0457 72.4938 28.3055 65.6871 28.5941Z" fill="#4D4D4D"/>
<path id="Vector_87" fill-rule="evenodd" clip-rule="evenodd" d="M59.7815 44.6127L59.7233 44.6416H59.6652L59.607 44.6705L59.5488 44.6993L59.4906 44.7282H59.4325L59.3452 44.757L59.287 44.7859L59.2288 44.8148H59.1707L59.1125 44.8436L59.0543 44.8725H58.9961L58.938 44.9014L58.8507 44.9302H58.8216L58.7634 44.9591H58.7052L58.6471 44.9879L58.5598 45.0168H58.5307L58.4725 45.0457H58.4144L58.3562 45.0745H58.298L58.2398 45.1034H58.1817H58.1235L58.0653 45.1323H58.0071L57.978 45.1611H57.9199H57.8617L57.8035 45.19H57.7744L57.9199 46.229L57.9489 46.2002H58.0362H58.0944L58.1526 46.1713H58.2107L58.2689 46.1424H58.3271L58.3853 46.1136H58.4725L58.5307 46.0847H58.5889L58.6471 46.0558H58.7052L58.7634 46.027L58.8507 45.9981H58.9089L58.967 45.9693H59.0252L59.1125 45.9404L59.1707 45.9115H59.2288L59.287 45.8827L59.3452 45.8538L59.4325 45.8249H59.4906L59.5488 45.7961L59.607 45.7672L59.6943 45.7384H59.7524L59.8106 45.7095L59.8688 45.6806L59.9561 45.6518L60.0142 45.6229H60.0724L60.1597 45.5941L59.8106 44.6127H59.7815Z" fill="#1A1A1A"/>
<path id="Vector_88" fill-rule="evenodd" clip-rule="evenodd" d="M62.8653 43.3428L62.778 43.3716L62.6908 43.4005L62.6326 43.4294L62.5453 43.4871L62.4581 43.5159L62.3999 43.5448L62.3126 43.5737L62.2544 43.6025L62.1672 43.6314L62.0799 43.6603L62.0217 43.6891L61.9345 43.7468L61.8763 43.7757L61.789 43.8046L61.7308 43.8334L61.6436 43.8623L61.5854 43.8912L61.4981 43.92L61.44 43.9489L61.3527 43.9777L61.2945 44.0066L61.2073 44.0355L61.1491 44.0643L61.0618 44.0932L61.0036 44.1221L60.9455 44.1509L60.8582 44.1798L60.8291 44.2086L61.2073 45.1611H61.2654L61.3236 45.1322L61.4109 45.1034L61.4691 45.0745L61.5563 45.0168L61.6145 44.9879L61.7018 44.9591L61.7599 44.9302L61.8472 44.9013L61.9054 44.8725L61.9926 44.8436L62.0508 44.8147L62.1381 44.7859L62.1963 44.757L62.2835 44.7282L62.3708 44.6993L62.429 44.6416L62.5162 44.6127L62.5744 44.5839L62.6617 44.555L62.7199 44.5261L62.8071 44.4973L62.8944 44.4684L62.9526 44.4107L63.0398 44.3818L63.1271 44.353L63.1853 44.3241L63.2725 44.2952L62.8653 43.3428Z" fill="#1A1A1A"/>
<path id="Vector_89" fill-rule="evenodd" clip-rule="evenodd" d="M56.7279 45.2764H56.6988H56.6406H56.6115L56.5534 45.2476H56.5243H56.4661H56.437H56.3788H56.3497L56.3207 45.2187H56.2625H56.2334L56.1752 45.1899H56.1461L56.0298 45.161H55.9425L55.8552 45.1321L55.7389 45.1033L55.6516 45.0744L55.5353 45.0455L55.448 45.0167H55.3607L55.2444 44.9878L55.1571 44.959L55.0698 44.9301L54.9535 44.9012L54.8662 44.8724L54.808 44.8435L54.459 45.8537L54.5172 45.8826L54.6335 45.9114L54.7208 45.9403L54.808 45.9691L54.9244 45.998L55.0117 46.0269L55.128 46.0557L55.2153 46.0846H55.3316L55.4189 46.1134L55.5353 46.1423L55.6516 46.1712L55.7389 46.2L55.8552 46.2289H55.9134H55.9716L56.0007 46.2578H56.0589H56.117L56.1752 46.2866H56.2334H56.2916H56.3497L56.4079 46.3155H56.4661H56.5243H56.5824H56.6406H56.6988H56.7279L56.7861 45.2764H56.7279Z" fill="#1A1A1A"/>
<path id="Vector_90" fill-rule="evenodd" clip-rule="evenodd" d="M45.9062 39.7349L45.8772 39.6772L45.819 39.6194L45.7899 39.5617L45.7317 39.5329L45.7026 39.4751L45.6445 39.4174L45.6154 39.3597L45.5572 39.3308L45.5281 39.2731L45.4699 39.2154L45.4408 39.1576L45.3827 39.1288L45.3536 39.0711L45.2954 39.0133L45.2663 38.9845L45.2372 38.9267L45.179 38.869L45.1499 38.8113L45.0918 38.7536L45.0627 38.7247L45.0336 38.667L44.9754 38.6093L44.9463 38.5515L44.9172 38.4938L44.8591 38.4649L44.83 38.4072L44.8009 38.3495L44.7718 38.2918L44.7136 38.234L44.6845 38.2052L44.6554 38.1475L43.7246 38.7824L43.7537 38.8113L43.8119 38.869L43.841 38.9267L43.8701 38.9845L43.8991 39.0133L43.9573 39.0999L43.9864 39.1288L44.0446 39.1865L44.0737 39.2442L44.1318 39.302L44.1609 39.3597L44.2191 39.4174L44.2482 39.4751L44.3064 39.5329L44.3355 39.5906L44.3646 39.6194L44.4227 39.6772L44.4809 39.7349L44.51 39.7926L44.5682 39.8503L44.5973 39.9081L44.6554 39.9658L44.6845 40.0235L44.7427 40.0812L44.8009 40.1101L44.83 40.1678L44.8881 40.2255L44.9463 40.2833L44.9754 40.341L45.0336 40.3987L45.0918 40.4276V40.4564L45.9353 39.7349H45.9062Z" fill="#1A1A1A"/>
<path id="Vector_91" fill-rule="evenodd" clip-rule="evenodd" d="M65.8618 42.0728L65.7745 42.1017L65.6873 42.1305L65.6 42.1883L65.5127 42.2171L65.4255 42.246L65.3382 42.2748L65.2509 42.3326L65.1637 42.3614L65.0764 42.3903L64.9892 42.4192L64.9019 42.4769L64.8146 42.5057L64.7274 42.5346L64.6401 42.5635L64.5528 42.5923L64.4656 42.6501L64.3783 42.6789L64.3201 42.7078L64.2329 42.7366L64.1456 42.7944L64.0583 42.8232L63.9711 42.8521L63.8838 42.881L64.291 43.8623V43.8334L64.3783 43.8045L64.4656 43.7757L64.5528 43.7468L64.6401 43.718L64.7274 43.6602L64.7855 43.6314L64.8728 43.6025L64.9601 43.5736L65.0473 43.5159L65.1346 43.4871L65.2219 43.4582L65.3091 43.4293L65.3964 43.4005L65.4837 43.3427L65.5418 43.3139L65.6291 43.285L65.7164 43.2562L65.8036 43.2273L65.8909 43.1696L65.9782 43.1407L66.0654 43.1119L66.1527 43.083L66.24 43.0541L66.3272 42.9964L65.9491 42.0439L65.8618 42.0728Z" fill="#1A1A1A"/>
<path id="Vector_92" fill-rule="evenodd" clip-rule="evenodd" d="M48.1175 41.6687L48.0594 41.6398L48.0012 41.5821L47.943 41.5532L47.8848 41.4955L47.8267 41.4667L47.7685 41.4089L47.7103 41.3512L47.6521 41.3224L47.5939 41.2646L47.5358 41.2069L47.4776 41.178L47.4194 41.1203L47.3612 41.0915L47.3031 41.0337L47.2449 40.976L47.1867 40.9471L47.1285 40.8894L47.0704 40.8606L47.0122 40.8028L46.954 40.7451L46.9249 40.7162L46.8667 40.6585L46.8086 40.6008L46.7504 40.5719L46.6922 40.5142L46.6631 40.4565H46.634L45.8486 41.2069V41.2358L45.9068 41.2646L45.965 41.3224L46.0232 41.3801L46.0813 41.4378L46.1395 41.4955L46.1977 41.5244L46.2559 41.5821L46.3141 41.6398L46.3722 41.6976L46.4304 41.7264L46.4886 41.7841L46.5468 41.8419L46.6049 41.8996L46.6631 41.9285L46.7213 41.9862L46.7795 42.0439L46.8376 42.0728L46.9249 42.1305L46.9831 42.1882L47.0413 42.2171L47.0994 42.2748L47.1576 42.3325L47.2158 42.3903L47.274 42.4191L47.3612 42.4768L47.4194 42.5346L47.4776 42.5634L47.5358 42.5923L48.2339 41.7553L48.1757 41.7264L48.1175 41.6687Z" fill="#1A1A1A"/>
<path id="Vector_93" fill-rule="evenodd" clip-rule="evenodd" d="M53.6736 44.4972L53.5863 44.4683L53.499 44.4395L53.4118 44.4106L53.3245 44.3817L53.2372 44.3529L53.15 44.324L53.0627 44.2952L52.9754 44.2663L52.8882 44.2374L52.8009 44.2086L52.7136 44.1509L52.6264 44.122L52.5391 44.0931L52.4518 44.0643L52.3646 44.0354L52.2773 44.0065L52.19 43.9488L52.1319 43.92L52.0446 43.8911L51.9573 43.8622L51.8701 43.8334L51.8119 43.8045L51.3174 44.757L51.3756 44.7858L51.4628 44.8147L51.5501 44.8724L51.6374 44.9013L51.7246 44.9301L51.8119 44.959L51.8992 45.0167L51.9864 45.0456L52.0737 45.0744L52.161 45.1033L52.2482 45.1322L52.3355 45.161L52.4227 45.2188L52.51 45.2476L52.6264 45.2765L52.7136 45.3053L52.8009 45.3342L52.8882 45.3631L52.9754 45.4208L53.0918 45.4497L53.1791 45.4785L53.2663 45.5074L53.3536 45.5362H53.3827L53.7899 44.5549L53.7608 44.5261L53.6736 44.4972Z" fill="#1A1A1A"/>
<path id="Vector_94" fill-rule="evenodd" clip-rule="evenodd" d="M50.7646 43.3139L50.7064 43.285L50.6191 43.2273L50.561 43.1985L50.4737 43.1696L50.4155 43.1119L50.3283 43.083L50.2701 43.0253L50.1828 42.9964L50.1246 42.9676L50.0374 42.9098L49.9792 42.881L49.8919 42.8521L49.8338 42.7944L49.7465 42.7655L49.6883 42.7078L49.601 42.6789L49.5429 42.6212L49.4847 42.5923L49.3974 42.5635L49.3392 42.5058L49.2811 42.4769L49.1938 42.4192L49.1356 42.3903L49.0774 42.3326L48.4375 43.2273L48.4957 43.2562L48.5539 43.3139L48.6411 43.3428L48.6993 43.4005L48.7866 43.4293L48.8447 43.4871L48.932 43.5159L48.9902 43.5737L49.0774 43.6314L49.1647 43.6602L49.2229 43.6891L49.3102 43.7468L49.3683 43.7757L49.4556 43.8334L49.5138 43.8623L49.601 43.92L49.6883 43.9489L49.7465 44.0066L49.8338 44.0355L49.921 44.0932L49.9792 44.122L50.0665 44.1798L50.1537 44.2086L50.2119 44.2375L50.2992 44.2952H50.3283L50.8809 43.3716L50.8518 43.3428L50.7646 43.3139Z" fill="#1A1A1A"/>
<path id="Vector_95" fill-rule="evenodd" clip-rule="evenodd" d="M85.6133 40.1101H85.4969L85.3806 40.0812H85.2642H85.1479H85.0315L84.9152 40.0524H84.7988L84.6824 40.0235H84.5661H84.4497H84.3334H84.217H84.1007H83.9843H83.868C83.3153 39.9658 83.548 40.1967 83.4316 41.0337H83.548H83.6643H83.7807H83.8971H84.0134H84.1298H84.2461H84.3625H84.4788H84.5952H84.7115H84.8279L84.9442 41.0625H85.0606H85.177H85.2642L85.3806 41.0914H85.4969H85.5551L85.7878 40.0524H85.7296H85.6133V40.1101Z" fill="#1A1A1A"/>
<path id="Vector_96" fill-rule="evenodd" clip-rule="evenodd" d="M80.1732 40.7163H80.2896H80.435H80.5804H80.7259H80.8713H81.0168H81.1622H81.3077H81.4531H81.5985H81.744H81.8894H82.0349H82.1803H82.2676C82.4712 39.0711 80.2314 39.0134 80.0859 40.6297L80.1732 40.7163Z" fill="#1A1A1A"/>
<path id="Vector_97" fill-rule="evenodd" clip-rule="evenodd" d="M88.9577 40.8606L88.8996 40.8317L88.8123 40.8029H88.7541L88.6959 40.774L88.6087 40.7451L88.5505 40.7163H88.4632L88.4051 40.6874L88.3178 40.6585H88.2596L88.1723 40.6297L88.1142 40.6008L88.0269 40.572H87.9396L87.8815 40.5431L87.7942 40.5142H87.7069L87.6197 40.4854L87.5324 40.4565H87.4451L87.3579 40.4276L87.2706 40.3988H87.1833L87.0961 40.3699L87.0088 40.3411H86.9215L86.8924 40.3122L86.6016 41.3512H86.6307L86.747 41.3801H86.8343L86.8924 41.409L86.9797 41.4378H87.067L87.1542 41.4667L87.2415 41.4955H87.2997L87.387 41.5244L87.4742 41.5533H87.5324L87.6197 41.5821L87.6778 41.611H87.7651L87.8233 41.6399L87.9105 41.6687H87.9687L88.0269 41.6976L88.1142 41.7264H88.1723L88.2305 41.7553L88.3178 41.7842H88.376L88.4341 41.813L88.4923 41.8419H88.5505L88.6087 41.8708H88.6378L89.045 40.8894H89.0159L88.9577 40.8606Z" fill="#1A1A1A"/>
<path id="Vector_98" fill-rule="evenodd" clip-rule="evenodd" d="M69.0905 40.9472L68.9741 40.9761L68.8868 41.0049L68.7996 41.0338L68.6832 41.0626L68.596 41.0915L68.5087 41.1204L68.3923 41.1492L68.3051 41.1781L68.1887 41.207L68.1015 41.2647L68.0142 41.2935L67.8978 41.3224L67.8106 41.3513L67.7233 41.3801L67.607 41.409L67.5197 41.4379L67.4324 41.4956L67.3452 41.5244L67.2288 41.5533L67.1415 41.5822L67.0543 41.611L66.9961 41.6399L67.3452 42.6212L67.4033 42.5923L67.4906 42.5635L67.5779 42.5346L67.6651 42.5058L67.7815 42.4769L67.8687 42.448L67.956 42.3903L68.0433 42.3615L68.1305 42.3326L68.2469 42.3037L68.3342 42.2749L68.4214 42.246L68.5087 42.2171L68.6251 42.1883L68.7123 42.1594L68.7996 42.1306L68.8868 42.0728L69.0032 42.044L69.0905 42.0151L69.1777 41.9862L69.2941 41.9574L69.3814 41.9285H69.4395L69.1486 40.9183L69.0905 40.9472Z" fill="#1A1A1A"/>
<path id="Vector_99" fill-rule="evenodd" clip-rule="evenodd" d="M89.5693 42.246C90.3547 42.65 90.5293 42.8232 91.1401 43.3716L91.9546 42.6212C91.2565 41.9862 91.0238 41.7553 90.122 41.2935L89.5693 42.246Z" fill="#1A1A1A"/>
<path id="Vector_100" fill-rule="evenodd" clip-rule="evenodd" d="M78.8347 39.6484H78.6311H78.4565H78.282L78.1075 39.6195H77.9038H77.7293H77.5257H77.3512L77.2057 39.6484H77.0894H76.973H76.9148L76.8857 40.6874H76.9439H77.0603H77.1766H77.293H77.4966H77.6711H77.8457H78.0493H78.2238H78.3983H78.5729H78.7474H78.9219H79.0674L79.1546 39.6484H79.0092H78.8347Z" fill="#1A1A1A"/>
<path id="Vector_101" fill-rule="evenodd" clip-rule="evenodd" d="M72.3772 40.1101L72.2608 40.139L72.1445 40.1678L72.0281 40.1967H71.9117L71.8245 40.2256L71.7081 40.2544L71.5918 40.2833L71.5045 40.3121L71.3881 40.341H71.2718L71.1554 40.3699L71.0682 40.3987L70.9518 40.4276L70.8355 40.4565L70.7482 40.4853L70.6318 40.5142L70.5155 40.543L70.4282 40.5719L70.3119 40.6008H70.2246L70.4864 41.6109H70.5737L70.6609 41.5821L70.7773 41.5532L70.8646 41.5244L70.9809 41.4955L71.0682 41.4666L71.1845 41.4378L71.2718 41.4089H71.3881L71.4754 41.38L71.5918 41.3512L71.7081 41.3223L71.7954 41.2935H71.9117L71.999 41.2646L72.1154 41.2357L72.2317 41.2069H72.319L72.4353 41.178L72.5517 41.1491H72.6099L72.4353 40.1101H72.3772Z" fill="#1A1A1A"/>
<path id="Vector_102" fill-rule="evenodd" clip-rule="evenodd" d="M75.7517 39.6772L75.6063 39.7061H75.4899H75.3736L75.2572 39.735H75.1409H75.0245L74.9082 39.7638H74.7918L74.6464 39.7927H74.53H74.4137L74.2973 39.8216H74.181L74.0646 39.8504L73.9483 39.8793H73.8319L73.7155 39.9081H73.5992H73.541L73.6574 40.9472H73.7446H73.8319L73.9483 40.9183H74.0646L74.181 40.8895H74.2682L74.3846 40.8606H74.5009L74.6173 40.8317H74.7336L74.85 40.8029H74.9664H75.0827L75.1991 40.774H75.2863H75.4027L75.519 40.7452H75.6354H75.7517H75.8099L75.7808 39.6772H75.7517Z" fill="#1A1A1A"/>
<path id="Vector_103" fill-rule="evenodd" clip-rule="evenodd" d="M40.7582 16.5007C39.2747 16.5007 38.082 18.117 38.082 20.1085C38.082 22.1 39.2747 23.7163 40.7582 23.7163C42.2417 23.7163 43.4343 22.1 43.4343 20.1085C43.4343 18.117 42.2417 16.5007 40.7582 16.5007Z" fill="#1A1A1A"/>
<path id="Vector_104" fill-rule="evenodd" clip-rule="evenodd" d="M40.526 16.674C39.7988 16.674 39.1589 17.0492 38.6935 17.6842C38.2862 18.2326 38.0244 19.0119 38.0244 19.8489C38.0244 20.6859 38.2862 21.4363 38.6935 22.0135C39.1589 22.6196 39.7988 23.0237 40.526 23.0237C41.2532 23.0237 41.8932 22.6485 42.3586 22.0135C42.7658 21.4652 43.0276 20.6859 43.0276 19.8489C43.0276 19.0119 42.7658 18.2614 42.3586 17.6842C41.8932 17.0781 41.2532 16.674 40.526 16.674ZM41.3987 21.3497C41.166 21.6672 40.846 21.8692 40.526 21.8692C40.2061 21.8692 39.8861 21.6672 39.6534 21.3497C39.3625 20.9745 39.188 20.4261 39.188 19.82C39.188 19.2139 39.3625 18.6655 39.6534 18.2903C39.8861 17.9728 40.2061 17.7708 40.526 17.7708C40.846 17.7708 41.166 17.9728 41.3987 18.2903C41.6896 18.6655 41.8641 19.2139 41.8641 19.82C41.8641 20.4261 41.6896 20.9745 41.3987 21.3497Z" fill="black"/>
<path id="Vector_105" fill-rule="evenodd" clip-rule="evenodd" d="M40.5253 17.2223C39.4781 17.2223 38.6055 18.4056 38.6055 19.8199C38.6055 21.2342 39.449 22.4175 40.5253 22.4175C41.6016 22.4175 42.4452 21.2342 42.4452 19.8199C42.4452 18.4056 41.6016 17.2223 40.5253 17.2223Z" fill="#4D4D4D"/>
<path id="Vector_106" fill-rule="evenodd" clip-rule="evenodd" d="M41.8638 18.5788C41.8638 20.0219 41.0202 21.1764 39.944 21.1764C39.4495 21.1764 38.984 20.9167 38.6641 20.4837C38.8677 21.6093 39.624 22.4175 40.4966 22.4175C41.5438 22.4175 42.4165 21.263 42.4165 19.8199C42.4165 19.0695 42.1838 18.3768 41.8056 17.8861C41.8638 18.117 41.8638 18.319 41.8638 18.5499V18.5788Z" fill="#333333"/>
<path id="Vector_107" fill-rule="evenodd" clip-rule="evenodd" d="M40.0596 18.1747C39.3906 18.1747 38.8379 18.9252 38.8379 19.8199C38.8379 20.7146 39.3906 21.465 40.0596 21.465C40.7286 21.465 41.2813 20.7146 41.2813 19.8199C41.2813 18.9252 40.7286 18.1747 40.0596 18.1747Z" fill="black"/>
<path id="Vector_108" d="M32.4968 24.3225C33.7981 24.3225 34.853 22.9011 34.853 21.1477C34.853 19.3943 33.7981 17.9728 32.4968 17.9728C31.1955 17.9728 30.1406 19.3943 30.1406 21.1477C30.1406 22.9011 31.1955 24.3225 32.4968 24.3225Z" fill="#1A1A1A"/>
<path id="Vector_109" fill-rule="evenodd" clip-rule="evenodd" d="M32.2939 18.1459C31.654 18.1459 31.1013 18.4923 30.6941 19.0118C30.345 19.5025 30.1123 20.1663 30.1123 20.9167C30.1123 21.6671 30.345 22.331 30.6941 22.8216C31.1013 23.37 31.654 23.6875 32.2939 23.6875C32.9339 23.6875 33.4866 23.3412 33.8938 22.8216C34.2429 22.331 34.4756 21.6671 34.4756 20.9167C34.4756 20.1663 34.2429 19.5025 33.8938 19.0118C33.4866 18.4634 32.9339 18.1459 32.2939 18.1459ZM33.0793 22.2732C32.8757 22.5619 32.5848 22.735 32.2939 22.735C32.0031 22.735 31.7413 22.5619 31.5086 22.2732C31.2758 21.9269 31.1013 21.4651 31.1013 20.9167C31.1013 20.3683 31.2468 19.9065 31.5086 19.5602C31.7122 19.2716 32.0031 19.0984 32.2939 19.0984C32.5848 19.0984 32.8466 19.2716 33.0793 19.5602C33.312 19.9065 33.4866 20.3683 33.4866 20.9167C33.4866 21.4651 33.3411 21.9269 33.0793 22.2732Z" fill="black"/>
<path id="Vector_110" fill-rule="evenodd" clip-rule="evenodd" d="M32.2936 18.6367C31.3627 18.6367 30.6064 19.6757 30.6064 20.9168C30.6064 22.1579 31.3627 23.1969 32.2936 23.1969C33.2244 23.1969 33.9807 22.1579 33.9807 20.9168C33.9807 19.6757 33.2244 18.6367 32.2936 18.6367Z" fill="#4D4D4D"/>
<path id="Vector_111" fill-rule="evenodd" clip-rule="evenodd" d="M33.4866 19.8199C33.4866 21.0899 32.7303 22.1 31.7995 22.1C31.3632 22.1 30.9559 21.8691 30.665 21.4939C30.8687 22.4752 31.5086 23.1968 32.294 23.1968C33.2248 23.1968 33.9811 22.1578 33.9811 20.9167C33.9811 20.2528 33.7775 19.6467 33.4284 19.2138C33.4575 19.4158 33.4866 19.589 33.4866 19.8199Z" fill="#333333"/>
<path id="Vector_112" fill-rule="evenodd" clip-rule="evenodd" d="M31.9151 19.4736C31.3334 19.4736 30.8389 20.1374 30.8389 20.9167C30.8389 21.696 31.3043 22.3598 31.9151 22.3598C32.526 22.3598 32.9914 21.696 32.9914 20.9167C32.9914 20.1374 32.526 19.4736 31.9151 19.4736Z" fill="black"/>
<path id="Vector_113" fill-rule="evenodd" clip-rule="evenodd" d="M71.1844 15.4906L69.41 10.7571L67.5192 15.5483L62.4287 15.7792L66.4429 19.0406L65.1049 23.9184L69.4681 21.1187L73.7151 23.9184L72.4061 18.9252L76.3621 15.7792L71.1844 15.4906Z" fill="white"/>
<path id="Vector_114" opacity="0.2" fill-rule="evenodd" clip-rule="evenodd" d="M28.1633 28.9693L40.2641 27.7282C38.4315 17.7707 40.9913 5.53307 52.5104 2.35822C39.915 3.05091 27.6979 8.96768 28.1633 28.9693Z" fill="black"/>
<path id="Vector_115" fill-rule="evenodd" clip-rule="evenodd" d="M32.701 6.71648C28.9776 10.4109 26.9996 16.5585 27.2323 26.9201V28.2189L39.1004 26.6026L39.0423 25.5347C38.8386 21.061 39.0132 16.4719 40.4094 12.5467C41.7475 8.7657 44.3073 5.56198 48.8742 3.7148L55.3027 1.11719L48.3506 1.4924C41.8057 1.83875 36.4243 2.96438 32.6719 6.68761L32.701 6.71648ZM38.1987 11.7962C36.8024 15.7215 36.5406 20.1952 36.657 24.5822L29.5303 25.5636C29.5012 16.7028 31.2174 11.4499 34.359 8.36163C36.5988 6.13923 39.624 4.98474 43.2892 4.37863C40.8457 6.39899 39.2459 8.96774 38.2278 11.8251L38.1987 11.7962Z" fill="black"/>
<path id="Vector_116" fill-rule="evenodd" clip-rule="evenodd" d="M28.3658 26.8912L37.8487 25.5924C37.4705 16.3853 38.5468 6.65871 48.4078 2.64685C35.8416 3.33955 27.9295 6.86075 28.3658 26.8623V26.8912Z" fill="#3A4B74"/>
<path id="Vector_117" fill-rule="evenodd" clip-rule="evenodd" d="M28.3662 24.6111L35.6674 23.6298C35.3475 16.1545 35.9874 8.36163 41.5433 3.54163C33.4567 5.33109 28.5407 10.3531 28.3662 24.64V24.6111Z" fill="#506AA3"/>
<path id="Vector_118" fill-rule="evenodd" clip-rule="evenodd" d="M35.1444 23.8607C34.4754 23.8607 33.8936 24.1493 33.4282 24.5822C32.9628 25.044 32.6719 25.679 32.6719 26.4005V40.5142C32.6719 41.2358 32.9628 41.8707 33.4282 42.3325C33.8645 42.7655 34.4754 43.0541 35.1444 43.0541C35.8134 43.0541 36.3952 42.7943 36.8606 42.3325C37.326 41.8707 37.6169 41.2358 37.6169 40.5142V26.4005C37.6169 25.679 37.326 25.044 36.8606 24.5822C36.4243 24.1493 35.8134 23.8607 35.1444 23.8607ZM35.2608 40.5142C35.2608 40.5142 35.2026 40.5431 35.1444 40.5431C35.0862 40.5431 35.0571 40.5431 35.028 40.5142V26.4005C35.028 26.4005 35.1153 26.3717 35.1444 26.3717C35.1735 26.3717 35.2317 26.3717 35.2608 26.4005V40.5142Z" fill="black"/>
<path id="Vector_119" fill-rule="evenodd" clip-rule="evenodd" d="M35.1439 25.1018C34.4167 25.1018 33.835 25.6791 33.835 26.4006V40.5143C33.835 41.2358 34.4167 41.8131 35.1439 41.8131C35.8712 41.8131 36.4529 41.2358 36.4529 40.5143V26.4006C36.4529 25.6791 35.8712 25.1018 35.1439 25.1018Z" fill="#E6E6E6"/>
<path id="Vector_120" fill-rule="evenodd" clip-rule="evenodd" d="M35.6677 25.2173C35.5223 25.1595 35.3478 25.1018 35.1732 25.1018C34.446 25.1018 33.8643 25.7079 33.8643 26.4872V40.3988C33.8643 41.1492 34.446 41.7842 35.1732 41.7842C35.3478 41.7842 35.5223 41.7554 35.6677 41.6688C35.2023 41.4667 34.8533 40.9761 34.8533 40.3988V26.4872C34.8533 25.91 35.1732 25.4193 35.6677 25.2173Z" fill="white"/>
<path id="Vector_121" fill-rule="evenodd" clip-rule="evenodd" d="M29.995 24.5245C29.3259 24.5245 28.7151 24.8131 28.2788 25.246C27.8133 25.7078 27.5225 26.3139 27.5225 27.0066V40.4853C27.5225 41.178 27.8133 41.813 28.2788 42.2459C28.7151 42.6789 29.3259 42.9675 29.995 42.9675C30.664 42.9675 31.2749 42.6789 31.7403 42.2459C32.2057 41.7841 32.4675 41.178 32.4675 40.4853V27.0066C32.4675 26.3139 32.1766 25.679 31.7403 25.246C31.304 24.8131 30.664 24.5245 29.995 24.5245ZM30.1113 40.5142V40.5719C30.1113 40.5719 30.0241 40.6008 29.995 40.6008C29.9659 40.6008 29.9077 40.6008 29.8786 40.5719V40.5142V27.0355V26.9778C29.8786 26.9778 29.9659 26.9489 29.995 26.9489C30.0241 26.9489 30.0823 26.9489 30.0823 26.9778V27.0355V40.5142H30.1113Z" fill="black"/>
<path id="Vector_122" fill-rule="evenodd" clip-rule="evenodd" d="M29.9955 25.7368C29.2683 25.7368 28.6865 26.314 28.6865 27.0356V40.5143C28.6865 41.2358 29.2683 41.8131 29.9955 41.8131C30.7227 41.8131 31.3045 41.2358 31.3045 40.5143V27.0356C31.3045 26.314 30.7227 25.7368 29.9955 25.7368Z" fill="#E6E6E6"/>
<path id="Vector_123" fill-rule="evenodd" clip-rule="evenodd" d="M30.49 25.8234C30.3446 25.7657 30.17 25.7079 29.9955 25.7079C29.2683 25.7079 28.6865 26.3141 28.6865 27.0356V40.4566C28.6865 41.1781 29.2683 41.7843 29.9955 41.7843C30.17 41.7843 30.3446 41.7554 30.49 41.6688C30.0246 41.4668 29.6755 41.005 29.6755 40.4566V27.0356C29.6755 26.4872 29.9955 25.9966 30.49 25.8234Z" fill="white"/>
<path id="Vector_124" fill-rule="evenodd" clip-rule="evenodd" d="M41.2817 43.0541C41.2235 42.7944 41.1653 42.5346 41.0781 42.3037C40.6999 41.2358 39.9145 40.3411 38.8964 39.8216V39.7061C36.5693 39.1 36.0458 39.302 33.0787 39.302C32.2642 39.302 30.9553 39.5329 29.6754 39.9947C28.6573 40.3699 27.6392 40.8606 26.8538 41.4956C26.4174 41.7842 26.0393 42.1883 25.7484 42.6501C25.4575 43.1119 25.283 43.6602 25.2539 44.2375V57.0524L25.283 57.543C25.3412 58.9861 26.3593 60.054 27.7264 60.7756C29.4427 61.6992 31.8279 62.161 33.0496 62.161C35.784 62.161 37.9947 61.5549 39.1291 61.5549C40.4963 60.5447 40.2054 60.5447 41.0199 59.3325C42.4743 55.0609 41.3399 47.8164 41.3399 43.8046C41.3399 43.5448 41.3399 43.285 41.2817 43.0541ZM33.0787 59.852C32.1188 59.852 30.2571 59.5057 28.89 58.7552C28.1918 58.38 27.6683 57.9182 27.6683 57.4276C27.6683 53.2714 27.3483 48.3359 27.6683 44.2952C27.6683 44.122 27.7555 43.9777 27.8137 43.8334C27.901 43.6602 28.0464 43.5448 28.2209 43.4293L28.3664 43.3428C28.9482 42.881 29.7335 42.4769 30.548 42.1883C31.537 41.8419 32.5551 41.6399 33.1369 41.6399H35.7258C37.0929 41.6399 38.4019 41.5533 38.9546 43.083C38.9837 43.1985 39.0419 43.3139 39.0419 43.4293C39.0419 43.5448 39.071 43.6602 39.071 43.8046C39.071 57.7162 42.5907 59.852 33.1369 59.852H33.0787Z" fill="black"/>
<path id="Vector_125" fill-rule="evenodd" clip-rule="evenodd" d="M39.9442 42.679V42.5924V42.5058V42.4481V42.3904V42.3326V42.2749V42.2172H39.9151V42.1595H39.886V42.1017L39.8569 42.044L39.8278 41.9863L39.7987 41.9286V41.8708V41.8131V41.7554H39.7696V41.6977H39.7115H39.6824V41.6399L39.6533 41.5822L39.6242 41.5245L39.5951 41.4668L39.566 41.409V41.3802H39.5369V41.3513H39.4788V41.2936H39.4497V41.2359L39.4206 41.1781L39.3624 41.1204L39.3042 41.0916L39.2751 41.0627V41.0338H39.2461V41.005H39.1879V40.9761H39.1297V40.9472H39.1006L39.0715 40.9184L39.0133 40.8895L38.9552 40.8607H38.897H38.8679H38.8388H38.7806H38.7225H38.6643H38.6352H38.6061H38.5479H38.4897H38.4316H38.3734H38.3443H38.2861H38.228H38.1698H38.1407H38.1116H38.0243H37.9662H37.908H37.8789H37.8498H37.7916H37.7334H34.0101C32.7302 40.8607 30.025 41.5822 28.4833 42.8522C27.8433 43.2562 27.407 43.9201 27.3779 44.6993V44.7571V44.8148V57.4565C27.3779 57.5719 27.3779 57.7162 27.407 57.8317C27.407 60.285 32.1484 61.4106 34.0101 61.4106H37.8207H37.908H37.9952H38.0825H38.1407H38.1989H38.257H38.3152H38.3734H38.4316H38.4607H38.5188H38.5479H38.577H38.6061H38.6352H38.6643H38.6934H38.7225H38.7515H38.8097L38.8679 61.3818L38.9261 61.3529L38.9843 61.324L39.0424 61.2952L39.1006 61.2663L39.1588 61.2374L39.217 61.2086L39.2751 61.1797L39.3333 61.122L39.3915 61.0643L39.4497 61.0065L39.5078 60.9488L39.566 60.8911L39.6242 60.8334L39.6824 60.7756L39.7115 60.7179L39.7406 60.6602L39.7696 60.6025L39.7987 60.5448L39.8278 60.487V60.4293V60.3716V60.3139V60.2561L39.8569 60.1695V60.1118H39.886V60.0541H39.9151V59.9964H39.9442V59.9386H39.9733V59.8809H40.0024V59.8232H40.0314V59.7655H40.0605V59.7077H40.0896V59.6212L40.1478 59.5346V59.448V59.3614V59.2748V59.1882V59.1016V59.015V58.9285V58.8419V58.7553V58.6398V58.5821V58.5532V58.2935V44.4396C40.1478 44.0355 40.0896 43.6603 39.9442 43.314V42.679Z" fill="black"/>
<path id="Vector_126" fill-rule="evenodd" clip-rule="evenodd" d="M36.8018 40.4565H33.0785C31.2168 40.4565 26.4463 41.9285 26.4463 44.4106V57.4275C26.4754 59.8808 31.2168 61.0064 33.0785 61.0064H36.8018C38.6635 61.0064 40.1761 59.5056 40.1761 57.6584V43.8045C40.1761 41.9573 38.6635 40.4565 36.8018 40.4565Z" fill="#3A4B74"/>
<path id="Vector_127" fill-rule="evenodd" clip-rule="evenodd" d="M36.8024 40.4565H35.6679L31.1592 42.6212L32.4973 44.8724L40.0021 42.6789C39.5367 41.3801 38.2859 40.4565 36.8314 40.4565H36.8024Z" fill="#7688A1"/>
<path id="Vector_128" fill-rule="evenodd" clip-rule="evenodd" d="M26.4756 56.2441V57.4275C26.4756 59.8808 31.217 61.0064 33.0787 61.0064H36.802C38.5764 61.0064 40.0599 59.621 40.1763 57.8893L32.9914 56.4173L26.4756 56.2441Z" fill="#303D60"/>
<path id="Vector_129" d="M31.3913 42.1016H28.8025C27.5012 42.1016 26.4463 43.1483 26.4463 44.4395V57.0523C26.4463 58.3435 27.5012 59.3901 28.8025 59.3901H31.3913C32.6926 59.3901 33.7475 58.3435 33.7475 57.0523V44.4395C33.7475 43.1483 32.6926 42.1016 31.3913 42.1016Z" fill="#506AA3"/>
<path id="Vector_130" d="M30.4605 44.0355H28.8024C27.951 44.0355 27.2607 44.7203 27.2607 45.5652V55.9267C27.2607 56.7716 27.951 57.4564 28.8024 57.4564H30.4605C31.3119 57.4564 32.0022 56.7716 32.0022 55.9267V45.5652C32.0022 44.7203 31.3119 44.0355 30.4605 44.0355Z" fill="#303D60"/>
<path id="Vector_131" fill-rule="evenodd" clip-rule="evenodd" d="M30.5192 44.0355H30.4611C29.6466 44.0355 28.9775 44.7282 28.9775 45.5652V55.9556C28.9775 56.7637 29.6466 57.4564 30.4611 57.4853H30.5192C31.3337 57.4853 32.0027 56.7926 32.0027 55.9556V45.5652C32.0027 44.757 31.3337 44.0643 30.5192 44.0355Z" fill="black"/>
</g>
</g>
</svg>
