<svg width="119" height="60" viewBox="0 0 119 60" fill="none" xmlns="http://www.w3.org/2000/svg">
<g id="Choose Character">
<path id="Vector" d="M0.484502 35.8234C-0.161501 36.4742 -0.161501 37.531 0.484502 38.1818L8.75333 46.5119C9.39934 47.1627 10.4484 47.1627 11.0944 46.5119C11.7404 45.8611 11.7404 44.8042 11.0944 44.1535L6.99359 37L11.0893 29.8465C11.7353 29.1958 11.7353 28.1389 11.0893 27.4881C10.4433 26.8373 9.39417 26.8373 8.74817 27.4881L0.479334 35.8182L0.484502 35.8234Z" fill="white"/>
<path id="Vector_2" d="M118.095 35.8234C118.741 36.4742 118.741 37.531 118.095 38.1818L109.826 46.5119C109.18 47.1627 108.131 47.1627 107.485 46.5119C106.839 45.8611 106.839 44.8042 107.485 44.1535L111.586 37L107.49 29.8465C106.844 29.1958 106.844 28.1389 107.49 27.4881C108.136 26.8373 109.185 26.8373 109.831 27.4881L118.1 35.8182L118.095 35.8234Z" fill="white"/>
<g id="Baldy">
<path id="Vector_3" fill-rule="evenodd" clip-rule="evenodd" d="M80.1454 34.2605C77.3609 34.2605 74.8459 35.3809 73.0494 37.1499C71.223 38.9485 70.1152 41.4251 70.1152 44.1376C70.1152 46.8502 71.253 49.3563 73.0494 51.1254C74.8459 52.8944 77.3909 54.0148 80.1454 54.0148C82.9 54.0148 85.445 52.8944 87.2414 51.1254C89.0678 49.3268 90.1756 46.8502 90.1756 44.1376C90.1756 41.4251 89.0379 38.9485 87.2115 37.1499C85.3851 35.3514 82.8701 34.2605 80.1155 34.2605H80.1454ZM85.2354 49.1794C83.918 50.4767 82.1215 51.2728 80.1454 51.2728C78.1693 51.2728 76.3429 50.4767 75.0555 49.1794C73.7381 47.8821 72.9297 46.1131 72.9297 44.1671C72.9297 42.2212 73.7381 40.4227 75.0555 39.1548C76.3729 37.8575 78.1693 37.0615 80.1454 37.0615C82.1215 37.0615 83.9479 37.8576 85.2653 39.1254C86.5528 40.4227 87.3612 42.1917 87.3612 44.1376C87.3612 46.0836 86.5528 47.8821 85.2354 49.1499V49.1794Z" fill="black"/>
<path id="Vector_4" fill-rule="evenodd" clip-rule="evenodd" d="M80.1454 35.6758C75.3848 35.6758 71.5225 39.4792 71.5225 44.1672C71.5225 48.8551 75.3848 52.6586 80.1454 52.6586C84.906 52.6586 88.7684 48.8551 88.7684 44.1672C88.7684 39.4792 84.906 35.6758 80.1454 35.6758Z" fill="#FFE7AD"/>
<path id="Vector_5" fill-rule="evenodd" clip-rule="evenodd" d="M77.1213 36.7371C72.9595 36.7371 69.5762 40.0688 69.5762 44.167C69.5762 48.2653 72.9595 51.597 77.1213 51.597C81.2831 51.597 84.6664 48.2653 84.6664 44.167C84.6664 40.0688 81.2831 36.7371 77.1213 36.7371Z" fill="#FFD26B"/>
<path id="Vector_6" fill-rule="evenodd" clip-rule="evenodd" d="M69.9953 1.41523C66.3425 0.471744 62.3903 0 58.4381 0C54.4859 0 50.5637 0.471744 46.9109 1.41523C37.3298 3.89189 29.8745 9.67076 29.8745 18.8403V48.2359C29.8745 50.7125 30.8925 52.9238 32.5393 54.5454C34.2159 56.1966 36.5513 57.258 39.0963 57.3759C43.8868 57.6413 49.396 58.2015 54.6656 58.7322C61.6119 59.4398 68.139 60.0884 72.0013 59.9705C75.4745 59.8821 79.756 58.6732 82.84 56.344C85.4149 54.398 87.2413 51.6855 87.2413 48.2064V18.8108C87.2413 9.72973 79.6363 3.92138 69.9654 1.41523H69.9953ZM84.6065 48.2064C84.6065 50.7715 83.2292 52.8059 81.2531 54.2801C78.6183 56.2555 74.9356 57.2875 71.9415 57.3759C68.2587 57.4644 61.8514 56.8157 54.965 56.1376C49.6654 55.6069 44.1264 55.0467 39.276 54.7813C37.3897 54.6634 35.683 53.8968 34.4555 52.688C33.2878 51.5381 32.5692 49.9754 32.5692 48.2064V18.8108C32.5692 11.086 39.1562 6.10319 47.5995 3.92138C51.0128 3.03685 54.7255 2.59459 58.4381 2.59459C62.1508 2.59459 65.8635 3.03685 69.3067 3.92138C77.8997 6.13268 84.6065 11.145 84.6065 18.7813V48.1769V48.2064Z" fill="black"/>
<path id="Vector_7" fill-rule="evenodd" clip-rule="evenodd" d="M31.2217 18.8107V48.2063C31.2217 52.5404 34.8146 55.8132 39.2159 56.0785C50.324 56.6977 65.3543 58.8795 72.0012 58.6731C77.8097 58.5257 85.9536 55.0466 85.9536 48.2063V18.8107C85.9237 -4.30477 31.2217 -4.74703 31.2217 18.8107Z" fill="#FFE7AD"/>
<path id="Vector_8" fill-rule="evenodd" clip-rule="evenodd" d="M55.5039 53.9852C48.4378 53.8967 42.6892 49.3562 40.6832 44.3734L35.8327 43.5479L31.1919 48.1179V48.2358C31.1919 52.57 34.7848 55.8427 39.1861 56.108C50.2942 56.7272 65.3245 58.909 71.9714 58.7026C76.1332 58.5847 81.4926 56.7567 84.2172 53.2186C78.6482 53.3365 76.8218 49.9459 71.7618 49.4447C65.6539 49.3562 62.54 54.0736 55.5039 54.0147V53.9852Z" fill="#DDBF92"/>
<path id="Vector_9" fill-rule="evenodd" clip-rule="evenodd" d="M43.8271 50.8896C39.4557 50.6537 35.8329 47.3515 35.8329 43.0173V13.6512C35.8329 11.2335 36.4317 9.05172 37.4497 7.13525C36.6712 7.69545 35.9527 8.3441 35.294 8.99275L35.1442 9.14017L34.9945 9.28759L34.5754 9.72985L34.276 10.0837L33.9766 10.4669L33.6173 10.9387L33.4376 11.2335C33.3179 11.4104 33.1981 11.6168 33.0783 11.8232L32.9286 12.0591C32.8089 12.2655 32.6891 12.5013 32.5693 12.7077L32.4795 12.8552C32.3597 13.1205 32.24 13.3859 32.1202 13.6512L32.0603 13.7692C31.9406 14.0345 31.8508 14.3294 31.7609 14.5947V14.6537C31.6711 14.978 31.5813 15.2728 31.5214 15.5677V15.6856C31.4316 15.9805 31.3717 16.3048 31.3118 16.6291V16.6881C31.2519 17.0124 31.222 17.3367 31.1921 17.6611V17.72C31.1921 18.0738 31.1621 18.4276 31.1621 18.7814V48.177C31.1621 52.5112 34.755 55.7839 39.1563 56.0493C50.2644 56.6684 65.2947 58.8502 71.9416 58.6439H72.1811H72.2111H72.4207H72.5105H72.6602H72.7799H72.8997H73.0494H73.1392H73.3488H73.3788L73.6183 58.6144H73.8578L73.8878 58.5849H74.0973L74.1872 58.5554H74.3369L74.4566 58.4964H74.5764L74.756 58.4375H74.8459L75.0555 58.3785H75.0854L75.3249 58.3195L75.5644 58.2606H75.6243L75.8339 58.2016H75.9237L76.1034 58.1426H76.2232L76.3429 58.0837L76.5226 58.0247H76.6124L76.822 57.9362H76.8519L77.0914 57.8478L77.331 57.7593H77.3908L77.6004 57.6709H77.6903L77.84 57.5824L77.9597 57.5235L78.0795 57.4645L78.2591 57.4055H78.319L78.5286 57.2876H78.5585L78.7981 57.1697L79.0376 57.0517H79.0975L79.3071 56.9338H79.3969L79.6664 56.7569L79.7861 56.6979L79.9358 56.6095H79.9957L80.2352 56.4326L80.4748 56.3146L80.6843 56.1672H80.7143L80.8939 56.0198L80.9837 55.9608L81.1335 55.8724L81.2532 55.7839L81.343 55.7249L81.4927 55.607H81.5526L81.7323 55.4301L81.9419 55.2532L82.1215 55.1058H82.1515L82.3012 54.9289L82.4808 54.7814H82.5107L82.6904 54.6045L82.8401 54.4866L82.9 54.4276L83.0497 54.2802L83.2293 54.0738L83.379 53.8969H83.409L83.5287 53.72L83.5886 53.6611L83.6784 53.5431L83.7683 53.4252L83.8281 53.3367L83.9479 53.1893V53.1303L84.1275 52.9534L84.2772 52.7176L84.397 52.5112V52.4522L84.5168 52.2753L84.5767 52.1869L84.6365 52.0689L84.6964 51.951L84.7563 51.8625V51.8036L84.8761 51.6267L84.9659 51.4203L85.0557 51.1549L85.1455 50.919C82.4209 52.5407 79.0975 53.3957 76.283 53.4547C69.6362 53.6316 54.6058 51.4792 43.4978 50.8601L43.8271 50.8896Z" fill="#FFD26B"/>
<path id="Vector_10" fill-rule="evenodd" clip-rule="evenodd" d="M76.6124 53.5134C73.3489 53.6018 68.0493 53.1301 62.2108 52.5404C60.2946 53.366 58.1988 54.0146 55.534 53.9851C52.0309 53.9557 48.8273 52.8058 46.2823 51.0367C45.4439 50.9778 44.6355 50.9188 43.8571 50.8893C39.6653 50.6534 36.1623 47.6166 35.8928 43.5183L31.252 48.0883V48.2063C31.252 52.5404 34.8449 55.8132 39.2462 56.0785C50.3542 56.6977 65.3846 58.8795 72.0314 58.6731H72.241H72.271H72.3009H72.4207H72.5105H72.6003H72.6303H72.75H72.8399H72.8698H72.9896H73.0494H73.1692H73.259H73.4686H73.4986H73.6782H73.7381H73.8578L73.9776 58.6436H74.0075H74.0674H74.2171L74.277 58.6141H74.307L74.4567 58.5847H74.5764H74.6662H74.8459V58.5552H74.9058L75.0555 58.5257H75.1154H75.1453H75.2351L75.3848 58.4667H75.4447H75.6244L75.6842 58.4077H75.8639V58.3488H75.9537L76.0435 58.2898H76.1034L76.2232 58.2308L76.313 58.2014H76.4328L76.4926 58.1424H76.5825L76.792 58.0539H76.822L77.0316 57.995L77.2112 57.936H77.2711L77.331 57.9065H77.4508L77.5406 57.8476H77.6304V57.8181L77.7502 57.7591H77.81L77.8699 57.7001L77.9897 57.6412H78.0196L78.1693 57.5822H78.2292L78.4388 57.4937H78.4687L78.6184 57.4348H78.7083V57.4053L78.9478 57.2874H79.0077L79.0376 57.2579L79.1873 57.1694H79.2173L79.2771 57.1399L79.5466 56.9925H79.6065L79.6364 56.9335L79.7861 56.8451L79.846 56.8156L80.2951 56.5503H80.3251L80.5047 56.4323H80.5347L80.6844 56.3439L80.7742 56.2849L80.8341 56.2259H80.894L81.0137 56.108L81.1035 56.049L81.1934 55.9901L81.2532 55.9311H81.3131L81.373 55.8426L81.5227 55.7542L81.7024 55.6362L81.8521 55.5183H81.9119L81.9419 55.4299L82.0018 55.3709L82.0916 55.3119L82.2712 55.1645L82.3012 55.135L82.5706 54.8697L82.6006 54.8402L82.7503 54.6928V54.6633L82.8701 54.5453L82.9299 54.4864L82.9898 54.3979L83.0796 54.28H83.1096V54.221L83.2293 54.0736L83.2593 54.0146L83.3491 53.8967L83.4389 53.7788V53.7198L83.4988 53.6903L83.5886 53.5724C82.3611 53.5724 81.2832 53.4544 80.355 53.1891C78.858 53.6019 77.3609 53.8082 75.9837 53.8672L76.6124 53.5134Z" fill="#D6B17A"/>
<path id="Vector_11" fill-rule="evenodd" clip-rule="evenodd" d="M31.2217 18.8108V21.0516L34.2158 21.3464V23.882L31.2217 23.5872V25.9459L34.1559 26.2408V28.7764L31.2217 28.4816V45.3464L34.1858 43.1941L40.683 44.3145L39.2159 31.6069L42.8088 29.6609L44.4256 28.6585L44.0364 27.2432L43.4376 24.8255L42.7789 22.2015L41.1321 15.5676L71.4622 21.3759L85.8039 16.7764C82.72 -4.30468 31.2217 -4.03933 31.2217 18.8108Z" fill="#DDBF92"/>
<path id="Vector_12" fill-rule="evenodd" clip-rule="evenodd" d="M35.8629 26.4473V13.6512C35.8629 11.2335 36.4617 9.05172 37.4797 7.13525C37.1204 7.40061 36.791 7.66597 36.4317 7.96081L36.282 8.10823L35.803 8.55049L35.6533 8.69791L35.5036 8.84533C35.3539 8.99275 35.2042 9.14017 35.0545 9.28759L34.9048 9.46449L34.7551 9.61191L34.4556 9.96572L34.1862 10.29L33.8868 10.7028L33.5874 11.1451L33.4077 11.4104C33.288 11.6168 33.1682 11.7937 33.0484 12.0001L32.9287 12.236C32.8089 12.4719 32.6891 12.6783 32.5694 12.9141L32.5095 13.0321C32.3897 13.2974 32.27 13.5333 32.1801 13.7986V13.8576C32.0903 14.1525 31.9706 14.4178 31.9107 14.6832L31.8508 14.8306C31.761 15.0959 31.7011 15.3613 31.6412 15.6267V15.7741C31.5514 16.0689 31.4915 16.3638 31.4616 16.6586V16.747C31.4017 17.0714 31.3717 17.3957 31.3717 17.72C31.3717 18.0738 31.3418 18.4276 31.3418 18.7814V45.3466L34.3059 43.1942L35.9527 43.4891C35.9527 43.3122 35.9527 43.1647 35.9527 42.9878V26.3883L35.8629 26.4473Z" fill="#D6B17A"/>
<path id="Vector_13" opacity="0.5" fill-rule="evenodd" clip-rule="evenodd" d="M35.9824 8.34399C43.1982 2.80099 55.6536 1.12041 66.1928 3.21377C64.2466 3.5381 62.8394 4.39313 62.4801 5.69043C61.8214 8.04915 64.9353 10.9091 69.3965 12.1179C73.8876 13.3268 78.0194 12.3833 78.6781 10.0246C78.8278 9.49387 78.768 8.90419 78.5584 8.34399C82.3309 11.1745 84.7262 15.0369 84.7262 19.8722V49.2678C84.7262 51.7445 83.6483 53.8084 82.0016 55.4005C84.307 53.6904 85.9538 51.3022 85.9538 48.2359V18.8108C85.9238 -0.117923 49.2762 -3.83291 35.9824 8.34399Z" fill="white"/>
<path id="Vector_14" fill-rule="evenodd" clip-rule="evenodd" d="M58.5278 43.6068C57.5397 42.6339 56.1924 42.0442 54.7253 42.0442C53.2582 42.0442 51.8809 42.6339 50.9228 43.6068C49.9647 44.5798 49.3359 45.9066 49.3359 47.3513C49.3359 48.796 49.9348 50.1523 50.9228 51.0958C51.9109 52.0688 53.2582 52.6584 54.7253 52.6584C56.1924 52.6584 57.5697 52.0688 58.5278 51.0958C59.5158 50.1228 60.1147 48.796 60.1147 47.3218C60.1147 45.8476 59.5158 44.5208 58.5278 43.5774V43.6068ZM56.7912 49.4152C56.2523 49.9459 55.5038 50.2702 54.6954 50.2702C53.887 50.2702 53.1384 49.9459 52.5995 49.4152C52.0606 48.8845 51.7312 48.1769 51.7312 47.3513C51.7312 46.5258 52.0606 45.8181 52.5995 45.2874C53.1384 44.7567 53.857 44.4324 54.6954 44.4324C55.5337 44.4324 56.2523 44.7567 56.7912 45.2874C57.3302 45.8181 57.6595 46.5552 57.6595 47.3513C57.6595 48.1474 57.3302 48.8845 56.7912 49.4152Z" fill="black"/>
<path id="Vector_15" d="M55.1146 51.3612C57.6446 51.3612 59.6956 49.3416 59.6956 46.8502C59.6956 44.3588 57.6446 42.3391 55.1146 42.3391C52.5847 42.3391 50.5337 44.3588 50.5337 46.8502C50.5337 49.3416 52.5847 51.3612 55.1146 51.3612Z" fill="white"/>
<path id="Vector_16" fill-rule="evenodd" clip-rule="evenodd" d="M55.8629 43.9607C54.2461 43.9607 52.9287 45.258 52.9287 46.8501C52.9287 48.4423 54.2461 49.7396 55.8629 49.7396C57.4797 49.7396 58.7971 48.4423 58.7971 46.8501C58.7971 45.258 57.4797 43.9607 55.8629 43.9607Z" fill="#00D064"/>
<path id="Vector_17" fill-rule="evenodd" clip-rule="evenodd" d="M56.1326 45.4055C55.3242 45.4055 54.6655 46.0542 54.6655 46.8502C54.6655 47.6463 55.3242 48.295 56.1326 48.295C56.941 48.295 57.5997 47.6463 57.5997 46.8502C57.5997 46.0542 56.941 45.4055 56.1326 45.4055Z" fill="#00662F"/>
<path id="Vector_18" fill-rule="evenodd" clip-rule="evenodd" d="M53.9769 43.1057C52.8092 43.1057 51.8511 44.0492 51.8511 45.2286C51.8511 46.4079 52.8092 47.3219 53.9769 47.3219C55.1446 47.3219 56.1027 46.3784 56.1027 45.2286C56.1027 44.0787 55.1446 43.1057 53.9769 43.1057Z" fill="white"/>
<path id="Vector_19" fill-rule="evenodd" clip-rule="evenodd" d="M57.3602 48.2949C56.911 48.2949 56.5518 48.6487 56.5518 49.091C56.5518 49.5333 56.911 49.8871 57.3602 49.8871C57.8093 49.8871 58.1686 49.5333 58.1686 49.091C58.1686 48.6487 57.8093 48.2949 57.3602 48.2949Z" fill="white"/>
<path id="Vector_20" fill-rule="evenodd" clip-rule="evenodd" d="M82.9894 41.8967C82.0313 41.8967 81.1331 42.5159 80.5043 43.4594C79.8756 44.4324 79.4863 45.7886 79.4863 47.2628C79.4863 48.737 79.8756 50.0933 80.5043 51.0663C81.1331 52.0392 82.0313 52.6289 82.9894 52.6289C83.9475 52.6289 84.8457 52.0392 85.4745 51.0663C86.1033 50.0933 86.4925 48.737 86.4925 47.2628C86.4925 45.7886 86.1033 44.4324 85.4745 43.4594C84.8457 42.4864 83.9475 41.8967 82.9894 41.8967ZM84.3667 49.3562C84.0074 49.8869 83.5283 50.2112 82.9894 50.2112C82.4505 50.2112 81.9714 49.8869 81.6121 49.3562C81.2528 48.8255 81.0433 48.0884 81.0433 47.2628C81.0433 46.4373 81.2528 45.7002 81.6121 45.1695C81.9714 44.6387 82.4505 44.3144 82.9894 44.3144C83.5283 44.3144 84.0074 44.6387 84.3667 45.1695C84.726 45.7002 84.9356 46.4373 84.9356 47.2628C84.9356 48.0884 84.726 48.8255 84.3667 49.3562Z" fill="black"/>
<path id="Vector_21" fill-rule="evenodd" clip-rule="evenodd" d="M82.6901 42.28C81.0733 42.28 79.7559 44.3144 79.7559 46.7911C79.7559 49.2677 81.0733 51.3021 82.6901 51.3021C84.3069 51.3021 85.6243 49.2677 85.6243 46.7911C85.6243 44.3144 84.3069 42.28 82.6901 42.28Z" fill="white"/>
<path id="Vector_22" fill-rule="evenodd" clip-rule="evenodd" d="M83.1695 43.9312C82.1216 43.9312 81.2832 45.2285 81.2832 46.8206C81.2832 48.4127 82.1216 49.71 83.1695 49.71C84.2174 49.71 85.0558 48.4127 85.0558 46.8206C85.0558 45.2285 84.2174 43.9312 83.1695 43.9312Z" fill="#00D064"/>
<path id="Vector_23" fill-rule="evenodd" clip-rule="evenodd" d="M83.3491 45.376C82.8401 45.376 82.4209 46.0246 82.4209 46.8207C82.4209 47.6168 82.8401 48.2654 83.3491 48.2654C83.8581 48.2654 84.2772 47.6168 84.2772 46.8207C84.2772 46.0246 83.8581 45.376 83.3491 45.376Z" fill="#00662F"/>
<path id="Vector_24" fill-rule="evenodd" clip-rule="evenodd" d="M81.9715 43.0762C81.223 43.0762 80.5942 44.0197 80.5942 45.199C80.5942 46.3784 81.223 47.2924 81.9715 47.2924C82.72 47.2924 83.3488 46.3489 83.3488 45.199C83.3488 44.0491 82.72 43.0762 81.9715 43.0762Z" fill="white"/>
<path id="Vector_25" fill-rule="evenodd" clip-rule="evenodd" d="M84.1272 48.2654C83.8577 48.2654 83.6182 48.6192 83.6182 49.0614C83.6182 49.5037 83.8577 49.8575 84.1272 49.8575C84.3966 49.8575 84.6362 49.5037 84.6362 49.0614C84.6362 48.6192 84.3966 48.2654 84.1272 48.2654Z" fill="white"/>
<path id="Vector_26" fill-rule="evenodd" clip-rule="evenodd" d="M46.7909 40.0982L46.3418 40.7174L63.3482 47.0564L64.8453 40.4815L52.0904 32.5503L46.7909 40.0982ZM63.4979 41.0417L62.4799 45.4643L48.1981 40.1277L52.4198 34.1424L63.4979 41.0417Z" fill="black"/>
<path id="Vector_27" fill-rule="evenodd" clip-rule="evenodd" d="M47.2998 40.4226L62.929 46.2604L64.1865 40.7764L52.27 33.3464L47.2998 40.4226Z" fill="#333333"/>
<path id="Vector_28" fill-rule="evenodd" clip-rule="evenodd" d="M52.27 33.3464L48.1681 39.1843L47.2998 40.4226H47.3297L49.5454 41.2776L53.3179 42.6929L59.2762 44.9042L62.929 46.2604L63.4379 44.1081L50.3837 39.2138L52.27 33.3464Z" fill="#1A1A1A"/>
<path id="Vector_29" fill-rule="evenodd" clip-rule="evenodd" d="M84.2472 33.435L76.6123 40.8355L77.5105 46.9682L87.6904 41.0419L84.4269 33.8478L84.2173 33.4055L84.2472 33.435ZM78.0195 45.494L77.4207 41.3662L84.0676 34.9387L86.6126 40.5407L78.0495 45.5235L78.0195 45.494Z" fill="black"/>
<path id="Vector_30" fill-rule="evenodd" clip-rule="evenodd" d="M77.0015 41.1006L77.75 46.2308L87.1215 40.7763L84.1274 34.1719L77.0015 41.1006Z" fill="#333333"/>
<path id="Vector_31" fill-rule="evenodd" clip-rule="evenodd" d="M84.1275 34.1719L85.2653 39.6559L77.4507 44.1964L77.7501 46.2308L79.9358 44.963L83.4987 42.8991L85.7742 41.5724L87.1216 40.8058V40.7763L86.5827 39.6264L84.1275 34.1719Z" fill="#1A1A1A"/>
<path id="Vector_32" fill-rule="evenodd" clip-rule="evenodd" d="M24.9342 37.769C23.1078 39.5675 22 42.0441 22 44.7567C22 47.4692 23.1378 49.9459 24.9342 51.7444C26.7606 53.5429 29.2756 54.6338 32.0302 54.6338C33.5572 54.6338 34.9943 54.3095 36.2818 53.7198C36.1022 52.7763 35.9525 51.8034 35.8626 50.7714C34.7548 51.4495 33.4374 51.8623 32.0302 51.8623C30.0242 51.8623 28.2277 51.0663 26.9402 49.7984C25.6528 48.5011 24.8444 46.7321 24.8444 44.7567C24.8444 42.7812 25.6528 41.0122 26.9402 39.7444C28.2576 38.4471 30.0541 37.651 32.0302 37.651C34.0063 37.651 35.7129 38.3881 37.0004 39.597C37.3297 38.5945 37.719 37.71 38.1381 36.8844C36.4315 35.5871 34.3057 34.8206 32.0003 34.8206C29.2158 34.8206 26.7307 35.9409 24.9043 37.71L24.9342 37.769Z" fill="black"/>
<path id="Vector_33" fill-rule="evenodd" clip-rule="evenodd" d="M32.0302 36.2653C27.2696 36.2653 23.4072 40.0688 23.4072 44.7567C23.4072 49.4447 27.2696 53.2481 32.0302 53.2481C33.4674 53.2481 34.8446 52.8943 36.0423 52.2751C35.8626 50.9484 35.7429 49.5331 35.7429 48.0589C35.7429 44.285 36.4315 40.8059 37.5393 38.1818C36.0423 36.9729 34.1261 36.2358 32.0302 36.2358V36.2653Z" fill="#FFE7AD"/>
<path id="Vector_34" fill-rule="evenodd" clip-rule="evenodd" d="M27.5093 44.7568C27.5093 48.8551 30.8926 52.1868 35.0544 52.1868C35.3837 52.1868 35.7131 52.1868 36.0125 52.1278C35.8328 50.8305 35.743 50.7715 35.743 48.0885C35.743 45.4054 35.3837 43.6954 36.6113 41.0123C32.4495 38.5651 27.5093 39.5381 27.5093 44.7568Z" fill="#FFD26B"/>
<path id="Vector_35" fill-rule="evenodd" clip-rule="evenodd" d="M23.3774 44.7568C23.3774 46.4374 23.8565 47.9706 24.6948 49.2974C24.1858 48.2065 23.8864 46.9976 23.8864 45.7003C23.8864 41.0124 27.7488 37.2089 32.5094 37.2089C34.2759 37.2089 35.9526 37.7396 37.3299 38.6536C37.3898 38.5062 37.4497 38.3588 37.5095 38.2409C36.0125 37.032 34.0963 36.2949 32.0004 36.2949C27.2398 36.2949 23.3774 40.0984 23.3774 44.7863V44.7568Z" fill="#FFF8E9"/>
<path id="Vector_36" fill-rule="evenodd" clip-rule="evenodd" d="M61.522 35.204L65.4143 37.5038L64.037 29.4841L61.522 35.204Z" fill="#FFF3D7"/>
<path id="Vector_37" fill-rule="evenodd" clip-rule="evenodd" d="M75.4746 38.4472L78.6184 35.7937L75.7141 33.4939L75.4746 38.4472Z" fill="#FFF3D7"/>
<path id="Vector_38" fill-rule="evenodd" clip-rule="evenodd" d="M65.6538 54.1326C65.6538 54.1326 72.8097 50.7124 73.5582 53.9557C73.5582 48.3537 65.7137 54.0146 65.6538 54.1326Z" fill="black"/>
<path id="Vector_39" fill-rule="evenodd" clip-rule="evenodd" d="M70.8936 43.9903C69.3666 44.2261 68.4684 47.2335 68.4385 47.263C68.4385 47.263 73.1991 44.9927 73.6781 47.145C73.6781 45.7003 71.8218 43.8134 70.8637 43.9608L70.8936 43.9903Z" fill="#FFF3D7"/>
<path id="Vector_40" fill-rule="evenodd" clip-rule="evenodd" d="M33.6173 40.8943C32.4496 40.8943 31.4615 41.5135 30.7429 42.4864C30.1441 43.3415 29.7549 44.4913 29.7549 45.7297C29.7549 46.968 30.1441 48.1179 30.7429 48.9729C31.4316 49.9459 32.4496 50.565 33.6173 50.565C34.785 50.565 35.773 49.9459 36.4916 48.9729C37.0904 48.1179 37.4796 46.968 37.4796 45.7297C37.4796 44.4913 37.0904 43.3415 36.4916 42.4864C35.8029 41.5135 34.785 40.8943 33.6173 40.8943ZM34.3059 47.4692C34.0963 47.7641 33.8568 47.941 33.6173 47.941C33.3777 47.941 33.1382 47.7641 32.9286 47.4692C32.6292 47.0564 32.4196 46.4373 32.4196 45.7297C32.4196 45.0221 32.5993 44.4324 32.9286 43.9901C33.1382 43.6953 33.3777 43.5184 33.6173 43.5184C33.8568 43.5184 34.0963 43.6953 34.3059 43.9901C34.6053 44.4029 34.8149 45.0221 34.8149 45.7297C34.8149 46.4373 34.6352 47.027 34.3059 47.4692Z" fill="black"/>
<path id="Vector_41" fill-rule="evenodd" clip-rule="evenodd" d="M33.6171 42.1917C32.2398 42.1917 31.1021 43.7838 31.1021 45.7002C31.1021 47.6167 32.2398 49.2088 33.6171 49.2088C34.9944 49.2088 36.1321 47.6167 36.1321 45.7002C36.1321 43.7838 34.9944 42.1917 33.6171 42.1917Z" fill="#1A1A1A"/>
<path id="Vector_42" fill-rule="evenodd" clip-rule="evenodd" d="M32.8385 43.312C31.8804 43.312 31.1318 44.3734 31.1318 45.7002C31.1318 47.027 31.9103 48.0884 32.8385 48.0884C33.7666 48.0884 34.5451 47.027 34.5451 45.7002C34.5451 44.3734 33.7666 43.312 32.8385 43.312Z" fill="#333333"/>
<path id="Vector_43" fill-rule="evenodd" clip-rule="evenodd" d="M76.0432 38.8895C74.6659 38.0344 72.8096 37.5332 70.8035 37.5332C68.7975 37.5332 66.9112 38.0639 65.5639 38.8895C64.0069 39.8624 63.0488 41.2187 63.0488 42.8108C63.0488 43.3121 63.1386 43.8133 63.3482 44.285C63.5279 44.7568 63.7974 45.1696 64.1566 45.5823L65.1746 46.7322L66.1627 45.5823C66.5819 45.1106 67.2106 44.7273 67.9891 44.4325C68.7975 44.1376 69.7556 43.9607 70.8035 43.9607C71.8514 43.9607 72.8096 44.1376 73.618 44.4325C74.3964 44.7273 75.0252 45.1106 75.4444 45.5823L76.4324 46.7322L77.4504 45.5823C77.8097 45.1696 78.0792 44.7568 78.2588 44.285C78.4384 43.8133 78.5582 43.3121 78.5582 42.8108C78.5582 41.2482 77.6001 39.8624 76.0432 38.8895ZM74.5461 41.9558C73.4383 41.543 72.1509 41.3072 70.8035 41.3072C69.4562 41.3072 68.1687 41.543 67.0609 41.9558C66.5819 42.1327 66.1327 42.3391 65.7435 42.575C65.8333 42.0443 66.2824 41.5135 66.9711 41.0713C67.9292 40.4816 69.2765 40.0983 70.8035 40.0983C72.3305 40.0983 73.6778 40.4521 74.636 41.0713C75.3246 41.4841 75.7737 42.0148 75.8635 42.575C75.4444 42.3391 74.9952 42.1327 74.5461 41.9558Z" fill="black"/>
<path id="Vector_44" fill-rule="evenodd" clip-rule="evenodd" d="M70.8038 38.8306C67.2708 38.8306 64.3965 40.5996 64.3965 42.8109C64.3965 43.489 64.666 44.1377 65.1749 44.7274C66.2528 43.489 68.3786 42.6635 70.8038 42.6635C73.229 42.6635 75.3549 43.489 76.4327 44.7274C76.9417 44.1672 77.2112 43.5185 77.2112 42.8109C77.2112 40.5996 74.3369 38.8306 70.8038 38.8306Z" fill="black"/>
<path id="Vector_45" fill-rule="evenodd" clip-rule="evenodd" d="M70.8038 38.8306C67.2708 38.8306 64.3965 40.5996 64.3965 42.8109C64.3965 43.0468 64.4264 43.2827 64.4863 43.489C64.9953 41.6021 67.6301 40.1868 70.8038 40.1868C73.9776 40.1868 76.6124 41.6021 77.1214 43.489C77.1812 43.2532 77.2112 43.0468 77.2112 42.8109C77.2112 40.5996 74.3369 38.8306 70.8038 38.8306Z" fill="#333333"/>
<path id="Vector_46" fill-rule="evenodd" clip-rule="evenodd" d="M31.8203 36.3537V37.1793L42.2996 42.0442L42.7188 43.9017L47.9884 45.4643L48.2878 37.5921L31.8203 33.3169V36.3243V36.3537ZM45.5632 39.597L45.4734 41.9852L44.9644 41.8378L44.6051 40.2162L40.3535 38.2407L45.5632 39.597Z" fill="black"/>
<path id="Vector_47" fill-rule="evenodd" clip-rule="evenodd" d="M33.168 36.3539L43.4676 41.1303L43.8569 42.8699L46.7611 43.7249L46.9408 38.5947L33.168 35.0271V36.3539Z" fill="#1A1A1A"/>
<path id="Vector_48" fill-rule="evenodd" clip-rule="evenodd" d="M33.168 36.2949L46.6713 39.8035L46.5515 43.6659L46.7611 43.7249L46.9408 38.5947L33.168 35.0271V36.2949Z" fill="#333333"/>
<path id="Vector_49" fill-rule="evenodd" clip-rule="evenodd" d="M67.5698 38.6829L67.2105 38.0638L46.162 37.2087L45.8028 37.7984C45.3836 38.4766 45.0243 39.1842 44.8147 39.9508C44.6051 40.6879 44.4854 41.4544 44.4854 42.2505C44.4854 44.9336 44.8746 47.3807 46.6112 49.2972C48.3777 51.2137 51.4316 52.5109 56.6713 52.7173C61.9409 52.9237 64.9649 51.9213 66.7614 50.1227C68.5279 48.3537 68.8872 45.936 68.8872 43.253C68.8872 42.4569 68.7674 41.6608 68.5578 40.9237C68.3482 40.1571 67.989 39.3906 67.5698 38.6829ZM64.6655 48.6191C63.3781 49.9164 60.9828 50.6535 56.6713 50.4766C52.3299 50.2997 49.9346 49.3562 48.6771 47.9704C47.3896 46.5552 47.1201 44.5797 47.1201 42.339C47.1201 41.7198 47.21 41.1301 47.3896 40.5404C47.5094 40.1866 47.6291 39.8328 47.8088 39.479L65.5637 40.2161C65.7434 40.5699 65.8931 40.9532 65.9829 41.307C66.1626 41.8967 66.2524 42.4864 66.2524 43.1055C66.2524 45.3168 65.9829 47.2923 64.6955 48.5896L64.6655 48.6191Z" fill="black"/>
<path id="Vector_50" fill-rule="evenodd" clip-rule="evenodd" d="M46.9406 38.3586C46.1921 39.538 45.7729 40.8648 45.7729 42.3095C45.7729 47.2039 47.0903 51.2137 56.6714 51.597C66.2525 51.9803 67.5699 48.0884 67.5699 43.194C67.5699 41.7493 67.1507 40.393 66.4022 39.1547L46.9706 38.3586H46.9406Z" fill="#333333"/>
<g id="Clip path group">
<mask id="mask0_34_4413" style="mask-type:luminance" maskUnits="userSpaceOnUse" x="45" y="38" width="23" height="14">
<g id="clippath">
<path id="Vector_51" d="M66.3724 39.1547C67.121 40.393 67.5401 41.7493 67.5401 43.194C67.5401 48.0884 66.2227 51.9803 56.6417 51.597C47.0606 51.2137 45.7432 47.1744 45.7432 42.3095C45.7432 40.8648 46.1623 39.538 46.9109 38.3586L66.3425 39.1547H66.3724Z" fill="white"/>
</g>
</mask>
<g mask="url(#mask0_34_4413)">
<g id="Group">
<path id="Vector_52" fill-rule="evenodd" clip-rule="evenodd" d="M51.2822 53.7493L58.0788 54.0147L64.546 36.7076L57.7195 36.4127L51.2822 53.7493Z" fill="#454545"/>
<path id="Vector_53" fill-rule="evenodd" clip-rule="evenodd" d="M60.085 54.1031L63.4683 54.2506L69.9355 36.914L66.5522 36.7665L60.085 54.1031Z" fill="#454545"/>
<path id="Vector_54" fill-rule="evenodd" clip-rule="evenodd" d="M43.3779 53.3955L46.7912 53.5429L53.2584 36.2358L49.8452 36.0884L43.3779 53.3955Z" fill="#454545"/>
</g>
</g>
</g>
<path id="Vector_55" fill-rule="evenodd" clip-rule="evenodd" d="M65.1146 39.0959C65.2344 39.6266 65.2943 40.1573 65.2943 40.7175C65.2943 45.6119 63.9769 49.5038 54.3958 49.1205C50.743 48.973 48.2879 48.2949 46.6411 47.2335C47.8687 49.6512 50.6233 51.3318 56.6414 51.5676C66.2225 51.9509 67.5399 48.059 67.5399 43.1647C67.5399 41.72 67.1207 40.3637 66.3722 39.1254L65.1146 39.0664V39.0959Z" fill="#333333"/>
<path id="Vector_56" fill-rule="evenodd" clip-rule="evenodd" d="M87.5408 37.6806L87.2713 37.0024L73.6781 37.7985L73.4087 38.5061C73.1392 39.2137 72.8997 39.9803 72.7799 40.7764C72.6302 41.543 72.5703 42.3391 72.5703 43.1351C72.5703 45.8477 72.8098 48.2948 73.9775 50.1228C75.1452 51.9508 77.1213 53.0123 80.5046 52.8059C83.9179 52.5995 85.894 51.3022 87.0318 49.3562C88.1695 47.3808 88.439 44.9042 88.439 42.1916C88.439 41.3661 88.3492 40.5995 88.2294 39.8329C88.0797 39.0663 87.8701 38.3292 87.6006 37.6511L87.5408 37.6806ZM85.4748 47.8526C84.6964 49.2088 83.1993 50.0934 80.4747 50.2408C77.7501 50.3882 76.253 49.6806 75.4746 48.4422C74.6662 47.1744 74.5165 45.2285 74.5165 43.0762C74.5165 42.4865 74.5764 41.8968 74.6662 41.3071C74.7261 40.9828 74.8159 40.6585 74.9057 40.3636L86.0437 39.715C86.1335 40.0098 86.2234 40.3341 86.2832 40.6585C86.3731 41.2187 86.4329 41.7789 86.4329 42.398C86.4329 44.5798 86.2533 46.5553 85.4748 47.9115V47.8526Z" fill="black"/>
<path id="Vector_57" fill-rule="evenodd" clip-rule="evenodd" d="M74.2466 39.0664C73.7675 40.3048 73.498 41.661 73.498 43.1058C73.498 48.0001 74.3364 51.892 80.4443 51.5382C86.5523 51.1844 87.3906 47.1746 87.3906 42.2802C87.3906 40.8355 87.1212 39.5087 86.6421 38.3293L74.2466 39.0664Z" fill="#333333"/>
<g id="Clip path group_2">
<mask id="mask1_34_4413" style="mask-type:luminance" maskUnits="userSpaceOnUse" x="73" y="38" width="15" height="14">
<g id="clippath-1">
<path id="Vector_58" d="M86.6724 38.3293C87.1514 39.5087 87.4209 40.8355 87.4209 42.2802C87.4209 47.1746 86.5826 51.1844 80.4746 51.5382C74.3667 51.892 73.5283 48.0001 73.5283 43.1058C73.5283 41.661 73.7978 40.3048 74.2768 39.0664L86.6724 38.3293Z" fill="white"/>
</g>
</mask>
<g mask="url(#mask1_34_4413)">
<g id="Group_2">
<path id="Vector_59" fill-rule="evenodd" clip-rule="evenodd" d="M77.0312 54.1327L81.3727 53.8674L85.4746 36.0295L81.1332 36.2949L77.0312 54.1327Z" fill="#454545"/>
<path id="Vector_60" fill-rule="evenodd" clip-rule="evenodd" d="M82.6304 53.779L84.8161 53.661L88.9479 35.8232L86.7622 35.9706L82.6304 53.779Z" fill="#454545"/>
<path id="Vector_61" fill-rule="evenodd" clip-rule="evenodd" d="M71.9712 54.4276L74.1569 54.2802L78.2887 36.4718L76.103 36.5897L71.9712 54.4276Z" fill="#454545"/>
</g>
</g>
</g>
<path id="Vector_62" fill-rule="evenodd" clip-rule="evenodd" d="M85.8639 38.3881C85.9538 38.9188 85.9837 39.4496 85.9837 40.0097C85.9837 44.9041 85.1454 48.9139 79.0374 49.2677C76.702 49.4151 75.1451 48.9139 74.0972 47.9999C74.8756 50.3292 76.6421 51.7739 80.4746 51.5675C86.5825 51.2137 87.4209 47.2039 87.4209 42.3095C87.4209 40.8648 87.1514 39.538 86.6723 38.3586L85.8639 38.4176V38.3881Z" fill="#333333"/>
<path id="Vector_63" fill-rule="evenodd" clip-rule="evenodd" d="M62.8392 48.0589C61.8811 48.3242 61.2524 49.0613 61.432 49.6805C61.6116 50.3292 62.5398 50.624 63.4979 50.3586C64.456 50.0933 65.0848 49.3562 64.9051 48.737C64.7255 48.0884 63.7973 47.7935 62.8392 48.0589Z" fill="white"/>
<path id="Vector_64" fill-rule="evenodd" clip-rule="evenodd" d="M66.9412 40.2751C66.7915 39.8918 66.5819 39.5085 66.3723 39.1547L46.9406 38.3586C46.1921 39.538 45.7729 40.8648 45.7729 42.3095C45.7729 45.2284 46.252 47.8525 48.6772 49.5626C47.3299 47.9409 47.0305 45.7886 47.0305 43.4594C47.0305 42.0147 47.4496 40.6879 48.1982 39.5085L66.9711 40.2751H66.9412Z" fill="#666666"/>
<path id="Vector_65" fill-rule="evenodd" clip-rule="evenodd" d="M49.1563 39.1253C47.1802 39.656 45.8927 41.1597 46.252 42.4865C46.6113 43.8133 48.5275 44.4325 50.5036 43.9017C52.4797 43.371 53.7672 41.8673 53.4079 40.5406C53.0486 39.2138 51.1324 38.5946 49.1563 39.1253Z" fill="white"/>
<path id="Vector_66" fill-rule="evenodd" clip-rule="evenodd" d="M87.0912 39.6856C86.9715 39.2139 86.8217 38.7716 86.6421 38.3293L74.2466 39.0664C73.7675 40.3048 73.498 41.661 73.498 43.1058C73.498 46.6144 73.9172 49.6217 76.4323 50.8895C75.2646 49.3269 75.025 46.9977 75.025 44.3736C75.025 42.9289 75.2945 41.5726 75.7736 40.3343L87.0912 39.6561V39.6856Z" fill="#666666"/>
<path id="Vector_67" fill-rule="evenodd" clip-rule="evenodd" d="M76.6419 39.7445C75.1748 40.1573 74.1868 41.2777 74.4862 42.2506C74.7557 43.2236 76.1928 43.6953 77.6599 43.3121C79.127 42.8993 80.1151 41.7789 79.8157 40.8059C79.5462 39.8329 78.109 39.3612 76.6419 39.7445Z" fill="white"/>
<path id="Vector_68" fill-rule="evenodd" clip-rule="evenodd" d="M33.5273 31.3711C32.6291 31.3711 31.8207 31.7249 31.0722 32.2556C30.4434 32.6684 29.9045 33.2286 29.4254 33.7003L25.1738 38.0345L30.8626 35.8527C31.2518 35.7052 31.6411 35.6168 32.0303 35.6168C32.7189 35.6168 33.3477 35.8821 33.8567 36.2654C34.4256 36.7077 34.8747 37.3564 35.1741 38.0935C35.3837 38.6242 35.5034 39.2433 35.5034 39.8625C35.5034 41.6905 35.3837 40.865 35.1142 42.9288C35.1142 44.6389 34.8148 47.1156 34.8148 48.8256C37.3298 47.9706 37.4197 47.7937 38.8269 45.2581C39.6353 43.8134 40.1143 42.0148 40.1143 40.0689C40.1143 37.7691 39.4257 35.6463 38.3179 34.1131C37.1202 32.4325 35.4136 31.4006 33.4974 31.4006L33.5273 31.3711Z" fill="black"/>
<path id="Vector_69" fill-rule="evenodd" clip-rule="evenodd" d="M33.5271 32.6682C32.3594 32.6682 31.2516 33.7002 30.3833 34.5847C33.8864 33.2284 36.8505 36.4127 36.8505 39.8033C36.8505 41.6903 35.593 43.4299 34.3355 44.5208L34.1559 47.2333C36.4613 46.4373 38.7967 43.8132 38.7967 40.0392C38.7967 36.2653 36.4314 32.6682 33.5271 32.6682Z" fill="#333333"/>
<path id="Vector_70" fill-rule="evenodd" clip-rule="evenodd" d="M33.5273 32.6682C32.7488 32.6682 31.9704 33.14 31.2817 33.7296C31.641 33.5527 32.0303 33.4348 32.4195 33.4348C35.3238 33.4348 37.6891 37.0319 37.6891 40.8058C37.6891 43.4889 36.5214 45.5822 34.9944 46.85C37.0004 45.7591 38.7969 43.3414 38.7969 40.0392C38.7969 36.2653 36.4316 32.6682 33.5273 32.6682Z" fill="#4D4D4D"/>
</g>
</g>
</svg>
