<svg width="198" height="127" viewBox="0 0 198 127" fill="none" xmlns="http://www.w3.org/2000/svg">
<g id="Gravestone">
<path id="Vector" d="M1.80946 81.3927L30.5004 93.5023L145.5 90.5L196.5 97.5L180 109L187 99.5L128.525 96.5L106.5 105.5L121.5 96.1396L29.2005 95.2867L6.00043 100L25.5005 93.5021L0.868543 82.4071L1.80946 81.3927Z" fill="#1B1138"/>
<path id="rect2991" d="M168.404 40.1115L168.404 40.109C171.314 26.84 162.942 13.8205 149.631 10.9187L168.404 40.1115ZM168.404 40.1115L156.779 94.5001H63.9042L79.7668 20.792C79.7669 20.7915 79.767 20.7911 79.7671 20.7906C82.2873 9.30433 92.4101 1.50348 103.719 1.49762L104.083 1.50272C105.719 1.52566 107.379 1.71427 109.045 2.07662C109.045 2.07663 109.045 2.07665 109.045 2.07666L149.631 10.9187L168.404 40.1115Z" fill="#1B1138" stroke="#1B1138"/>
<path id="rect2993" d="M79.6587 21.4075L64.0261 92.7092C64.026 92.7096 64.0259 92.71 64.0258 92.7104C63.9747 92.9388 63.9324 93.1702 63.8923 93.3892C63.8834 93.4381 63.8746 93.4864 63.8658 93.534L63.7564 94.1249H64.3574H138.824H139.226L139.312 93.732L151.723 37.1154C154.692 23.5798 146.149 10.2992 132.577 7.34269L109.514 2.31682L109.513 2.31679C107.82 1.9483 106.128 1.75719 104.46 1.73314V1.7331C92.7764 1.56589 82.2545 9.56314 79.6587 21.4074C79.6587 21.4075 79.6587 21.4075 79.6587 21.4075Z" fill="#697584" stroke="#1B1138"/>
<g id="Group 8" filter="url(#filter0_i_79_171455)">
<path id="path2995" d="M131.526 40.2426C134.822 31.079 130.044 20.9862 120.853 17.6997C111.663 14.4133 101.541 19.1776 98.2445 28.3412C94.9484 37.5048 99.7267 47.5976 108.917 50.8841C118.108 54.1705 128.23 49.4062 131.526 40.2426Z" fill="#CBCFD6"/>
<path id="rect2997" d="M103.776 34.1703C104.801 34.4408 105.412 35.4918 105.141 36.5141L101.459 50.3431C101.188 51.3654 100.134 51.9741 99.1086 51.7036C98.0833 51.4331 97.4728 50.3821 97.7441 49.3597L101.425 35.5308C101.697 34.5084 102.751 33.8997 103.776 34.1703Z" fill="#CBCFD6"/>
<path id="rect2999" d="M109.261 37.4715C110.286 37.7421 110.896 38.793 110.625 39.8154L106.944 53.6443C106.672 54.6667 105.618 55.2754 104.593 55.0049C103.568 54.7343 102.957 53.6834 103.228 52.661L106.91 38.8321C107.181 37.8097 108.235 37.201 109.261 37.4715Z" fill="#CBCFD6"/>
<path id="rect3001" d="M115.204 39.0428C116.229 39.3134 116.84 40.3643 116.568 41.3867L112.887 55.2156C112.616 56.238 111.562 56.8467 110.536 56.5762C109.511 56.3056 108.901 55.2547 109.172 54.2323L112.853 40.4033C113.125 39.381 114.179 38.7723 115.204 39.0428Z" fill="#CBCFD6"/>
<path id="rect3003" d="M121.609 38.8893C122.634 39.1598 123.245 40.2108 122.974 41.2331L119.292 55.0621C119.021 56.0844 117.967 56.6931 116.942 56.4226C115.916 56.1521 115.306 55.1011 115.577 54.0787L119.258 40.2498C119.53 39.2274 120.584 38.6187 121.609 38.8893Z" fill="#CBCFD6"/>
</g>
<path id="circle3005" d="M122.792 37.3283C125.538 36.3953 127.005 33.4198 126.069 30.6823C125.133 27.9449 122.149 26.482 119.404 27.415C116.658 28.348 115.191 31.3235 116.127 34.0609C117.063 36.7984 120.047 38.2612 122.792 37.3283Z" fill="#595668"/>
<path id="circle3007" d="M108.971 33.9187C111.164 33.9187 112.942 32.146 112.942 29.9594C112.942 27.7727 111.164 26.0001 108.971 26.0001C106.778 26.0001 105 27.7727 105 29.9594C105 32.146 106.778 33.9187 108.971 33.9187Z" fill="#595668"/>
<g id="g3024" filter="url(#filter1_i_79_171455)">
<path id="rect3009" d="M90.5596 49.6773L118.625 76.3519C119.277 76.971 119.3 78.0012 118.679 78.6515C118.059 79.3019 117.025 79.3253 116.373 78.7061L88.308 52.0315C87.6558 51.4124 87.6323 50.3823 88.2532 49.7319C88.8742 49.0816 89.9073 49.0581 90.5596 49.6773Z" fill="#CBCFD6"/>
<path id="circle3011" d="M120.934 80.5366C121.166 78.8136 119.953 77.2295 118.225 76.9984C116.497 76.7673 114.908 77.9767 114.677 79.6997C114.445 81.4226 115.658 83.0068 117.386 83.2379C119.114 83.469 120.703 82.2596 120.934 80.5366Z" fill="#CBCFD6"/>
<path id="circle3013" d="M120.71 79.2456C121.874 78.3138 122.06 76.6175 121.125 75.4569C120.191 74.2962 118.489 74.1108 117.325 75.0426C116.161 75.9744 115.975 77.6707 116.91 78.8314C117.845 79.992 119.546 80.1775 120.71 79.2456Z" fill="#CBCFD6"/>
<path id="circle3015" d="M86.1236 50.5903C84.96 49.2974 85.0669 47.3074 86.3636 46.1472C87.6603 44.987 89.6562 45.0936 90.8198 46.3865C91.9834 47.6794 91.8765 49.6694 90.5798 50.8297C89.2831 51.9899 87.2872 51.8832 86.1236 50.5903Z" fill="#CBCFD6"/>
<path id="circle3017" d="M85.25 53.2567C84.2534 52.1486 84.3447 50.4447 85.4561 49.4509C86.5675 48.4572 88.2764 48.5482 89.2731 49.6564C90.2697 50.7646 90.1784 52.4685 89.067 53.4623C87.9555 54.456 86.2466 54.3649 85.25 53.2567Z" fill="#CBCFD6"/>
</g>
<g id="g3036" filter="url(#filter2_i_79_171455)">
<path id="rect3026" d="M122.252 61.4433L83.5234 63.3241C82.6233 63.3683 81.9293 64.1305 81.9737 65.028C82.018 65.9255 82.7825 66.6174 83.6826 66.5732L122.411 64.6924C123.311 64.6482 124.005 63.886 123.96 62.9885C123.916 62.091 123.152 61.3991 122.252 61.4433Z" fill="#CBCFD6"/>
<path id="circle3028" d="M81.2742 63.579C79.5444 63.7976 78.3208 65.374 78.5426 67.0987C78.7617 68.8234 80.3428 70.0435 82.0725 69.8224C83.8023 69.6039 85.0259 68.0274 84.8042 66.3027C84.585 64.578 83.004 63.3579 81.2742 63.579Z" fill="#CBCFD6"/>
<path id="circle3030" d="M82.3621 60.9932C80.8802 61.1805 79.834 62.5307 80.0218 64.0083C80.2097 65.4858 81.5637 66.529 83.0457 66.3417C84.5276 66.1544 85.5738 64.8043 85.3859 63.3267C85.1981 61.8491 83.844 60.8059 82.3621 60.9932Z" fill="#CBCFD6"/>
<path id="circle3032" d="M127.336 63.4909C128.215 61.9892 127.706 60.0619 126.2 59.1861C124.694 58.3104 122.761 58.8178 121.882 60.3195C121.004 61.8212 121.513 63.7485 123.019 64.6243C124.525 65.5001 126.458 64.9926 127.336 63.4909Z" fill="#CBCFD6"/>
<path id="circle3034" d="M123.921 67.6138C125.403 67.4265 126.449 66.0764 126.261 64.5988C126.073 63.1212 124.719 62.078 123.237 62.2653C121.755 62.4526 120.709 63.8028 120.897 65.2803C121.085 66.7579 122.439 67.8011 123.921 67.6138Z" fill="#CBCFD6"/>
</g>
</g>
<defs>
<filter id="filter0_i_79_171455" x="97.2021" y="16.6601" width="35.3662" height="39.9803" filterUnits="userSpaceOnUse" color-interpolation-filters="sRGB">
<feFlood flood-opacity="0" result="BackgroundImageFix"/>
<feBlend mode="normal" in="SourceGraphic" in2="BackgroundImageFix" result="shape"/>
<feColorMatrix in="SourceAlpha" type="matrix" values="0 0 0 0 0 0 0 0 0 0 0 0 0 0 0 0 0 0 127 0" result="hardAlpha"/>
<feOffset dx="1" dy="2"/>
<feComposite in2="hardAlpha" operator="arithmetic" k2="-1" k3="1"/>
<feColorMatrix type="matrix" values="0 0 0 0 0.156863 0 0 0 0 0.133333 0 0 0 0 0.223529 0 0 0 0.7 0"/>
<feBlend mode="normal" in2="shape" result="effect1_innerShadow_79_171455"/>
</filter>
<filter id="filter1_i_79_171455" x="84.5586" y="45.3423" width="37.1621" height="37.9238" filterUnits="userSpaceOnUse" color-interpolation-filters="sRGB">
<feFlood flood-opacity="0" result="BackgroundImageFix"/>
<feBlend mode="normal" in="SourceGraphic" in2="BackgroundImageFix" result="shape"/>
<feColorMatrix in="SourceAlpha" type="matrix" values="0 0 0 0 0 0 0 0 0 0 0 0 0 0 0 0 0 0 127 0" result="hardAlpha"/>
<feOffset dx="1" dy="1"/>
<feComposite in2="hardAlpha" operator="arithmetic" k2="-1" k3="1"/>
<feColorMatrix type="matrix" values="0 0 0 0 0.156863 0 0 0 0 0.133333 0 0 0 0 0.223529 0 0 0 0.6 0"/>
<feBlend mode="normal" in2="shape" result="effect1_innerShadow_79_171455"/>
</filter>
<filter id="filter2_i_79_171455" x="78.5166" y="58.757" width="49.25" height="11.0912" filterUnits="userSpaceOnUse" color-interpolation-filters="sRGB">
<feFlood flood-opacity="0" result="BackgroundImageFix"/>
<feBlend mode="normal" in="SourceGraphic" in2="BackgroundImageFix" result="shape"/>
<feColorMatrix in="SourceAlpha" type="matrix" values="0 0 0 0 0 0 0 0 0 0 0 0 0 0 0 0 0 0 127 0" result="hardAlpha"/>
<feOffset dx="1" dy="1"/>
<feComposite in2="hardAlpha" operator="arithmetic" k2="-1" k3="1"/>
<feColorMatrix type="matrix" values="0 0 0 0 0.156863 0 0 0 0 0.133333 0 0 0 0 0.223529 0 0 0 0.6 0"/>
<feBlend mode="normal" in2="shape" result="effect1_innerShadow_79_171455"/>
</filter>
</defs>
</svg>
