<svg width="73" height="65" viewBox="0 0 73 65" fill="none" xmlns="http://www.w3.org/2000/svg">
<g id="Medikit">
<g id="layer1">
<path id="Vector" d="M5.11108 3.83088C1.51032 6.98305 4.62979 58.265 7.09295 62.7843C8.60974 65.5684 60.5858 65.6733 64.94 62.9424C67.5021 61.3365 71.4091 7.57216 68.7223 2.83665C67.2412 0.228409 8.73128 0.662579 5.11108 3.83088Z" fill="url(#paint0_linear_34_21780)"/>
<g id="Vector_2" style="mix-blend-mode:multiply" opacity="0.5">
<path d="M4.4589 5.15415C5.03256 1.74858 41.4631 3.36743 44.0737 5.74003C46.6762 8.10456 44.5274 62.6598 43.9295 63.6637C43.3315 64.6676 9.15026 64.6853 7.09546 62.7857C5.0358 60.8811 2.13834 18.9217 4.4589 5.15415Z" fill="#63484A"/>
</g>
<g id="Vector_3" style="mix-blend-mode:soft-light" opacity="0.5">
<path d="M6.58301 3.23052C6.58301 3.23052 27.4486 1.62781 44.4299 5.20608C44.4299 5.20608 66.8608 6.31813 68.7228 2.83832C68.7228 2.83832 69.4083 1.55034 47.3743 1.09196C24.6759 0.619053 8.05118 2.63011 6.58301 3.23052Z" fill="#BAFFFF"/>
</g>
<path id="Vector_4" d="M17.5166 1.9036C17.5166 1.9036 50.9184 1.47427 55.0377 4.68938C57.5074 6.61651 58.1588 62.8777 54.1124 64.2254C54.1124 64.2254 58.5494 64.269 60.0905 63.3038C64.1352 60.7714 67.5658 13.9764 64.9325 4.54089C63.4822 -0.661067 30.2764 0.373515 17.5166 1.9036Z" fill="url(#paint1_linear_34_21780)"/>
<g id="Vector_5" style="mix-blend-mode:soft-light" opacity="0.5">
<path d="M17.9844 1.89875C17.9844 1.89875 44.6757 0.110423 57.0174 5.03639C57.0174 5.03639 62.6308 4.93148 64.368 4.64257C66.1003 4.35366 53.7635 -1.83123 17.9844 1.89875Z" fill="#BAFFFF"/>
</g>
<g id="Vector_6" style="mix-blend-mode:multiply" opacity="0.8">
<path d="M55.55 5.94189C55.55 5.94189 59.1135 22.3193 58.6371 40.7965C58.159 59.3883 54.1143 64.2255 54.1143 64.2255C54.1143 64.2255 57.6372 45.0397 55.55 5.94189Z" fill="#AB4F81"/>
</g>
<path id="Vector_7" d="M20.2373 1.67447C20.2373 1.67447 53.7607 0.657638 58.7356 4.63618C63.4026 8.36777 60.1001 57.8405 57.3112 64.1593C57.3112 64.1593 57.9545 64.4644 59.4194 63.3329C60.8811 62.2031 66.4897 23.0843 62.2391 4.75884C62.2391 4.75884 58.7437 -0.365645 20.2373 1.67608V1.67447Z" fill="url(#paint2_linear_34_21780)"/>
<g id="Vector_8" style="mix-blend-mode:multiply" opacity="0.42">
<path d="M13.235 2.93024C4.14721 3.69528 14.5622 37.3474 25.9219 45.984C37.1439 54.514 42.6601 50.5436 44.1898 48.1306C45.7147 45.7225 45.6677 10.4757 44.3454 7.70125C43.0214 4.92354 28.5941 1.63903 13.235 2.93185V2.93024Z" fill="#72484A"/>
</g>
<path id="Vector_9" d="M38.4648 4.16803C38.2006 4.07119 47.068 4.9137 47.1409 5.30429C47.2139 5.69488 45.3146 8.17562 44.7361 8.02229C44.156 7.86896 45.2369 6.62294 38.4648 4.16642V4.16803Z" fill="#8C9852"/>
<g id="Vector_10" style="mix-blend-mode:multiply" opacity="0.5">
<path d="M7.09375 62.7857C7.09375 62.7857 23.1481 64.198 34.2275 63.7364C45.1464 63.2812 64.9425 62.9439 64.9425 62.9439C64.9425 62.9439 61.9235 64.9888 36.5561 65.0001C10.3153 65.0114 7.09537 62.7857 7.09537 62.7857H7.09375Z" fill="#72484A"/>
</g>
<g id="Vector_11" style="mix-blend-mode:multiply" opacity="0.42">
<path d="M1.53809 52.0703C1.53809 52.0703 1.99993 58.2197 6.0366 59.2623C7.52747 59.6465 19.4657 63.4136 26.4323 62.4936C33.3356 61.5817 34.4294 58.7087 34.4294 58.7087L1.53809 52.0703Z" fill="#72484A"/>
</g>
<path id="Vector_12" d="M2.96585 58.4586C0.810582 56.5185 -0.0580074 38.7208 0.230442 36.0803C0.308226 35.3701 3.81986 33.8417 7.10461 33.3994C16.1373 32.1841 33.4378 32.5585 35.7567 32.7118C38.9459 32.9233 35.794 57.3255 35.4342 59.0832C35.0745 60.8425 5.44684 60.6972 2.96423 58.4602L2.96585 58.4586Z" fill="url(#paint3_linear_34_21780)"/>
<g id="Vector_13" style="mix-blend-mode:multiply" opacity="0.5">
<path d="M0.230445 36.0804C0.878646 33.7982 28.5649 34.5439 29.043 35.8076C29.5227 37.0746 29.7074 59.2108 29.0252 60.1243C28.3445 61.0379 5.29776 60.0598 2.96423 58.4587C0.643673 56.8656 -0.529571 38.7564 0.230445 36.0804Z" fill="#63484A"/>
</g>
<g id="Vector_14" style="mix-blend-mode:soft-light" opacity="0.5">
<path d="M0.230136 36.0803C0.230136 36.0803 2.39675 34.7213 14.0757 35.333C26.0237 35.9593 27.7965 36.0464 29.0427 35.8076C30.2921 35.5687 35.7564 32.7103 35.7564 32.7103C35.7564 32.7103 24.0143 32.5134 14.6769 32.7119C5.50001 32.9072 1.76799 34.66 0.228516 36.0787L0.230136 36.0803Z" fill="#BAFFFF"/>
</g>
<path id="Vector_15" d="M2.29215 41.8085C1.87406 41.9247 2.52551 47.7561 3.18019 49.1539C3.83649 50.5565 25.3487 50.2417 25.9304 50.0577C26.5138 49.8737 26.1686 42.6123 25.8445 42.1943C25.5707 41.8408 4.36478 41.2307 2.29215 41.8085Z" fill="url(#paint4_linear_34_21780)"/>
<g id="Vector_16" style="mix-blend-mode:multiply" opacity="0.42">
<path d="M2.29202 41.8084C2.29202 41.8084 2.44759 48.5405 3.86715 49.1457C5.29157 49.7542 22.174 49.9221 24.0311 49.8446C25.893 49.7655 26.1766 49.5315 26.1766 49.5315C26.1766 49.5315 26.3597 53.1969 26.1167 53.4325C25.8736 53.6682 3.68403 51.3795 3.13792 50.9841C2.59181 50.5887 1.62437 43.324 2.29202 41.8068V41.8084Z" fill="#72484A"/>
</g>
<g id="Vector_17" style="mix-blend-mode:soft-light" opacity="0.5">
<path d="M25.8443 42.1943C25.4797 41.3405 24.3713 47.8595 26.1765 49.5316C26.1765 49.5316 26.7891 44.4055 25.8443 42.1943Z" fill="#BAFFFF"/>
</g>
<path id="Vector_18" d="M25.7132 35.2234C25.4377 35.3154 28.6091 36.5388 28.8813 36.4452C29.1519 36.3516 30.7238 35.1895 30.6428 35.112C30.5618 35.0346 28.5864 34.2695 25.7149 35.2234H25.7132Z" fill="#8C9852"/>
<g id="Vector_19" style="mix-blend-mode:multiply" opacity="0.8">
<path d="M59.9022 9.16669C59.9022 9.16669 58.7841 14.4058 59.2929 25.7248C59.8017 37.0423 64.5806 39.5488 65.4946 39.8781C66.4101 40.2074 68.7485 34.8827 68.7258 26.6868C68.7032 18.4908 59.9022 9.16669 59.9022 9.16669Z" fill="#522772"/>
</g>
<path id="Vector_20" d="M58.7145 8.83584C58.7145 8.83584 58.6432 12.795 60.0336 16.5928L65.1528 16.1941C65.1528 16.1941 66.911 14.0265 67.0585 13.4858C67.2059 12.9451 65.1252 8.1628 64.4203 7.77705C63.717 7.3913 61.1615 6.88289 60.698 6.83124C60.2329 6.77959 59.1083 8.22897 58.7129 8.83584H58.7145Z" fill="#2B1427"/>
<path id="Vector_21" d="M60.7001 6.82958C60.1994 6.99259 61.4455 12.9983 61.7891 13.3679C62.1342 13.7375 66.7786 13.7262 67.0606 13.4841C67.3409 13.242 66.3313 7.95777 64.4451 7.24599C62.3968 6.47449 60.9853 6.73758 60.7001 6.82958Z" fill="#4A3646"/>
<path id="Vector_22" d="M63.8711 14.7511C63.8711 14.7511 61.9589 16.6944 61.7693 17.0301C61.5797 17.3658 63.4514 27.6245 63.5713 28.1119C63.6913 28.5993 70.2251 27.3178 71.306 26.8643C72.3869 26.4107 72.9946 25.3406 72.9946 25.3406L63.8695 14.7511H63.8711Z" fill="#2B1427"/>
<path id="Vector_23" d="M63.8713 14.7511C63.8713 14.7511 63.0092 15.8438 62.9541 16.6186C62.899 17.3933 65.1094 25.82 65.2925 26.1687C65.4756 26.5173 72.8311 25.5908 72.9964 25.3407C73.1617 25.0905 68.7588 16.4604 68.1592 16.0181C67.5596 15.5759 66.1465 14.4187 65.5162 14.4493C64.8858 14.48 63.8713 14.7511 63.8713 14.7511Z" fill="#4A3646"/>
<g id="Vector_24" style="mix-blend-mode:soft-light" opacity="0.5">
<path d="M69.0548 17.3902C68.2899 16.9576 64.6665 21.0992 64.3958 21.5124C64.1268 21.9256 65.2904 26.1688 65.2904 26.1688C65.2904 26.1688 70.4111 23.0522 70.8633 22.3452C71.3138 21.6383 69.0532 17.3886 69.0532 17.3886L69.0548 17.3902Z" fill="#E7D6DA"/>
</g>
<g id="Vector_25" style="mix-blend-mode:soft-light" opacity="0.5">
<path d="M65.7315 8.56157C65.0865 7.88368 61.2508 9.46218 61.0709 9.63811C60.891 9.81404 61.4728 13.0098 61.7904 13.3697C62.1096 13.728 66.6876 11.5233 66.7799 11.2925C66.8723 11.0617 65.7315 8.56318 65.7315 8.56318V8.56157Z" fill="#E7D6DA"/>
</g>
<g id="Vector_26" style="mix-blend-mode:multiply" opacity="0.8">
<path d="M62.5391 16.3749C62.5391 16.3749 60.5766 16.7671 60.2607 16.5525C59.9447 16.3378 61.4274 13.8684 61.7985 13.6844C62.1696 13.502 65.3053 13.8006 67.0344 13.5536L66.2679 14.748C66.2679 14.748 64.6538 14.8675 63.8987 15.1257C63.1435 15.3839 62.5375 16.3733 62.5375 16.3733L62.5391 16.3749Z" fill="#522772"/>
</g>
<g id="Vector_27" style="mix-blend-mode:multiply" opacity="0.3">
<path d="M41.9679 23.1602C42.7198 25.5618 42.1996 27.9457 40.2388 27.6181C37.9021 27.2259 35.1326 27.3292 34.7064 25.0534C34.6351 24.6531 34.533 24.2351 34.4504 23.8106C34.0501 21.8189 33.8135 19.7465 36.6251 19.5416C36.6251 19.5416 39.9795 19.1058 41.4218 21.8415C41.6519 22.2676 41.8334 22.7163 41.9663 23.1602H41.9679Z" fill="#A47959"/>
</g>
<g id="Vector_28" style="mix-blend-mode:multiply" opacity="0.5">
<path d="M41.9679 23.1602L41.989 23.4701C41.989 23.4701 41.5044 21.9868 40.1465 21.0313C38.7917 20.0822 37.168 19.5157 35.7419 20.51C34.3337 21.5042 34.4504 23.8106 34.4504 23.8106C34.0501 21.8189 33.8135 19.7465 36.6251 19.5416C36.6251 19.5416 39.9795 19.1058 41.4218 21.8415C41.6519 22.2676 41.8334 22.7163 41.9663 23.1602H41.9679Z" fill="#A47959"/>
</g>
<g id="Vector_29" style="mix-blend-mode:multiply" opacity="0.3">
<path d="M52.9407 37.0567C52.9407 37.5296 52.931 38.0509 52.8824 38.5755C52.5939 42.2151 51.2084 46.631 49.9914 43.8081C49.4048 42.4314 48.7533 40.8028 48.3401 39.1291C48.3401 39.113 48.3352 39.0979 48.3255 39.0839C48.3255 39.0613 48.3093 39.0145 48.3077 38.9919C47.7924 36.834 47.6563 34.6131 48.5216 32.7538C49.1828 31.3141 52.9018 33.3235 52.9391 37.0583L52.9407 37.0567Z" fill="#A47959"/>
</g>
<g id="Vector_30" style="mix-blend-mode:multiply" opacity="0.5">
<path d="M52.9407 37.0567C52.9407 37.5296 52.931 38.0509 52.8824 38.5755L52.8111 38.6772C52.8111 38.6772 52.9407 37.0567 52.649 35.7397C52.3573 34.4226 49.9347 32.389 49.2217 33.1492C48.5329 33.8594 47.7583 36.6952 48.3077 38.9919C47.7924 36.834 47.6563 34.6131 48.5216 32.7538C49.1828 31.3141 52.9018 33.3235 52.9391 37.0583L52.9407 37.0567Z" fill="#A47959"/>
</g>
<path id="Vector_31" d="M45.8561 14.6932C45.0783 13.9846 42.7026 17.7421 44.6537 19.8322C46.5967 21.9127 47.5447 16.2281 45.8561 14.6932Z" fill="#2C1B04"/>
<g id="Vector_32" style="mix-blend-mode:multiply" opacity="0.5">
<path d="M44.0862 16.6316C43.5644 19.0074 46.0503 19.1365 46.5656 17.182C47.0825 15.2226 45.4539 14.585 45.2465 14.7577C45.0391 14.9304 44.2256 15.9973 44.0862 16.6316Z" fill="#967566"/>
</g>
<path id="Vector_33" d="M44.9289 20.0759C44.0992 18.9429 46.4765 18.4554 46.7018 18.0374C46.927 17.6194 46.1362 21.217 44.9289 20.0759Z" fill="#908E2E"/>
<path id="Vector_34" d="M20.1915 23.123L22.6028 23.1166C21.3518 24.5853 19.8982 26.0686 18.874 26.4753L20.1915 23.123Z" fill="#786B83"/>
<path id="Vector_35" d="M23.0533 19.2865L25.2329 19.7642C25.2329 19.7642 24.0969 21.3605 22.6968 23.0068L21.4928 22.2401L20.3163 22.8147L20.7733 21.6478L18.8076 21.2491L20.1008 16.8929L20.4865 16.7718L21.0617 15.797L20.2693 16.3264L21.2319 13.0741L26.1712 12.1816L24.4162 16.1795C23.742 16.3328 23.3402 16.9687 23.1376 17.0591C22.7616 17.2286 24.105 16.5426 24.165 16.7605L23.0566 19.2865H23.0533Z" fill="#786B83"/>
<path id="Vector_36" d="M30.7076 9.32962C30.3818 8.25146 16.2494 8.42416 14.9498 9.21825C13.7571 9.94779 14.4863 28.6461 14.9757 29.4467C15.4651 30.2472 28.5993 30.3134 29.4501 29.713C30.2992 29.1126 31.1111 10.6596 30.7092 9.32962H30.7076ZM28.7857 28.7333C28.0159 29.2772 16.1198 29.2159 15.6774 28.4912C15.2334 27.7665 14.5738 10.8323 15.6547 10.1721C16.8328 9.45229 29.6316 9.29573 29.9265 10.2722C30.2895 11.4763 29.5554 28.1893 28.7857 28.7333Z" fill="#786B83"/>
<g id="Vector_37" style="mix-blend-mode:soft-light" opacity="0.2">
<path d="M29.2588 38.0107C30.7464 36.1626 37.0194 37.7912 36.0179 48.2855C35.0164 58.7814 30.6119 57.3288 30.022 55.747C29.4322 54.1653 29.2588 38.009 29.2588 38.009V38.0107Z" fill="#BAFFFF"/>
</g>
<g id="Vector_38" style="mix-blend-mode:soft-light" opacity="0.2">
<path d="M45.3028 22.5341C49.837 16.2039 55.5298 23.2652 55.6319 38.9905C55.734 54.7159 49.495 60.9621 46.6656 60.4763C43.8363 59.9905 45.3028 22.5341 45.3028 22.5341Z" fill="#BAFFFF"/>
</g>
</g>
</g>
<defs>
<linearGradient id="paint0_linear_34_21780" x1="36.5521" y1="64.9341" x2="36.5521" y2="1.13549" gradientUnits="userSpaceOnUse">
<stop stop-color="#3E3900"/>
<stop offset="1" stop-color="#766E00"/>
</linearGradient>
<linearGradient id="paint1_linear_34_21780" x1="41.6864" y1="64.2254" x2="41.6864" y2="0.660811" gradientUnits="userSpaceOnUse">
<stop stop-color="#16002A"/>
<stop offset="1" stop-color="#361E3B"/>
</linearGradient>
<linearGradient id="paint2_linear_34_21780" x1="42.0201" y1="64.1964" x2="42.0201" y2="1.19349" gradientUnits="userSpaceOnUse">
<stop stop-color="#5E495F"/>
<stop offset="0.19" stop-color="#614D62"/>
<stop offset="0.4" stop-color="#6B5A6D"/>
<stop offset="0.63" stop-color="#7C7180"/>
<stop offset="0.85" stop-color="#948F99"/>
<stop offset="1" stop-color="#A7A8AE"/>
</linearGradient>
<linearGradient id="paint3_linear_34_21780" x1="18.675" y1="60.2824" x2="18.675" y2="32.5343" gradientUnits="userSpaceOnUse">
<stop stop-color="#574D00"/>
<stop offset="1" stop-color="#766E00"/>
</linearGradient>
<linearGradient id="paint4_linear_34_21780" x1="14.2028" y1="50.2224" x2="14.2028" y2="41.5696" gradientUnits="userSpaceOnUse">
<stop stop-color="#3E3900"/>
<stop offset="1" stop-color="#615500"/>
</linearGradient>
</defs>
</svg>
