<svg width="43" height="80" viewBox="0 0 43 80" fill="none" xmlns="http://www.w3.org/2000/svg">
<g id="Molotov">
<g id="layer1">
<path id="Vector" d="M31.7491 3.44312L30.2058 8.10179C30.2058 8.10179 27.1144 8.63782 27.3183 6.57097C27.5205 4.50413 31.7491 3.44312 31.7491 3.44312Z" fill="#D3777D"/>
<path id="Vector_2" d="M42.285 52.77V52.7778C42.285 58.1586 41.7308 64.1542 41.0029 68.518V68.5259C41.0029 68.5338 40.995 68.5417 40.995 68.5496C40.5793 71.0468 40.1047 73.0017 39.6476 74.0028C37.4194 78.9074 28.9877 79.9984 21.1438 79.9984C13.2998 79.9984 4.86815 78.9074 2.63202 74.0028C2.29756 73.2681 1.95513 72.0069 1.62863 70.3988C-0.215692 61.318 -1.41657 41.0373 3.29299 39.825C5.8158 39.1786 8.22393 37.353 9.79113 35.398C11.6848 33.0553 12.3697 30.5265 10.6066 29.6043C8.67147 28.5937 7.33362 26.9856 7.11224 25.0307C7.08039 24.8526 7.07083 24.6586 7.07083 24.4726C7.06287 23.3091 7.4467 22.0479 8.31949 20.7236L21.1422 20.0693L33.9649 20.7236C35.0989 22.4531 35.4094 24.0848 35.0989 25.5068C35.0989 25.5068 35.0989 25.5147 35.0909 25.5226C34.723 27.2521 33.4504 28.682 31.6794 29.6027C30.7652 30.0788 30.5119 30.9932 30.7413 32.092C30.7413 32.092 30.7413 32.1078 30.7492 32.1409C31.0917 33.6843 32.3817 35.5667 34.1369 37.1181C35.54 38.3541 37.2378 39.3725 38.993 39.825C41.417 40.4477 42.2739 46.1516 42.2819 52.7684L42.285 52.77Z" fill="url(#paint0_linear_34_21740)"/>
<path id="Vector_3" d="M37.3872 53.9507C37.2566 61.1177 36.2771 69.609 35.1829 72.0085C35.0364 72.3395 33.4039 75.1521 21.1434 75.1521C8.88297 75.1521 7.24251 72.3316 7.09598 72.0085C6.0273 69.6484 5.05576 61.4078 4.89968 54.3212C4.81049 49.9337 5.03028 45.9829 5.73265 44.1494C8.67911 43.1073 11.495 41.0625 13.626 38.4124C15.9433 35.5446 16.9228 32.5066 16.3686 29.8801C15.9529 27.9079 14.2949 25.089 12.492 24.1273L21.1434 24.9266L29.6085 25.0323C27.6336 26.0822 26.0903 28.2642 25.8211 30.4697C25.2175 35.3176 29.5432 39.5506 30.8811 40.7393C32.1457 41.8539 34.0967 43.276 36.5463 44.1494C37.2232 45.9356 37.4525 49.7162 37.3872 53.9507Z" fill="url(#paint1_linear_34_21740)"/>
<path id="Vector_4" d="M8.31956 20.7236C6.01336 25.6156 37.1216 28.1191 34.3854 21.4267C31.7559 14.9976 11.3568 14.2818 8.31956 20.7236Z" fill="url(#paint2_linear_34_21740)"/>
<path id="Vector_5" d="M15.4878 20.8024C14.4477 23.008 28.4761 24.1368 27.2418 21.1193C26.0568 18.2201 16.8575 17.8969 15.4878 20.8024Z" fill="url(#paint3_linear_34_21740)"/>
<g id="Vector_6" style="mix-blend-mode:multiply" opacity="0.8">
<path d="M8.65332 27.0849C8.65332 27.0849 9.19483 31.2186 19.6349 32.5949C30.0749 33.9728 32.3938 28.4612 32.3938 28.4612C32.3938 28.4612 29.8806 30.9868 19.3259 30.7582C10.6203 30.5691 8.65332 27.0849 8.65332 27.0849Z" fill="#C1B6C5"/>
</g>
<path id="Vector_7" d="M37.3869 53.9508C37.2563 61.1177 36.2768 69.609 35.1827 72.0085C35.0361 72.3396 33.4036 75.1521 21.1432 75.1521C8.88271 75.1521 7.24225 72.3317 7.09572 72.0085C6.02703 69.6484 5.0555 61.4078 4.89941 54.3213L4.90738 54.1116L37.3854 53.9492L37.3869 53.9508Z" fill="url(#paint4_linear_34_21740)"/>
<path id="Vector_8" d="M4.90662 54.1084C2.39656 44.7123 35.6629 47.3813 37.3926 52.576C39.9217 60.175 7.52499 63.9098 4.90662 54.1084Z" fill="url(#paint5_linear_34_21740)"/>
<g id="Vector_9" style="mix-blend-mode:soft-light">
<path d="M8.34484 76.4575C6.17083 74.5987 13.9893 75.778 22.1359 75.5809C30.2809 75.3854 34.6639 74.6823 35.7979 75.3917C36.9319 76.0996 31.3129 79.1628 21.8795 79.672C12.446 80.1828 8.57738 76.6545 8.34644 76.4575H8.34484Z" fill="white"/>
</g>
<g id="Vector_10" style="mix-blend-mode:soft-light" opacity="0.3">
<path d="M31.8858 37.766C29.5207 37.8574 36.2992 43.3122 37.1497 44.2692C38.0001 45.2262 38.2327 52.8046 39.7792 53.6843C41.3257 54.564 41.4419 46.5268 41.2094 43.8861C40.9769 41.2454 35.7863 37.6162 31.8858 37.766Z" fill="white"/>
</g>
<g id="Vector_11" style="mix-blend-mode:soft-light" opacity="0.3">
<path d="M3.24819 44.3228C1.70647 42.5492 -0.324198 52.4972 1.22548 58.775C2.77675 65.0512 4.02701 64.8147 4.24521 64.5514C4.46181 64.2866 4.25954 45.4879 3.24819 44.3244V44.3228Z" fill="white"/>
</g>
<g id="Vector_12" style="mix-blend-mode:color-burn" opacity="0.36">
<path d="M14.042 52.4436C5.79035 53.2287 11.5861 57.1449 19.9541 57.271C28.322 57.3971 31.192 55.4816 32.025 54.8415C32.858 54.2015 28.0831 51.1083 14.042 52.4436Z" fill="#CC7CB3"/>
</g>
<g id="Vector_13" style="mix-blend-mode:soft-light" opacity="0.3">
<path d="M23.5788 30.5297C21.1037 29.918 22.2282 26.768 26.3628 25.871C30.4974 24.9739 32.9358 24.7422 33.6318 24.8809C34.3278 25.0181 33.5537 27.7329 29.7647 29.4371C25.9757 31.1414 23.5788 30.5297 23.5788 30.5297Z" fill="white"/>
</g>
<path id="Vector_14" d="M26.207 25.0323C25.0412 25.7291 27.7153 26.8169 29.6488 26.2431C31.5823 25.6692 32.041 24.851 32.0235 24.5704C32.006 24.2913 28.295 23.7837 26.207 25.0323Z" fill="#FFFFEA"/>
<path id="Vector_15" d="M30.8813 40.7393C28.9748 40.8986 31.3925 45.819 34.5556 45.9624C37.717 46.1059 35.0923 40.3862 30.8813 40.7393Z" fill="#FFFFEA"/>
<g id="Vector_16" style="mix-blend-mode:color-burn" opacity="0.36">
<path d="M4.90101 57.345C5.35651 55.2041 10.6649 60.7835 16.2329 64.296C21.801 67.807 22.0829 63.6733 25.9244 62.3726C29.766 61.072 29.07 66.8122 24.3524 69.568C19.6349 72.3238 18.1665 74.7737 17.8559 71.176C17.5453 67.5784 19.0154 69.0335 19.0934 70.0283C19.1714 71.0231 21.4983 70.1812 21.9586 67.9615C22.4189 65.7417 16.2313 65.4406 15.4589 66.5095C14.6849 67.5784 12.6 70.9632 12.8294 73.2003C13.0587 75.4374 26.1044 75.7685 29.8153 73.7017C33.5279 71.6348 31.6772 66.5063 33.0787 63.9035C34.4803 61.3006 35.2336 65.8174 35.9392 62.9465C36.6448 60.0756 37.3503 55.3381 37.3503 55.3381C37.3503 55.3381 32.6248 59.5412 23.0353 59.6941C13.4457 59.847 4.89941 54.3228 4.89941 54.3228V57.3466L4.90101 57.345Z" fill="#CC7CB3"/>
</g>
<path id="Vector_17" d="M26.2852 59.5396C26.2852 59.5396 27.0926 58.2878 30.2079 57.3451C33.3232 56.4007 35.0943 56.6829 35.0943 56.6829C35.0943 56.6829 31.24 59.4182 26.2852 59.5396Z" fill="#FFFFEA"/>
<path id="Vector_18" d="M39.3462 12.7274C36.1226 14.7233 28.1226 18.384 25.2749 22.7621C25.2749 22.7621 24.1568 22.9071 22.7361 22.9481H22.7043C21.0718 22.997 19.0395 22.8992 17.7988 22.3096C17.7988 22.3096 17.9629 17.8811 18.5824 11.0389C19.194 4.19515 21.341 1.54498 22.2806 0.526537C23.1948 -0.474566 25.9374 -0.00633363 29.9367 1.83507H29.9446C30.0258 1.87606 30.1166 1.91547 30.2058 1.95646C34.3516 3.89561 29.161 3.89561 28.9731 6.13429C28.7851 8.38087 37.9606 10.4004 40.4324 11.2249C40.579 11.2738 40.6697 11.3385 40.7016 11.411C40.8481 11.6853 40.3098 12.1299 39.3462 12.7274Z" fill="url(#paint6_linear_34_21740)"/>
<g id="Vector_19" style="mix-blend-mode:multiply" opacity="0.2">
<path d="M21.3762 22.9591C21.3762 22.9591 26.7786 8.48489 27.3201 6.57097C27.8616 4.65705 27.8536 4.70119 29.2647 3.44311C30.6743 2.18503 25.8102 0.239582 23.5263 0.0109834C21.244 -0.219192 19.5764 3.24289 18.804 9.13758C18.03 15.0323 19.4028 22.7179 19.4028 22.7179L21.3762 22.9591Z" fill="#BE579D"/>
</g>
<g id="Vector_20" style="mix-blend-mode:multiply" opacity="0.3">
<path d="M21.3757 22.9591C21.3757 22.9591 25.781 9.44345 26.6554 7.08337C27.5314 4.72329 21.0396 10.1576 19.6333 12.6943C18.2285 15.2309 19.4007 22.7179 19.4007 22.7179L21.3741 22.9591H21.3757Z" fill="#972066"/>
</g>
<g id="Vector_21" style="mix-blend-mode:multiply" opacity="0.3">
<path d="M39.346 12.7274C36.1225 14.7233 28.1224 18.384 25.2747 22.762C23.7712 22.9591 22.892 22.8913 22.736 22.9481H22.728C22.7121 22.956 22.7041 22.956 22.7041 22.956V22.9481C22.8427 22.617 25.9611 14.7879 28.9729 13.4872C32.05 12.163 37.9508 13.544 39.3476 12.7274H39.346Z" fill="#972066"/>
</g>
<path id="Vector_22" d="M40.7019 11.4094C40.5713 11.6521 39.9103 12.5807 37.6168 12.3143C34.9889 12.0069 26.965 10.815 26.4267 8.56055C25.8883 6.29821 28.8332 3.86246 29.5276 3.4431C30.222 3.02374 29.3652 1.57647 29.9353 1.83503H29.9433C30.0245 1.87602 30.1153 1.91543 30.2045 1.95642C34.3503 3.89557 29.1597 3.89557 28.9718 6.13425C28.7838 8.38083 37.9593 10.4004 40.4311 11.2249C40.5776 11.2738 40.6684 11.3384 40.7003 11.4109L40.7019 11.4094Z" fill="#FFF5EA"/>
<path id="Vector_23" d="M26.286 55.8331C24.9147 56.6498 24.147 56.9651 22.7024 56.6403C21.2579 56.325 14.3679 57.6336 13.4219 53.1909C12.7036 49.8218 14.3934 40.1749 15.6007 34.6161V34.6082C15.9765 32.8551 16.311 31.5134 16.5069 30.9001C21.1018 31.772 25.281 30.9001 25.281 30.9001C25.1838 31.4094 25.2077 32.5161 25.2889 34.0028C25.6648 40.733 27.4024 55.171 26.2844 55.8347L26.286 55.8331Z" fill="url(#paint7_linear_34_21740)"/>
<g id="Vector_24" style="mix-blend-mode:multiply" opacity="0.3">
<path d="M25.2914 34.0012V34.0974C25.2914 34.0974 19.2392 31.7184 18.2693 39.5427C16.3103 55.3302 22.5982 56.0428 19.9528 55.9372C17.3073 55.8237 16.6225 55.428 16.8263 50.3137C17.0302 45.1915 18.2709 30.5501 15.6016 34.6066C15.9774 32.8535 16.3119 31.5118 16.5078 30.8986C21.1027 31.7704 25.2819 30.8986 25.2819 30.8986L25.2898 34.0012H25.2914Z" fill="#972066"/>
</g>
<g id="Vector_25" style="mix-blend-mode:soft-light" opacity="0.8">
<path d="M20.2228 34.914C19.6081 35.5998 17.7399 40.7362 17.7972 46.3503C17.8561 51.9643 19.9616 55.026 21.1514 55.1789C22.3411 55.3318 24.5342 46.1469 24.3399 39.8187C24.1456 33.4904 22.3316 32.5618 20.2228 34.9156V34.914Z" fill="#FFFFEA"/>
</g>
<g id="Vector_26" style="mix-blend-mode:multiply" opacity="0.3">
<path d="M25.2905 34.0012C25.2905 34.0012 24.8509 42.1803 24.7856 48.198C24.7203 54.2172 24.6837 56.1201 25.2905 56.3755C25.8973 56.6309 26.6554 55.8347 26.6554 55.8347C26.6554 55.8347 25.8415 38.3131 25.2905 33.9996V34.0012Z" fill="#972066"/>
</g>
<g id="Vector_27" style="mix-blend-mode:multiply">
<path d="M0.0820312 49.4954C0.0820312 49.4954 1.12842 43.4163 2.67492 41.4756C4.22141 39.5348 5.5736 39.4087 7.11372 38.3367C8.65544 37.2646 9.40878 35.8521 9.40878 35.8521C9.40878 35.8521 7.53101 38.0497 5.69464 38.8554C3.85828 39.661 3.39162 39.6105 2.37549 40.3641C1.35936 41.1177 0.40216 43.9681 0.0820312 49.4954Z" fill="#C1B6C5"/>
</g>
<path id="Vector_28" d="M3.39439 41.8067C1.59625 45.1016 5.01892 43.2177 5.79137 42.1551C6.56542 41.0925 4.09039 40.5312 3.39439 41.8067Z" fill="#FFFFEA"/>
<path id="Vector_29" d="M7.67946 21.8792C7.67946 21.8792 7.44374 20.6416 9.78817 18.6394C12.1342 16.6388 17.7978 16.3597 17.7978 16.3597C17.7978 16.3597 9.6942 17.1322 7.67946 21.8792Z" fill="#FFFFEA"/>
<g id="Vector_30" style="mix-blend-mode:multiply">
<path d="M42.2846 52.7699C42.2607 52.4388 41.6969 44.8683 40.4641 42.1456C39.2155 39.3662 35.6893 39.4072 33.5758 37.766C31.6009 36.2225 30.8411 32.587 30.752 32.1425C31.0944 33.6859 32.3845 35.5683 34.1396 37.1196C35.5427 38.3556 37.2405 39.374 38.9957 39.8265C41.4197 40.4492 42.2766 46.1532 42.2846 52.7699Z" fill="#C1B6C5"/>
</g>
<g id="Vector_31" style="mix-blend-mode:multiply" opacity="0.5">
<path d="M6.34473 69.3457C6.34473 69.3457 6.95154 75.0118 20.8334 75.0812C34.6754 75.1505 35.846 69.7824 35.846 69.7824C35.846 69.7824 35.7616 71.2076 34.7741 72.5303C33.7866 73.853 28.2186 75.3902 20.8477 75.3902C13.4768 75.3902 8.26869 73.3943 7.5472 72.9859C6.82572 72.5776 6.34632 69.3457 6.34632 69.3457H6.34473Z" fill="#AB2781"/>
</g>
<path id="Vector_32" d="M19.5592 56.6009C20.7919 56.5915 20.698 56.0728 22.1107 55.9798C23.525 55.8868 26.5877 56.6009 26.5877 56.6009C26.5877 56.6009 24.7975 57.2615 23.9009 57.1685C23.0058 57.0755 20.7521 56.5883 19.5576 56.6009H19.5592Z" fill="#FFFFEA"/>
<path id="Vector_33" d="M15.0885 55.573C15.2 55.7259 15.7033 55.7401 15.9995 55.8662C16.2958 55.9939 16.4439 56.1674 16.4439 56.1674C16.4439 56.1674 15.3099 56.057 15.0869 55.573H15.0885Z" fill="#FFFFEA"/>
<path id="Vector_34" d="M13.3095 52.4183C13.1263 52.7147 12.2249 52.7526 12.3666 53.2634C12.5084 53.7742 13.9051 54.4079 13.9051 54.4079C13.9051 54.4079 13.4528 53.3595 13.3095 52.4183Z" fill="#FFFFEA"/>
<g id="Vector_35" style="mix-blend-mode:multiply" opacity="0.5">
<path d="M25.2746 22.762C25.2746 22.762 26.8338 22.4893 27.3515 21.8792C27.8691 21.2675 33.2125 20.8245 33.6696 20.8686C34.1267 20.9112 32.3716 18.6126 30.3919 18.0088C30.3919 18.0088 27.6111 15.9876 25.9244 17.3277C24.2362 18.6678 22.7295 22.9496 22.7295 22.9496L25.2762 22.7636L25.2746 22.762Z" fill="#972066"/>
</g>
<g id="Vector_36" style="mix-blend-mode:multiply" opacity="0.5">
<path d="M34.1382 37.1196C34.1382 37.1196 20.5223 46.7066 10.9105 33.7316C11.5412 32.0952 12.3678 30.5265 10.6047 29.6058C8.66959 28.5953 7.33173 26.9872 7.11035 25.0323C7.62479 27.4728 12.7707 30.8182 21.3728 30.7693C30.3603 30.7126 34.8374 25.8001 35.0906 25.5257C34.7227 27.2552 33.4501 28.6851 31.6791 29.6058C29.4668 30.7614 31.1073 34.4458 34.1366 37.1196H34.1382Z" fill="#856E8B"/>
</g>
<path id="Vector_37" d="M27.4967 78.7025C24.6569 78.7025 27.5476 75.9593 30.4352 75.3917C33.3227 74.8242 34.8166 76.5142 34.6112 77.0471C34.4057 77.58 30.4352 78.7025 27.4967 78.7025Z" fill="#FFFFEA"/>
<g id="Vector_38" style="mix-blend-mode:multiply">
<path d="M40.9952 68.5496C40.5795 71.0468 40.1049 73.0017 39.6478 74.0028C37.4197 78.9074 28.988 79.9984 21.144 79.9984C13.3001 79.9984 4.86842 78.9074 2.6323 74.0028C2.29783 73.2681 1.95541 72.0069 1.62891 70.3988C1.62891 70.3988 4.09916 79.9921 21.3129 79.6957C41.3026 79.352 40.8423 69.1392 40.9968 68.548L40.9952 68.5496Z" fill="#785F80"/>
</g>
</g>
</g>
<defs>
<linearGradient id="paint0_linear_34_21740" x1="21.1422" y1="80" x2="21.1422" y2="20.0709" gradientUnits="userSpaceOnUse">
<stop stop-color="#E4E0E4"/>
<stop offset="0.31" stop-color="#B4B2B7"/>
<stop offset="0.61" stop-color="#8D8C93"/>
<stop offset="0.85" stop-color="#74757D"/>
<stop offset="0.99" stop-color="#6C6D75"/>
</linearGradient>
<linearGradient id="paint1_linear_34_21740" x1="21.1403" y1="75.1521" x2="21.1403" y2="24.1273" gradientUnits="userSpaceOnUse">
<stop stop-color="#A69AA6"/>
<stop offset="0.22" stop-color="#A196A2"/>
<stop offset="0.47" stop-color="#948A98"/>
<stop offset="0.73" stop-color="#7D7787"/>
<stop offset="0.99" stop-color="#605E70"/>
</linearGradient>
<linearGradient id="paint2_linear_34_21740" x1="8.41672" y1="22.863" x2="34.1458" y2="19.2104" gradientUnits="userSpaceOnUse">
<stop stop-color="#B2A8B2"/>
<stop offset="0.33" stop-color="#B5ACB5"/>
<stop offset="0.7" stop-color="#BEB9C0"/>
<stop offset="0.99" stop-color="#C9CACD"/>
</linearGradient>
<linearGradient id="paint3_linear_34_21740" x1="15.5324" y1="21.7673" x2="27.1336" y2="20.1203" gradientUnits="userSpaceOnUse">
<stop stop-color="#725F72"/>
<stop offset="0.54" stop-color="#706372"/>
<stop offset="0.99" stop-color="#6C6D75"/>
</linearGradient>
<linearGradient id="paint4_linear_34_21740" x1="21.1432" y1="75.1521" x2="21.1432" y2="53.9508" gradientUnits="userSpaceOnUse">
<stop stop-color="#FFBA00"/>
<stop offset="0.16" stop-color="#FDB500"/>
<stop offset="0.35" stop-color="#FAA800"/>
<stop offset="0.54" stop-color="#F59100"/>
<stop offset="0.73" stop-color="#EE7200"/>
<stop offset="0.93" stop-color="#E64B00"/>
<stop offset="0.99" stop-color="#E33E00"/>
</linearGradient>
<linearGradient id="paint5_linear_34_21740" x1="4.77125" y1="53.9382" x2="37.5327" y2="53.9382" gradientUnits="userSpaceOnUse">
<stop stop-color="#FFBA00"/>
<stop offset="0.99" stop-color="#FFBB00"/>
</linearGradient>
<linearGradient id="paint6_linear_34_21740" x1="29.2614" y1="22.9591" x2="29.2614" y2="0.0110085" gradientUnits="userSpaceOnUse">
<stop stop-color="#EF9792"/>
<stop offset="1" stop-color="#FFE3CE"/>
</linearGradient>
<linearGradient id="paint7_linear_34_21740" x1="19.9535" y1="56.7649" x2="19.9535" y2="30.8986" gradientUnits="userSpaceOnUse">
<stop stop-color="#F8C4BD"/>
<stop offset="1" stop-color="#956568"/>
</linearGradient>
</defs>
</svg>
