<svg width="86" height="93" viewBox="0 0 86 93" fill="none" xmlns="http://www.w3.org/2000/svg">
<g id="Til">
<g id="layer1">
<path id="Vector" d="M26.0446 68.3375C30.0693 70.1111 37.2393 70.2992 39.1383 70.3163L39.1389 70.3256C39.1389 70.3256 39.2233 70.3237 39.3756 70.3225C39.528 70.3212 39.6123 70.3194 39.6123 70.3194L39.6117 70.3101C41.5009 70.2412 48.6639 69.8544 52.6371 67.9679C52.6371 67.9679 54.2034 48.3891 53.8496 33.9487C53.8451 33.6012 53.8237 33.2469 53.8019 32.8984C52.8387 18.6175 39.7739 0.953399 38.4381 0.547898L38.3701 0.547279C37.0388 0.98881 24.2941 19.2575 23.8907 33.6087C23.887 33.8622 23.8815 34.1088 23.8835 34.3627C23.9393 48.8095 26.0424 68.3363 26.0424 68.3363L26.0446 68.3375Z" fill="url(#paint0_linear_34_21884)"/>
<path id="Vector_2" d="M26.045 68.3375C30.0697 70.1111 37.2398 70.2992 39.1388 70.3163L39.1394 70.3256C39.1394 70.3256 39.2237 70.3237 39.376 70.3225C39.5284 70.3212 39.6127 70.3194 39.6127 70.3194L39.6121 70.3101C41.5013 70.2412 48.6643 69.8544 52.6376 67.9679C52.6376 67.9679 54.2038 48.3891 53.8501 33.9487C53.8455 33.6012 53.8241 33.2469 53.8023 32.8983L53.6265 32.5025C53.6265 32.5025 41.2731 25.8786 24.0897 33.1257L23.8921 33.6122C23.8884 33.8658 23.8828 34.1123 23.8849 34.3662C23.9407 48.813 26.0438 68.3398 26.0438 68.3398L26.045 68.3375Z" fill="url(#paint1_linear_34_21884)"/>
<path id="Vector_3" d="M53.8465 33.9439C53.8465 33.9439 53.7768 32.6073 53.6204 32.5021C50.6507 30.5081 36.7842 27.6431 24.0881 33.1279C23.8513 33.229 24.1256 34.2526 23.8871 34.3618C23.8871 34.3618 23.5231 34.4876 23.0173 33.1698C22.5425 31.9323 23.7333 24.0091 26.1203 19.7201C26.1203 19.7201 38.2736 14.573 51.5617 19.3668C51.5617 19.3668 55.0401 27.0511 55.1226 32.9234C55.1348 33.8343 53.843 33.9448 53.843 33.9448L53.8465 33.9439Z" fill="url(#paint2_linear_34_21884)"/>
<path id="Vector_4" d="M53.702 48.8251C53.702 48.8251 56.7742 55.2044 57.1214 57.1265C57.4687 59.0485 56.7506 76.9316 56.2796 77.4744C55.8087 78.0172 47.7258 69.4347 47.7258 69.4347C47.7258 69.4347 51.7764 68.5473 52.3754 67.8703C52.9744 67.1933 53.7029 48.8286 53.7029 48.8286L53.702 48.8251Z" fill="url(#paint3_linear_34_21884)"/>
<path id="Vector_5" d="M24.4301 48.9646C24.4301 48.9646 21.3739 55.6949 21.0792 57.6268C20.7857 59.5565 22.0026 77.415 22.4889 77.9426C22.9752 78.4701 30.8164 69.6679 30.8164 69.6679C30.8164 69.6679 26.8442 68.8077 26.1572 68.2208C25.7579 67.8773 24.4323 48.9659 24.4323 48.9659L24.4301 48.9646Z" fill="url(#paint4_linear_34_21884)"/>
<path id="Vector_6" d="M36.4468 48.1123C36.8545 47.7769 39.1555 47.9577 39.3174 47.9708C39.4788 47.954 41.7743 47.7065 42.191 48.0303C42.6242 48.3666 44.8661 55.6433 44.79 57.8145C44.7139 59.9856 43.3773 79.3521 43.1689 79.6718C43.01 79.9161 40.8155 80.2101 39.7669 80.1517C38.7199 80.24 36.5178 80.0063 36.3521 79.768C36.1344 79.4549 34.2591 60.131 34.1215 57.9643C33.9839 55.7976 36.0233 48.4595 36.4468 48.1123Z" fill="url(#paint5_linear_34_21884)"/>
<path id="Vector_7" d="M55.1775 36.5467C55.1775 36.5467 50.0144 34 39.1255 34.1505C28.2389 34.3022 22.9806 36.7819 22.9806 36.7819C22.9806 36.7819 22.5491 43.4516 22.7576 45.0527C22.9683 46.655 24.378 48.0963 24.378 48.0963L24.4844 46.0735C24.4844 46.0735 28.732 43.8458 39.2734 43.6998C49.8147 43.5539 53.7931 45.83 53.7931 45.83L53.7236 48.1596C53.7236 48.1596 55.1208 46.4657 55.3795 45.4049C55.8077 43.6332 55.1749 36.5512 55.1749 36.5512L55.1775 36.5467Z" fill="url(#paint6_linear_34_21884)"/>
<g id="Vector_8" style="mix-blend-mode:multiply" opacity="0.3">
<path d="M48.6252 18.4591C49.9592 18.7596 41.6676 4.19916 39.6098 2.4075C37.552 0.615835 38.3772 16.5623 38.4317 16.9417C38.4875 17.3188 41.7697 16.9125 48.6252 18.4591Z" fill="#CBAAB1"/>
</g>
<g id="Vector_9" style="mix-blend-mode:soft-light" opacity="0.5">
<path d="M38.1905 2.5334C38.4871 2.33893 38.176 11.885 37.5633 13.9813C36.9507 16.0776 31.6214 16.646 30.2853 16.8796C28.9505 17.1109 32.3794 6.36188 38.1905 2.5334Z" fill="#F6F4EA"/>
</g>
<g id="Vector_10" style="mix-blend-mode:multiply" opacity="0.75">
<path d="M53.8471 33.9439C53.8471 33.9439 54.9354 33.6089 55.1295 33.1234C55.3237 32.6378 52.5164 27.8029 38.8621 28.4173C25.8834 28.9995 22.9357 32.9618 23.0201 33.1711C23.1022 33.379 23.5741 34.1272 23.8899 34.3631C23.8899 34.3631 27.1663 30.8254 38.502 30.6683C49.8355 30.5099 53.848 33.9474 53.848 33.9474L53.8471 33.9439Z" fill="#772781"/>
</g>
<g id="Vector_11" style="mix-blend-mode:multiply" opacity="0.75">
<path d="M53.7254 48.1574C53.7254 48.1574 55.38 46.0383 55.3112 45.6269C55.2425 45.2155 49.0845 42.2549 39.2266 42.3911C29.3688 42.5273 23.0566 45.344 22.8854 45.6406C22.7142 45.9372 24.3762 48.095 24.3762 48.095L24.5394 47.3953C24.5394 47.3953 28.6348 44.5298 39.0066 44.3841C49.3806 44.2396 53.6396 47.4716 53.6396 47.4716L53.7232 48.1561L53.7254 48.1574Z" fill="#772781"/>
</g>
<g id="Vector_12" style="mix-blend-mode:multiply" opacity="0.3">
<path d="M51.3325 35.3169C52.3834 35.5104 51.8127 44.3268 51.7195 44.3027C51.6251 44.2809 44.1962 42.9652 41.3569 42.9493C38.5164 42.9357 38.9506 35.6432 39.3682 34.8941C39.7858 34.1451 47.0173 34.5203 51.336 35.316L51.3325 35.3169Z" fill="#AB2781"/>
</g>
<g id="Vector_13" style="mix-blend-mode:multiply" opacity="0.3">
<path d="M51.338 29.9113C52.777 30.1535 50.7211 20.1804 49.4742 18.9669C48.2273 17.7534 39.6657 17.3388 38.8635 17.6159C38.0599 17.8953 39.3664 27.1889 40.347 28.2457C41.3253 29.3011 44.5813 28.7755 51.3402 29.9126L51.338 29.9113Z" fill="#AB2781"/>
</g>
<g id="Vector_14" style="mix-blend-mode:soft-light" opacity="0.5">
<path d="M36.5296 17.5797C37.6004 17.5943 37.0613 27.1336 36.6767 28.1603C36.2942 29.1883 28.1495 30.8429 26.773 30.9045C25.3965 30.9661 27.9805 21.1088 28.8549 19.8416C29.727 18.573 34.1979 17.5447 36.5296 17.5797Z" fill="#F6F4EA"/>
</g>
<g id="Vector_15" style="mix-blend-mode:soft-light" opacity="0.3">
<path d="M35 34.5869C36.7592 34.7998 36.4641 41.8873 35.8926 42.7021C35.3199 43.5191 25.7727 44.5334 24.7267 44.8928C23.6807 45.2523 24.3626 37.3505 25.1303 36.6698C26.0807 35.827 33.0726 34.3513 35.0013 34.5847L35 34.5869Z" fill="#F6F4EA"/>
</g>
<g id="Vector_16" style="mix-blend-mode:darken" opacity="0.5">
<path d="M44.7697 57.2468C43.97 56.0775 34.1331 56.8264 34.1289 57.3949C34.1248 57.9634 36.105 79.1913 36.3554 79.767C36.6036 80.3414 42.3703 80.308 43.1709 79.6731C43.9706 79.0347 44.7719 57.2481 44.7719 57.2481L44.7697 57.2468Z" fill="#B723CA"/>
</g>
<g id="Vector_17" style="mix-blend-mode:darken" opacity="0.5">
<path d="M30.8174 69.6657C30.8174 69.6657 26.4054 68.6557 26.1583 68.2186C25.9111 67.7815 24.5532 50.6771 24.5532 50.6771C24.5532 50.6771 21.0238 58.1034 21.0365 58.9106C21.0483 59.7142 21.9701 77.4143 22.4886 77.9426C23.0072 78.4709 30.8161 69.668 30.8161 69.668L30.8174 69.6657Z" fill="#B723CA"/>
</g>
<g id="Vector_18" style="mix-blend-mode:darken" opacity="0.5">
<path d="M53.6236 50.703C53.6236 50.703 57.1717 57.4375 57.1865 57.9217C57.2012 58.406 56.4852 76.986 56.2795 77.4709C56.0739 77.9557 47.7257 69.4312 47.7257 69.4312C47.7257 69.4312 51.7095 68.0621 52.0776 67.5224C52.4457 66.9827 53.6258 50.7043 53.6258 50.7043L53.6236 50.703Z" fill="#B723CA"/>
</g>
<g id="Vector_19" style="mix-blend-mode:multiply" opacity="0.5">
<path d="M52.0767 67.5225C52.9888 66.8746 54.0907 75.7141 54.0907 75.7141C54.0907 75.7141 50.0027 71.7275 47.7248 69.4312C47.7248 69.4312 50.9223 68.3426 52.0767 67.5225Z" fill="#772781"/>
</g>
<g id="Vector_20" style="mix-blend-mode:soft-light" opacity="0.3">
<path d="M41.4073 56.6171C44.6598 56.5712 41.6256 49.5388 40.6551 48.7376C39.6858 47.9342 36.9599 47.9125 36.28 48.4C35.6001 48.8876 34.5217 56.6675 34.5071 56.9297C34.4948 57.1931 37.9158 56.6648 41.4073 56.6171Z" fill="#F6F4EA"/>
</g>
<g id="Vector_21" style="mix-blend-mode:soft-light" opacity="0.5">
<path d="M40.0117 56.584C41.781 56.5322 37.1141 54.8308 36.3423 55.1375C35.5719 55.4419 34.8587 56.6566 35.1347 56.8635C35.412 57.0682 40.0104 56.5862 40.0104 56.5862L40.0117 56.584Z" fill="#F6F4EA"/>
</g>
<g id="Vector_22" style="mix-blend-mode:multiply" opacity="0.5">
<path d="M42.8015 49.4236C42.8015 49.4236 45.7442 53.9621 47.9538 59.5491C50.162 65.1383 48.6872 68.7022 48.0492 69.318C47.4112 69.9338 43.8961 69.9916 43.8961 69.9916C43.8961 69.9916 44.9254 57.6669 44.73 56.8672C44.5333 56.0698 42.8015 49.4236 42.8015 49.4236Z" fill="#772781"/>
</g>
<g id="Vector_23" style="mix-blend-mode:multiply" opacity="0.3">
<path d="M45.3147 17.7667C46.9198 17.6646 41.0069 5.04545 39.7989 4.3569C38.5908 3.66836 38.0011 16.2617 38.4334 16.9395C38.8635 17.6159 45.317 17.7679 45.317 17.7679L45.3147 17.7667Z" fill="#AB2781"/>
</g>
<g id="Vector_24" style="mix-blend-mode:soft-light" opacity="0.3">
<path d="M32.0387 44.9729C34.1439 44.6482 33.1857 67.5514 33.093 68.4999C33.0003 69.4483 28.0062 67.9119 26.8873 66.4304C25.7696 64.9466 24.9457 49.0752 24.9945 48.0895C25.0433 47.1037 31.1154 45.1148 32.0387 44.9729Z" fill="#F6F4EA"/>
</g>
<path id="Vector_25" d="M37.225 3.70983C39.055 2.93485 38.4764 6.07951 37.2434 7.03569C36.007 7.99282 34.7617 4.75252 37.225 3.70983Z" fill="#F6F4EA"/>
<path id="Vector_26" d="M54.7196 36.3508C54.7196 36.3508 48.6852 33.6549 38.8156 33.5643C28.9368 33.4743 22.9805 36.7819 22.9805 36.7819C22.9805 36.7819 38.3552 31.3955 54.7196 36.3508Z" fill="#B8A9BB"/>
<path id="Vector_27" d="M51.5654 19.3658C51.5654 19.3658 46.1794 17.1125 38.491 17.2198C30.8025 17.327 26.124 19.7192 26.124 19.7192C26.124 19.7192 37.2999 15.2298 51.5654 19.3658Z" fill="#D96866"/>
<g id="Vector_28" style="mix-blend-mode:soft-light">
<path d="M35.0627 17.9104C36.0164 18.1072 33.6011 20.581 32.2731 21.295C30.9451 22.009 29.5073 19.6892 29.6818 19.1656C29.8563 18.6419 33.719 17.6371 35.0614 17.9126L35.0627 17.9104Z" fill="#F6F4EA"/>
</g>
<g id="Vector_29" style="mix-blend-mode:soft-light">
<path d="M33.792 34.6032C34.8327 35.216 32.5093 37.3296 31.0235 37.2715C29.5376 37.2135 29.1224 36.2126 29.2741 35.5688C29.4258 34.9249 33.4788 34.4195 33.792 34.6032Z" fill="#F6F4EA"/>
</g>
<g id="Vector_30" style="mix-blend-mode:multiply" opacity="0.3">
<path d="M46.7828 52.5962C46.8292 55.302 47.6771 57.6082 48.8471 56.6632C50.2449 55.5347 52.0334 54.7803 51.7989 52.287C51.757 51.8496 51.7272 51.3864 51.6858 50.9224C51.5007 48.7402 51.1937 46.5322 49.3651 47.2069C49.3651 47.2069 47.1541 47.8125 46.8375 51.0698C46.7851 51.5777 46.7678 52.097 46.7805 52.5949L46.7828 52.5962Z" fill="#C9455B"/>
</g>
<g id="Vector_31" style="mix-blend-mode:multiply" opacity="0.5">
<path d="M46.783 52.5963L46.8362 52.9213C46.8362 52.9213 46.819 51.2464 47.4676 49.8398C48.1145 48.4412 49.0175 47.351 50.1379 47.9236C51.2509 48.5037 51.686 50.9225 51.686 50.9225C51.5009 48.7402 51.1939 46.5322 49.3653 47.2069C49.3653 47.2069 47.1543 47.8125 46.8377 51.0698C46.7853 51.5778 46.768 52.097 46.7808 52.595L46.783 52.5963Z" fill="#C9455B"/>
</g>
<g id="Vector_32" style="mix-blend-mode:multiply" opacity="0.3">
<path d="M49.3224 60.1457C49.5226 61.5963 50.1495 62.761 50.7514 62.1511C51.47 61.4213 52.4336 60.8597 52.1424 59.5409C52.0917 59.3094 52.0443 59.062 51.992 58.8178C51.7464 57.6621 51.4319 56.5023 50.4407 57.0242C50.4407 57.0242 49.227 57.5455 49.2564 59.3227C49.2594 59.6009 49.2817 59.8814 49.3211 60.1479L49.3224 60.1457Z" fill="#C9455B"/>
</g>
<g id="Vector_33" style="mix-blend-mode:multiply" opacity="0.5">
<path d="M49.3219 60.1457L49.3729 60.3149C49.3729 60.3149 49.2562 59.415 49.5345 58.6034C49.8115 57.794 50.2539 57.1307 50.9243 57.3394C51.5922 57.5525 51.9928 58.8156 51.9928 58.8156C51.7472 57.6599 51.4327 56.5001 50.4415 57.022C50.4415 57.022 49.2278 57.5433 49.2572 59.3205C49.2601 59.5987 49.2825 59.8792 49.3219 60.1457Z" fill="#C9455B"/>
</g>
<g id="Vector_34" style="mix-blend-mode:multiply" opacity="0.3">
<path d="M39.9561 13.0647C40.3737 14.4684 41.1732 15.5246 41.6752 14.8303C42.2742 13.9987 43.1435 13.2964 42.6538 12.0384C42.5666 11.8186 42.484 11.5806 42.393 11.3467C41.976 10.2408 41.4859 9.14308 40.5864 9.81011C40.5864 9.81011 39.4657 10.51 39.7655 12.2619C39.809 12.5368 39.8768 12.8108 39.9548 13.067L39.9561 13.0647Z" fill="#C9455B"/>
</g>
<g id="Vector_35" style="mix-blend-mode:multiply" opacity="0.5">
<path d="M39.9563 13.0647L40.0332 13.225C40.0332 13.225 39.781 12.3539 39.9319 11.5104C40.0816 10.6692 40.417 9.94409 41.1144 10.0494C41.8057 10.1601 42.3967 11.3458 42.3967 11.3458C41.9798 10.2398 41.4896 9.1421 40.5901 9.80912C40.5901 9.80912 39.4695 10.509 39.7692 12.2609C39.8127 12.5358 39.8805 12.8098 39.9586 13.066L39.9563 13.0647Z" fill="#C9455B"/>
</g>
<path id="Vector_36" d="M24.0134 51.8225C24.0134 51.8225 22.175 57.0616 21.8269 58.9984C21.4797 60.9387 21.4168 66.0224 21.4168 66.0224C21.4168 66.0224 20.8678 59.4853 21.0292 57.7588C21.1905 56.0323 24.0147 51.8203 24.0147 51.8203L24.0134 51.8225Z" fill="#63577C"/>
<path id="Vector_37" d="M57.0847 60.9497C57.0847 60.9497 56.8883 57.6489 56.1265 55.8681C55.3587 54.072 54.1017 51.6247 54.1017 51.6247C54.1017 51.6247 56.8732 55.44 57.0275 56.8105C57.1804 58.1833 57.0847 60.9497 57.0847 60.9497Z" fill="#63577C"/>
<g id="Vector_38" style="mix-blend-mode:soft-light">
<path d="M49.6747 18.2268C49.6747 18.2268 43.6158 7.71469 38.4359 0.546614C38.4359 0.546614 42.6667 3.5185 49.6747 18.2268Z" fill="#BAFFFF"/>
</g>
</g>
</g>
<defs>
<linearGradient id="paint0_linear_34_21884" x1="53.8775" y1="35.2289" x2="23.8951" y2="35.6476" gradientUnits="userSpaceOnUse">
<stop stop-color="#BECAFF"/>
<stop offset="0.03" stop-color="#BCC6FA"/>
<stop offset="0.06" stop-color="#B6BCED"/>
<stop offset="0.1" stop-color="#ACAAD7"/>
<stop offset="0.13" stop-color="#A195BB"/>
<stop offset="0.16" stop-color="#A497BB"/>
<stop offset="0.39" stop-color="#C5AEC1"/>
<stop offset="0.62" stop-color="#DDBEC5"/>
<stop offset="0.82" stop-color="#ECC8C8"/>
<stop offset="1" stop-color="#F1CCC9"/>
</linearGradient>
<linearGradient id="paint1_linear_34_21884" x1="54.0819" y1="49.8301" x2="24.0994" y2="50.2487" gradientUnits="userSpaceOnUse">
<stop stop-color="#366890"/>
<stop offset="0.15" stop-color="#3A300F"/>
<stop offset="1" stop-color="#726400"/>
</linearGradient>
<linearGradient id="paint2_linear_34_21884" x1="55.0219" y1="25.5199" x2="22.8304" y2="25.9694" gradientUnits="userSpaceOnUse">
<stop stop-color="#D93695"/>
<stop offset="0.17" stop-color="#860427"/>
<stop offset="0.34" stop-color="#910624"/>
<stop offset="0.64" stop-color="#AE0B1C"/>
<stop offset="1" stop-color="#DB1411"/>
</linearGradient>
<linearGradient id="paint3_linear_34_21884" x1="52.6582" y1="77.5488" x2="52.2574" y2="48.846" gradientUnits="userSpaceOnUse">
<stop stop-color="#161236"/>
<stop offset="1" stop-color="#361E47"/>
</linearGradient>
<linearGradient id="paint4_linear_34_21884" x1="26.1183" y1="77.9136" x2="25.7138" y2="48.943" gradientUnits="userSpaceOnUse">
<stop stop-color="#161236"/>
<stop offset="1" stop-color="#361E47"/>
</linearGradient>
<linearGradient id="paint5_linear_34_21884" x1="39.7704" y1="80.165" x2="39.3197" y2="47.8911" gradientUnits="userSpaceOnUse">
<stop stop-color="#161236"/>
<stop offset="1" stop-color="#361E47"/>
</linearGradient>
<linearGradient id="paint6_linear_34_21884" x1="55.5013" y1="41.0314" x2="22.6687" y2="41.4898" gradientUnits="userSpaceOnUse">
<stop stop-color="#886B90"/>
<stop offset="0.03" stop-color="#83678C"/>
<stop offset="0.07" stop-color="#765E81"/>
<stop offset="0.09" stop-color="#675375"/>
<stop offset="0.3" stop-color="#6B587A"/>
<stop offset="0.56" stop-color="#776789"/>
<stop offset="0.84" stop-color="#8B81A1"/>
<stop offset="1" stop-color="#9993B3"/>
</linearGradient>
</defs>
</svg>
