<svg width="45" height="80" viewBox="0 0 45 80" fill="none" xmlns="http://www.w3.org/2000/svg">
<g id="TNT">
<g id="layer1">
<path id="Vector" d="M29.5172 70.3393C29.5172 70.3393 33.7272 34.3667 33.6912 33.0398C33.6551 31.7157 13.0823 32.6589 13.0823 32.6589C12.2434 34.445 14.1168 71.9962 15.1554 74.4574C16.2093 76.9544 25.2102 81.265 29.5172 70.3379V70.3393Z" fill="url(#paint0_linear_34_21820)"/>
<path id="Vector_2" d="M33.6905 33.0164C33.8667 34.9702 15.9674 38.8202 13.0817 32.6603C11.6243 29.5486 33.4021 29.8099 33.6905 33.0164Z" fill="url(#paint1_linear_34_21820)"/>
<path id="Vector_3" d="M28.674 32.9834C28.7641 34.0628 19.7521 36.3027 18.0562 32.7799C17.1881 30.9759 28.5256 31.2055 28.674 32.9834Z" fill="url(#paint2_linear_34_21820)"/>
<path id="Vector_4" d="M27.4811 33.8262C27.4811 33.8262 23.5484 31.4681 18.1709 32.9861C18.1709 32.9861 18.1598 34.3254 21.7083 34.6595C25.4815 35.0142 27.4824 33.8262 27.4824 33.8262H27.4811Z" fill="#982E25"/>
<g id="Vector_5" style="mix-blend-mode:multiply" opacity="0.5">
<path d="M23.2806 31.5342C20.7804 31.6001 22.8632 32.0181 25.172 32.9215C27.4809 33.8249 26.7334 34.0834 26.7334 34.0834C26.7334 34.0834 28.3739 33.6819 28.672 32.9834C29.0825 32.0236 23.2792 31.5328 23.2792 31.5328L23.2806 31.5342Z" fill="#98316C"/>
</g>
<g id="Vector_6" style="mix-blend-mode:soft-light" opacity="0.3">
<path d="M19.4595 35.8957C17.1784 35.5615 19.8491 43.7208 20.4385 44.8964C21.0278 46.072 26.3762 39.164 27.5799 37.3339C28.7835 35.5038 23.8968 36.546 19.4595 35.897V35.8957Z" fill="#FFBA81"/>
</g>
<g id="Vector_7" style="mix-blend-mode:multiply" opacity="0.5">
<path d="M26.6464 75.028C26.6464 75.028 21.9026 78.8299 21.4672 76.1211C15.9579 41.8081 27.1595 38.3967 27.1595 38.3967L26.6464 75.028Z" fill="#98316C"/>
</g>
<g id="Vector_8" style="mix-blend-mode:multiply" opacity="0.5">
<path d="M16.2572 75.7526C16.2572 75.7526 18.2055 76.9241 19.3995 76.2806C20.5934 75.6371 22.2643 60.9591 20.2523 49.1698C18.8476 40.9405 16.6067 37.1483 16.6067 37.1483L16.2559 75.7526H16.2572Z" fill="#98316C"/>
</g>
<path id="Vector_9" d="M5.17235 74.3543C5.17235 74.3543 0.0333233 44.1085 4.30348e-05 42.9494C-0.0332373 41.7903 19.2471 37.3325 19.2471 37.3325C20.2677 38.8326 20.9639 74.8424 19.9238 77.1235C18.8838 79.4033 9.82189 83.4031 5.17374 74.3557L5.17235 74.3543Z" fill="url(#paint3_linear_34_21820)"/>
<path id="Vector_10" d="M2.24997e-05 42.9494C-0.0221644 45.4051 16.3712 47.073 19.1833 38.0833C20.6504 33.3931 0.0360761 38.8904 2.24997e-05 42.9494Z" fill="url(#paint4_linear_34_21820)"/>
<path id="Vector_11" d="M4.19044 41.9525C4.17796 43.3412 13.4479 44.2845 15.0384 39.2011C15.8677 36.5487 4.21124 39.6576 4.19044 41.9525Z" fill="url(#paint5_linear_34_21820)"/>
<path id="Vector_12" d="M5.41211 42.761C5.41211 42.761 9.18804 38.8106 14.9275 39.505C14.9275 39.505 15.4128 40.8841 11.2944 42.5561C8.24787 43.7936 5.4135 42.761 5.4135 42.761H5.41211Z" fill="#982E25"/>
<g id="Vector_13" style="mix-blend-mode:multiply" opacity="0.3">
<path d="M5.62068 75.1627C5.11732 74.3804 1.5175 45.1988 2.26215 44.8867C3.00818 44.5732 5.34058 45.3473 8.28865 44.7753C11.2367 44.202 12.371 78.57 11.8122 79.1447C11.2534 79.7195 6.84651 77.0712 5.62068 75.1641V75.1627Z" fill="#AB2781"/>
</g>
<g id="Vector_14" style="mix-blend-mode:soft-light" opacity="0.3">
<path d="M10.017 44.7891C8.36265 45.2415 11.5437 71.8738 15.0118 75.7692C18.4799 79.6632 19.4297 50.0155 19.61 45.7874C19.7903 41.5593 19.3049 40.9611 18.7475 40.5555C18.19 40.1499 16.5621 42.9975 10.017 44.7891Z" fill="#FFBA81"/>
</g>
<g id="Vector_15" style="mix-blend-mode:soft-light">
<path d="M9.43042 44.8097C7.40033 45.0614 14.0439 41.0148 15.8826 40.121C17.7214 39.2273 18.6255 39.4211 18.6255 39.4211C18.6255 39.4211 17.7533 43.7744 9.43042 44.8084V44.8097Z" fill="#FFBA81"/>
</g>
<g id="Vector_16" style="mix-blend-mode:soft-light">
<path d="M5.17197 74.3543C5.17197 74.3543 4.37186 66.1593 3.73537 59.2926C3.09889 52.4258 0.357422 45.4409 0.357422 45.4409L5.17336 74.3543H5.17197Z" fill="#BAFFFF"/>
</g>
<g id="Vector_17" style="mix-blend-mode:multiply" opacity="0.5">
<path d="M9.77022 38.7653C9.07827 38.9633 10.5911 38.7708 12.5048 39.6068C14.4184 40.4428 13.6723 41.2733 13.6723 41.2733C13.6723 41.2733 15.0424 40.6257 15.3585 38.9262C15.6747 37.2267 10.476 38.5632 9.77161 38.7653H9.77022Z" fill="#98316C"/>
</g>
<path id="Vector_18" d="M15.0359 41.9924C14.4118 41.7091 11.3958 44.4192 12.9018 45.3267C14.4077 46.2356 16.3934 42.607 15.0359 41.9924Z" fill="#730011"/>
<g id="Vector_19" style="mix-blend-mode:multiply" opacity="0.5">
<path d="M12.952 43.4911C11.9951 45.0284 14.3955 44.6461 15.2622 43.366C16.1288 42.0859 14.6645 42.002 14.4315 42.145C14.1986 42.288 13.2071 43.0828 12.952 43.4911Z" fill="#967566"/>
</g>
<path id="Vector_20" d="M13.1234 45.4257C12.5285 44.8895 14.9372 44.1552 15.2353 43.8596C15.5334 43.564 14.0885 45.8974 13.1234 45.4257Z" fill="#B13125"/>
<g id="Vector_21" style="mix-blend-mode:multiply" opacity="0.3">
<path d="M9.21318 51.5637C9.20625 53.3374 8.51707 54.8554 7.51866 54.2477C6.32473 53.5203 4.80909 53.0432 4.97549 51.4083C5.006 51.1223 5.02402 50.8171 5.05453 50.5132C5.18627 49.0818 5.41784 47.6326 6.96815 48.0574C6.96815 48.0574 8.84155 48.4342 9.14662 50.5654C9.19654 50.8982 9.21734 51.2378 9.21318 51.5637Z" fill="#9F315B"/>
</g>
<g id="Vector_22" style="mix-blend-mode:multiply" opacity="0.5">
<path d="M9.21334 51.5637L9.17174 51.7768C9.17174 51.7768 9.16619 50.6782 8.60181 49.7638C8.03882 48.8536 7.26367 48.1468 6.32627 48.5332C5.39442 48.9237 5.05469 50.5118 5.05469 50.5118C5.18642 49.0805 5.418 47.6312 6.9683 48.0561C6.9683 48.0561 8.84171 48.4328 9.14678 50.5641C9.1967 50.8968 9.2175 51.2365 9.21334 51.5623V51.5637Z" fill="#9F315B"/>
</g>
<path id="Vector_23" d="M38.0644 74.5165C38.0644 74.5165 44.3669 44.4481 44.4445 43.2917C44.5222 42.134 25.4262 37.0781 25.4262 37.0781C24.3488 38.5452 22.2646 74.5124 23.2159 76.8237C24.1671 79.1351 33.0696 83.4141 38.0644 74.5165Z" fill="url(#paint6_linear_34_21820)"/>
<path id="Vector_24" d="M44.4447 43.2903C44.3726 45.7447 27.9238 46.9011 25.4597 37.8289C24.1742 33.0961 44.564 39.2313 44.4447 43.2903Z" fill="url(#paint7_linear_34_21820)"/>
<path id="Vector_25" d="M40.294 42.1642C40.2524 43.553 30.952 44.2061 29.5583 39.076C28.8317 36.3989 40.362 39.8694 40.294 42.1642Z" fill="url(#paint8_linear_34_21820)"/>
<path id="Vector_26" d="M39.0436 42.9342C39.0436 42.9342 35.4229 38.8684 29.6599 39.384C29.6599 39.384 29.0817 40.8223 33.1738 42.5465C36.5337 43.9627 39.0436 42.9342 39.0436 42.9342Z" fill="#982E25"/>
<g id="Vector_27" style="mix-blend-mode:multiply" opacity="0.3">
<path d="M24.6899 72.1818C24.2877 71.354 25.411 41.133 26.1903 40.8965C26.9696 40.66 29.1231 44.7699 32.1225 44.4962C35.1233 44.224 30.9743 76.2449 30.3461 76.7591C29.718 77.2734 25.6703 74.2003 24.6885 72.1818H24.6899Z" fill="#AB2781"/>
</g>
<g id="Vector_28" style="mix-blend-mode:soft-light" opacity="0.3">
<path d="M33.6018 45.0834C31.9017 45.3666 30.9421 71.1162 33.904 75.3346C36.866 79.5531 41.614 53.0363 42.3184 48.8522C43.0228 44.6695 43.9006 44.741 43.3959 44.2804C42.8911 43.8211 40.3285 43.96 33.6018 45.082V45.0834Z" fill="#FFBA81"/>
</g>
<g id="Vector_29" style="mix-blend-mode:soft-light">
<path d="M34.9788 44.8579C33.6365 44.7025 37.5719 43.4856 40.4839 43.1996C43.3959 42.9136 43.5027 43.8802 43.3959 44.2817C43.2891 44.6832 39.4841 45.3803 34.9788 44.8579Z" fill="#FFBA81"/>
</g>
<g id="Vector_30" style="mix-blend-mode:soft-light">
<path d="M23.0218 75.2824C23.0218 75.2824 23.2242 70.4067 24.3904 59.0437C25.5566 47.6807 24.6594 41.3846 24.6594 41.3846C24.6594 41.3846 22.4962 63.3708 23.0218 75.2824Z" fill="#BAFFFF"/>
</g>
<g id="Vector_31" style="mix-blend-mode:multiply" opacity="0.5">
<path d="M37.5417 43.2546C37.5417 43.2546 39.3347 43.1364 40.0683 42.5176C40.8032 41.8989 39.8436 40.7769 38.1976 40.1472C36.5517 39.5174 34.1 39.4748 33.8088 39.5917C33.5176 39.7099 34.4023 40.3493 36.5475 41.6569C38.6927 42.9645 37.5417 43.2546 37.5417 43.2546Z" fill="#98316C"/>
</g>
<path id="Vector_32" d="M29.986 42.8187C30.2717 42.2454 27.1253 39.6604 26.1837 41.0546C25.2436 42.4488 29.3648 44.0672 29.986 42.8187Z" fill="#730011"/>
<g id="Vector_33" style="mix-blend-mode:multiply" opacity="0.5">
<path d="M28.2262 41.0147C26.4748 40.2255 27.0087 42.3636 28.4702 43.0841C29.9318 43.8046 29.9581 42.486 29.789 42.2825C29.6198 42.079 28.6921 41.2251 28.2262 41.0147Z" fill="#967566"/>
</g>
<path id="Vector_34" d="M26.0848 41.2581C26.6533 40.6999 27.5796 42.8297 27.9208 43.0841C28.2619 43.3385 25.6036 42.1464 26.0848 41.2581Z" fill="#B13125"/>
<g id="Vector_35" style="mix-blend-mode:multiply" opacity="0.3">
<path d="M37.3391 60.2537C37.1879 61.2066 36.6707 61.9752 36.1562 61.5806C35.5405 61.1089 34.7196 60.7501 34.9512 59.8824C34.9928 59.7312 35.0275 59.5689 35.0705 59.4067C35.2632 58.6463 35.5156 57.8832 36.3587 58.2173C36.3587 58.2173 37.389 58.5473 37.3848 59.7119C37.3848 59.8948 37.3696 60.0777 37.3391 60.2523V60.2537Z" fill="#9F315B"/>
</g>
<g id="Vector_36" style="mix-blend-mode:multiply" opacity="0.5">
<path d="M37.3393 60.2537L37.2977 60.3651C37.2977 60.3651 37.3851 59.7752 37.1424 59.2458C36.8984 58.7192 36.5184 58.2861 35.954 58.4304C35.3938 58.5776 35.0693 59.4067 35.0693 59.4067C35.2621 58.6463 35.5145 57.8832 36.3576 58.2173C36.3576 58.2173 37.3879 58.5473 37.3837 59.7119C37.3837 59.8948 37.3685 60.0777 37.3379 60.2523L37.3393 60.2537Z" fill="#9F315B"/>
</g>
<path id="Vector_37" d="M42.2908 58.667C42.2908 58.9997 40.5741 68.0719 40.3217 68.5436C40.0624 69.0152 37.3847 74.8617 28.9038 72.7579C21.2188 70.8508 18.1376 72.8404 12.4827 72.2904C6.83339 71.7349 3.76467 69.2984 3.53032 68.5326C3.30845 67.8162 1.88156 60.3156 1.79559 58.8787V58.8677C1.79004 58.8402 1.79004 58.8127 1.79004 58.7893C1.79004 58.7618 1.79004 58.7288 1.79559 58.6945C1.79004 58.6835 1.79559 58.678 1.79559 58.667C1.80113 58.645 1.80807 58.623 1.81361 58.601C1.919 58.1788 2.20327 57.8956 2.31975 57.7966C2.35719 57.7636 2.37522 57.7471 2.37522 57.7471C2.37522 57.7471 2.47367 58.5405 2.56103 58.6683C2.64146 58.7907 6.67947 63.0711 14.4033 61.6878C24.3069 59.9113 28.9745 61.6823 34.7098 61.6878C40.4395 61.6878 41.3284 58.8512 41.3284 58.8512L41.6057 57.4858C41.6057 57.4858 42.2908 58.3301 42.2908 58.6683V58.667Z" fill="url(#paint9_linear_34_21820)"/>
<path id="Vector_38" d="M42.2912 58.667C41.3718 60.3486 38.9937 62.4482 34.3386 62.9033C29.6766 63.3529 27.0654 61.5545 22.3244 61.6878C17.5889 61.8157 13.1002 63.8026 8.71552 62.5211C4.39324 61.2602 1.9624 59.4507 1.79461 58.8787V58.8677C1.79461 58.8677 1.78906 58.8567 1.78906 58.8512V58.7907C1.78906 58.7632 1.78906 58.7302 1.79461 58.6958C1.80016 58.6628 1.80709 58.6298 1.81264 58.601C1.89861 58.2517 2.19536 57.9231 2.31877 57.7966C2.35621 57.7636 2.37424 57.7471 2.37424 57.7471C2.37424 57.7471 2.47269 58.5405 2.56006 58.6683C2.64048 58.7907 6.67849 63.0711 14.4023 61.6878C24.306 59.9113 28.9735 61.6823 34.7088 61.6878C40.4386 61.6878 41.3274 58.8512 41.3274 58.8512L41.6048 57.4858C41.6048 57.4858 42.2898 58.3301 42.2898 58.6683L42.2912 58.667Z" fill="url(#paint10_linear_34_21820)"/>
<g id="Vector_39" style="mix-blend-mode:soft-light">
<path d="M22.9844 61.6823C22.2661 61.5654 14.7641 62.5911 14.6074 63.2924C14.4521 63.9936 15.2245 71.5822 15.384 71.9356C15.5434 72.289 19.6438 72.4361 21.6226 71.1326C23.0648 70.1825 23.5473 61.7744 22.9844 61.6823Z" fill="#C9B5B6"/>
</g>
<g id="Vector_40" style="mix-blend-mode:multiply" opacity="0.5">
<path d="M24.3976 61.7511C22.6782 61.6383 23.5864 70.9182 24.2562 71.5493C24.9246 72.1804 28.5161 72.8995 30.0151 72.9944C31.5141 73.0893 31.6209 63.9222 31.6264 63.4244C31.6319 62.9267 25.1797 61.8033 24.3976 61.7511Z" fill="#772781"/>
</g>
<g id="Vector_41" style="mix-blend-mode:multiply" opacity="0.5">
<path d="M3.02308 60.2303C1.89293 59.7284 3.66095 66.7657 5.05456 68.7443C6.44817 70.7229 8.49907 71.5383 9.21321 71.7115C9.92874 71.8848 9.37822 65.5185 8.59891 63.6252C7.8196 61.7318 3.02308 60.2303 3.02308 60.2303Z" fill="#772781"/>
</g>
<g id="Vector_42" style="mix-blend-mode:soft-light">
<path d="M36.2269 62.9363C34.5684 63.1907 34.1038 69.6985 35.4267 71.3966C37.0505 73.4825 40.2066 62.5403 40.4257 61.465C40.6448 60.3898 38.8088 62.5389 36.2269 62.9363Z" fill="#C9B5B6"/>
</g>
<g id="Vector_43" style="mix-blend-mode:soft-light">
<path d="M14.8472 63.0326C14.4409 63.1549 15.1107 69.627 15.8886 70.2169C16.6665 70.8068 17.0035 62.8167 16.8828 62.6022C16.7622 62.3877 15.3824 62.8703 14.8458 63.0326H14.8472Z" fill="#C9B5B6"/>
</g>
<g id="Vector_44" style="mix-blend-mode:soft-light">
<path d="M27.4332 62.1883C26.4778 61.9064 28.8462 62.0632 33.9936 61.6782C39.1409 61.2932 41.4997 59.7766 41.4997 59.7766C41.4997 59.7766 39.0744 62.5183 34.6925 62.8662C30.3106 63.214 27.4346 62.1897 27.4346 62.1897L27.4332 62.1883Z" fill="#C9B5CC"/>
</g>
<g id="Vector_45" style="mix-blend-mode:soft-light">
<path d="M9.56646 62.5829C8.60133 62.4028 10.2612 62.2584 15.1076 61.5654C19.9555 60.8724 22.2657 61.5654 22.2657 61.5654C22.2657 61.5654 21.6846 61.5311 17.7326 62.1883C13.7806 62.8456 12.4202 63.1151 9.56646 62.5829Z" fill="#C9B5CC"/>
</g>
<g id="Vector_46" style="mix-blend-mode:multiply">
<path d="M4.3584 69.4634C4.3584 69.4634 6.211 71.4007 11.1614 73.4014C16.1119 75.402 20.2178 72.4389 20.3468 72.3605C20.4758 72.2821 20.4383 71.981 20.4383 71.981C20.4383 71.981 16.7886 72.4636 12.8726 72.1831C7.59768 71.8036 4.3584 69.4648 4.3584 69.4648V69.4634Z" fill="#98316C"/>
</g>
<g id="Vector_47" style="mix-blend-mode:multiply">
<path d="M22.9746 72.3605C22.9746 72.3605 26.408 75.0569 30.9314 74.3557C35.4547 73.6544 38.7619 71.1808 38.7619 71.1808L38.8867 70.5813C38.8867 70.5813 36.284 72.4155 32.4248 72.7194C28.5643 73.0233 26.3318 71.7157 22.9843 71.9205L22.9746 72.3605Z" fill="#98316C"/>
</g>
<g id="Vector_48" style="mix-blend-mode:soft-light">
<path d="M36.2266 62.9363C35.163 62.8469 35.0687 67.9385 34.9106 69.4634C34.7525 70.9883 36.4803 65.1321 36.5968 64.5546C36.7133 63.9758 37.0378 63.005 36.2266 62.9377V62.9363Z" fill="#C9B5B6"/>
</g>
<path id="Vector_49" d="M24.002 34.1755L21.879 33.9913C21.8873 33.8964 22.7068 24.4543 21.8887 19.4122C21.2439 15.4371 19.4204 2.28937 23.0202 0L24.1711 1.77924C22.6805 2.72662 22.6014 10.4857 23.9937 19.0753C24.8534 24.3773 24.038 33.7768 24.0034 34.1741L24.002 34.1755Z" fill="#2B1427"/>
<path id="Vector_50" d="M10.9939 42.9837L8.86116 42.959C8.86532 42.684 8.39108 42.1216 7.93209 41.5785C6.70072 40.1182 4.8398 37.9114 4.39606 33.5375C3.55989 25.2958 11.6415 20.5892 16.4699 17.7773C16.9233 17.5133 17.3532 17.2631 17.7484 17.0252C21.0251 15.0617 20.4926 6.34422 20.0114 3.15011L22.1192 2.83661C22.3189 4.15385 23.9219 15.7946 18.8508 18.8347C18.4473 19.0767 18.0105 19.3311 17.5487 19.6006C12.877 22.3217 5.81602 26.4329 6.51629 33.3258C6.89485 37.052 8.43823 38.8849 9.5656 40.2214C10.3366 41.1371 11.0036 41.9264 10.9911 42.9837H10.9939Z" fill="url(#paint11_linear_34_21820)"/>
<path id="Vector_51" d="M35.3436 42.4406L33.3301 41.7476C33.3509 41.6871 35.424 35.6866 35.216 30.5057C34.9123 22.9404 29.8759 20.0447 26.1998 17.9313C24.6578 17.0444 23.4403 16.3446 22.7719 15.4261C20.6143 12.4602 22.9175 4.92661 23.4001 3.44574L25.4288 4.09749C24.3652 7.35623 23.3752 12.6417 24.5011 14.19C24.9033 14.7413 26.0528 15.4027 27.2689 16.1026C31.1419 18.3301 36.9951 21.6947 37.3473 30.4218C37.572 36.0084 35.4351 42.1821 35.345 42.442L35.3436 42.4406Z" fill="url(#paint12_linear_34_21820)"/>
<path id="Vector_52" d="M20.4382 10.252C20.4382 10.252 19.5965 10.4582 19.2595 10.7759C18.9226 11.0935 20.2926 11.2434 19.6492 13.8504C19.0058 16.4573 17.2253 16.5 17.0505 16.9001C16.8744 17.2988 17.8576 18.0785 21.9414 18.4992C26.0251 18.92 27.8264 17.0582 28.0247 16.6265C28.223 16.1961 26.0293 15.4591 24.9907 13.618C23.952 11.7769 25.7991 10.725 25.4025 10.252C25.0059 9.779 23.4071 9.81062 23.4071 9.81062C23.4071 9.81062 23.3682 10.7594 23.3682 10.8831C23.3682 11.0069 22.8607 11.462 21.6917 11.374C20.5214 11.286 20.502 10.725 20.502 10.725L20.4396 10.252H20.4382Z" fill="url(#paint13_linear_34_21820)"/>
<path id="Vector_53" d="M20.4385 10.252C20.4385 10.252 19.2501 10.5284 19.2598 10.7759C19.2695 11.0234 20.9335 12.408 22.7362 12.3296C24.5389 12.2512 25.3612 10.6727 25.4028 10.252C25.4444 9.83123 23.4074 9.81061 23.4074 9.81061L23.3977 10.6191C23.3977 10.6191 23.2479 11.0137 21.9195 10.9354C20.591 10.857 20.4399 10.252 20.4399 10.252H20.4385Z" fill="url(#paint14_linear_34_21820)"/>
<g id="Vector_54" style="mix-blend-mode:multiply" opacity="0.5">
<path d="M19.5732 11.1512C19.5732 11.1512 19.9601 12.815 20.7935 14.2876C21.6269 15.7602 23.4712 13.7953 24.0841 12.9855C24.6956 12.1756 24.8038 11.3355 24.8038 11.3355C24.8038 11.3355 24.1729 12.2155 22.5338 12.331C20.8961 12.4465 19.5732 11.1498 19.5732 11.1498V11.1512Z" fill="#98316C"/>
</g>
<g id="Vector_55" style="mix-blend-mode:soft-light">
<path d="M27.7637 17.16C27.1591 17.237 31.064 18.8086 34.0509 24.3484C37.0378 29.8883 35.5582 39.0361 35.5582 39.0361C35.5582 39.0361 38.6588 31.1863 35.7898 25.1198C32.9208 19.0533 27.9981 17.1297 27.7637 17.16Z" fill="#C9B5B6"/>
</g>
<path id="Vector_56" d="M34.7878 23.2828C33.9488 22.6847 35.0263 26.5883 36.0011 28.3098C36.976 30.0313 36.5378 24.5313 34.7878 23.2828Z" fill="#AE9AB6"/>
<g id="Vector_57" style="mix-blend-mode:soft-light">
<path d="M5.74815 29.7756C5.35156 30.3861 7.01557 24.6235 10.2202 22.4345C13.4248 20.2455 16.0997 19.4727 16.2592 19.2541C16.4186 19.0355 10.2978 22.7906 5.74953 29.7756H5.74815Z" fill="#C9B5B6"/>
</g>
<path id="Vector_58" d="M9.93377 24.3498C9.57185 24.4886 10.017 22.8606 10.6978 22.6063C11.3801 22.3519 11.9653 22.4921 11.9597 22.4976C11.9542 22.5031 10.555 24.1091 9.93377 24.3498Z" fill="#AE9AB6"/>
<g id="Vector_59" style="mix-blend-mode:soft-light">
<path d="M23.5941 19.6927C23.1393 18.8704 22.4903 23.5578 22.5333 26.7932C22.5763 30.0272 23.6218 32.4416 23.7868 32.6286C23.9519 32.8156 24.9031 22.0604 23.5941 19.6927Z" fill="#C9B5B6"/>
</g>
<g id="Vector_60" style="mix-blend-mode:multiply">
<path d="M15.624 61.4967C15.624 61.4967 18.2171 60.8216 20.2042 58.6669C22.1899 56.5123 23.1786 57.9643 24.8718 59.5098C26.5635 61.0539 30.933 61.4774 30.933 61.4774C30.933 61.4774 28.9569 61.3853 25.7593 60.9921C22.5616 60.5988 19.1032 61.0141 15.6254 61.4967H15.624Z" fill="#98316C"/>
</g>
<g id="Vector_61" style="mix-blend-mode:soft-light">
<path d="M23.9399 18.1885C23.4185 18.1623 23.2327 14.586 23.9399 13.981C24.6471 13.376 27.505 16.324 27.5425 16.7351C27.5785 17.1462 26.5995 18.3246 23.9399 18.1885Z" fill="#C9B5B6"/>
</g>
<g id="Vector_62" style="mix-blend-mode:soft-light">
<path d="M22.9334 12.2869C21.5842 12.4781 22.4689 10.9656 23.7044 10.6218C24.9386 10.2781 25.2256 10.7662 25.1133 10.9284C25.001 11.0907 24.431 12.0752 22.9334 12.2869Z" fill="#C9B5B6"/>
</g>
</g>
</g>
<defs>
<linearGradient id="paint0_linear_34_21820" x1="23.2827" y1="77.4329" x2="23.2827" y2="32.3344" gradientUnits="userSpaceOnUse">
<stop stop-color="#72001B"/>
<stop offset="1" stop-color="#8B1F11"/>
</linearGradient>
<linearGradient id="paint1_linear_34_21820" x1="23.3529" y1="36.0097" x2="23.3529" y2="30.463" gradientUnits="userSpaceOnUse">
<stop stop-color="#AE3B3C"/>
<stop offset="1" stop-color="#BD4A11"/>
</linearGradient>
<linearGradient id="paint2_linear_34_21820" x1="23.3422" y1="34.6843" x2="23.3422" y2="31.5342" gradientUnits="userSpaceOnUse">
<stop stop-color="#72001B"/>
<stop offset="1" stop-color="#8B1F11"/>
</linearGradient>
<linearGradient id="paint3_linear_34_21820" x1="0.638919" y1="59.2692" x2="20.5251" y2="58.4918" gradientUnits="userSpaceOnUse">
<stop stop-color="#72001B"/>
<stop offset="1" stop-color="#9A2911"/>
</linearGradient>
<linearGradient id="paint4_linear_34_21820" x1="9.80611" y1="44.785" x2="9.48895" y2="36.5342" gradientUnits="userSpaceOnUse">
<stop stop-color="#C53B3C"/>
<stop offset="1" stop-color="#E06111"/>
</linearGradient>
<linearGradient id="paint5_linear_34_21820" x1="9.73578" y1="42.9892" x2="9.55642" y2="38.3231" gradientUnits="userSpaceOnUse">
<stop stop-color="#72001B"/>
<stop offset="1" stop-color="#8B1F11"/>
</linearGradient>
<linearGradient id="paint6_linear_34_21820" x1="23.3733" y1="58.1977" x2="43.2335" y2="59.6686" gradientUnits="userSpaceOnUse">
<stop stop-color="#72001B"/>
<stop offset="1" stop-color="#9A2911"/>
</linearGradient>
<linearGradient id="paint7_linear_34_21820" x1="34.5933" y1="44.8224" x2="35.1913" y2="36.6103" gradientUnits="userSpaceOnUse">
<stop stop-color="#C53B3C"/>
<stop offset="1" stop-color="#E06111"/>
</linearGradient>
<linearGradient id="paint8_linear_34_21820" x1="34.7242" y1="43.0314" x2="35.0622" y2="38.3891" gradientUnits="userSpaceOnUse">
<stop stop-color="#72001B"/>
<stop offset="1" stop-color="#8B1F11"/>
</linearGradient>
<linearGradient id="paint9_linear_34_21820" x1="1.78865" y1="65.3494" x2="42.2908" y2="65.3494" gradientUnits="userSpaceOnUse">
<stop stop-color="#545193"/>
<stop offset="0.18" stop-color="#1A1338"/>
<stop offset="0.32" stop-color="#1F173C"/>
<stop offset="0.5" stop-color="#2F2548"/>
<stop offset="0.7" stop-color="#4A3C5D"/>
<stop offset="0.8" stop-color="#5B4B6A"/>
<stop offset="1" stop-color="#361E47"/>
</linearGradient>
<linearGradient id="paint10_linear_34_21820" x1="1.78906" y1="60.2303" x2="42.2912" y2="60.2303" gradientUnits="userSpaceOnUse">
<stop stop-color="#504C68"/>
<stop offset="1" stop-color="#8B7C94"/>
</linearGradient>
<linearGradient id="paint11_linear_34_21820" x1="13.4275" y1="42.9837" x2="13.4275" y2="2.83661" gradientUnits="userSpaceOnUse">
<stop stop-color="#181140"/>
<stop offset="1" stop-color="#492954"/>
</linearGradient>
<linearGradient id="paint12_linear_34_21820" x1="29.6138" y1="42.4406" x2="29.6138" y2="3.44574" gradientUnits="userSpaceOnUse">
<stop stop-color="#181140"/>
<stop offset="1" stop-color="#492954"/>
</linearGradient>
<linearGradient id="paint13_linear_34_21820" x1="17.0297" y1="14.1859" x2="28.0358" y2="14.1859" gradientUnits="userSpaceOnUse">
<stop offset="0.02" stop-color="#545193"/>
<stop offset="0.37" stop-color="#1A1338"/>
<stop offset="0.41" stop-color="#1F173C"/>
<stop offset="0.47" stop-color="#2F2548"/>
<stop offset="0.54" stop-color="#4A3C5D"/>
<stop offset="0.58" stop-color="#5B4B6A"/>
</linearGradient>
<linearGradient id="paint14_linear_34_21820" x1="19.2584" y1="11.0715" x2="25.4028" y2="11.0715" gradientUnits="userSpaceOnUse">
<stop stop-color="#504C68"/>
<stop offset="1" stop-color="#8B7C94"/>
</linearGradient>
</defs>
</svg>
