<svg width="68" height="70" viewBox="0 0 68 70" fill="none" xmlns="http://www.w3.org/2000/svg">
<g id="Vest">
<g id="layer1">
<path id="Vector" d="M43.4805 4.15886C41.9907 4.27843 37.2998 15.1185 30.5978 13.0799C23.9447 11.0569 29.1805 25.9645 39.0248 25.8489C48.9279 25.7312 47.3715 3.84522 43.4805 4.15886Z" fill="url(#paint0_linear_34_21685)"/>
<g id="Vector_2" style="mix-blend-mode:multiply" opacity="0.8">
<path d="M41.4375 6.42687C40.9651 7.13452 39.0754 10.5728 36.4075 13.1995C33.7475 15.8203 30.3033 14.9402 29.6251 15.295C28.9488 15.6498 32.5949 23.2712 38.8833 22.2577C45.1776 21.2423 46.7066 12.7114 45.8068 8.47924C44.9032 4.22945 42.8292 4.34706 41.4355 6.42687H41.4375Z" fill="#AB6363"/>
</g>
<path id="Vector_3" d="M65.3683 64.5341C64.643 64.8733 63.8118 65.2045 62.8925 65.5299C62.7239 65.5868 62.5494 65.6456 62.3691 65.7024C61.7203 65.9181 61.0303 66.12 60.2991 66.3219C59.3347 63.7187 58.2879 60.2687 58.0566 62.7582C57.9115 64.3244 57.8939 65.7887 58.0409 66.8903C54.5791 67.6823 50.4646 68.3154 45.956 68.6879C45.0465 68.7604 44.1193 68.8251 43.1725 68.8741C29.8821 69.6131 13.7905 68.0116 0.998047 61.6291C0.998047 61.6291 5.15963 34.1054 5.32429 32.6333C5.49091 31.1592 13.5475 28.8971 15.198 20.5406C16.8309 12.2821 12.8104 1.44593 13.571 0.432489C13.571 0.432489 29.7018 3.10821 31.221 3.62963C32.7441 4.15694 27.1574 20.1936 36.0706 20.8268C41.5455 21.211 43.2627 15.3538 43.6684 10.4591C43.6743 10.4513 43.6743 10.4356 43.6684 10.414C43.9292 7.28351 43.6528 4.56466 43.4783 4.1589C43.3372 3.82958 44.8073 3.31011 46.9166 2.74165C51.4388 1.53806 58.9132 0.148254 59.7051 0.148254H59.711C60.0619 0.148254 59.909 1.8223 59.5993 4.31767C59.3543 6.25047 59.0112 8.67724 58.7152 11.2099C58.0899 11.7489 57.2529 12.4781 56.7765 12.8878C56.1277 13.4406 57.3803 13.5857 58.4996 13.2446C58.4329 13.8895 58.3722 14.5403 58.3251 15.1774C58.331 15.1931 58.3251 15.2068 58.3251 15.2225C58.0527 18.6842 58.0291 21.9461 58.6407 24.02C60.5304 30.4398 63.0277 29.8968 63.1885 31.5806C63.3433 33.2704 67.4245 63.5717 65.3702 64.5322L65.3683 64.5341Z" fill="url(#paint1_linear_34_21685)"/>
<path id="Vector_4" d="M13.5708 0.428573C11.5439 -0.788733 14.2941 8.28912 11.6302 20.4916C10.0914 27.5347 5.41229 31.6159 5.328 32.6313C5.23195 33.7879 13.2924 33.335 17.8696 23.8926C22.3958 14.554 15.7231 1.72037 13.5708 0.430533V0.428573Z" fill="url(#paint2_linear_34_21685)"/>
<path id="Vector_5" d="M16.5761 4.86061C16.5761 4.86061 19.7928 12.2193 20.6436 23.473C21.5081 34.9247 33.7772 30.2947 34.2594 28.1031C34.7416 25.9175 33.885 6.79537 33.0538 3.49825C33.0538 3.49825 14.2317 0.432443 13.9023 0.430483C13.573 0.428522 15.5156 2.22802 16.5761 4.86061Z" fill="url(#paint3_linear_34_21685)"/>
<path id="Vector_6" d="M59.5997 4.31765C59.437 6.20536 59.1861 8.56352 58.8783 11.0667C58.8273 11.1118 58.7725 11.1589 58.7156 11.2118C58.0903 11.7509 57.2533 12.4801 56.7769 12.8898C56.1281 13.4426 57.3807 13.5876 58.5 13.2465C58.5313 13.2387 58.5666 13.2308 58.598 13.2171C58.5137 13.8699 58.4216 14.5285 58.3236 15.1793C58.3294 15.195 58.3236 15.2087 58.3236 15.2244C57.5473 20.6464 56.5868 25.8744 55.7243 27.7229C53.7307 32.0138 44.6999 30.8063 43.9335 29.3303C43.1709 27.8503 43.5512 23.8338 43.6688 16.9337C43.71 14.603 43.7022 12.3821 43.6688 10.4591C43.6747 10.4512 43.6747 10.4355 43.6688 10.414C43.6159 6.71894 43.4787 4.15888 43.4787 4.15888C44.4392 3.67666 45.6252 3.19444 46.917 2.74163C52.1802 0.908805 59.2017 -0.46532 59.7055 0.148234H59.7114C59.8584 0.348178 59.8016 1.95949 59.5997 4.31765Z" fill="url(#paint4_linear_34_21685)"/>
<path id="Vector_7" d="M12.8475 8.44788C12.8475 8.44788 12.873 2.68283 13.9511 2.38683C15.0292 2.09084 19.969 11.9979 17.9578 20.5778C15.9231 29.2597 7.2373 32.2295 6.48849 32.3843C5.74164 32.5372 6.69628 30.5456 6.69628 30.5456C6.69628 30.5456 5.41036 32.0491 5.30451 32.8175C5.1967 33.5859 15.9996 31.659 18.6341 21.9715C21.994 9.60834 14.7372 1.70271 13.5708 0.428556C11.9909 -1.29841 12.8475 8.44788 12.8475 8.44788Z" fill="#453C00"/>
<path id="Vector_8" d="M13.5713 0.428528C13.5713 0.428528 16.8429 2.83374 19.45 10.7511C22.0924 18.7783 21.9591 25.9429 23.2313 28.3109C24.5114 30.6887 27.4694 30.8925 27.4694 30.8925C27.4694 30.8925 23.9351 31.3022 21.8023 28.6422C19.6813 25.9959 21.0417 19.2448 18.5072 11.3451C16.0098 3.55314 13.5713 0.428528 13.5713 0.428528Z" fill="url(#paint5_linear_34_21685)"/>
<path id="Vector_9" d="M40.583 7.47949C40.583 7.47949 42.1179 5.34283 42.8353 5.44672C43.9409 5.60746 42.7099 16.3201 42.8079 22.6674C42.9078 29.0754 42.6569 30.128 44.8642 30.6201C47.0773 31.114 50.4312 30.622 50.4312 30.622C50.4312 30.622 45.6816 31.2023 44.3859 28.8304C43.7272 27.6248 44.3996 13.3641 44.4937 8.96731C44.5858 4.5999 44.0369 4.00399 43.7135 3.84521C43.3901 3.68447 41.3789 5.82505 40.585 7.48145L40.583 7.47949Z" fill="url(#paint6_linear_34_21685)"/>
<g id="Vector_10" style="mix-blend-mode:multiply" opacity="0.8">
<path d="M43.1709 29.3146L44.3862 28.8304C44.3862 28.8304 46.5915 30.8377 50.0474 30.5358C53.5092 30.2339 55.0284 28.748 55.0284 28.748C55.0284 28.748 54.4658 31.6492 49.2986 32.7312C44.1393 33.8113 43.1729 29.3146 43.1729 29.3146H43.1709Z" fill="#928687"/>
</g>
<g id="Vector_11" style="mix-blend-mode:multiply" opacity="0.8">
<path d="M21.0254 27.0799C21.6487 27.1191 22.8249 29.8046 26.5552 30.4966C30.2973 31.1905 33.371 29.1558 33.371 29.1558C33.371 29.1558 31.9909 32.8959 27.1139 33.2586C22.2486 33.6192 21.0254 27.0799 21.0254 27.0799Z" fill="#928687"/>
</g>
<path id="Vector_12" d="M9.25235 34.27C9.25235 34.27 14.9782 34.47 15.5192 34.8463C16.0602 35.2227 16.8287 45.855 16.0877 54.876C15.4075 63.1639 15.1625 66.6276 15.1625 66.6276C15.1625 66.6276 13.2277 67.2823 12.1378 67.1412C10.1462 66.8824 8.00368 65.2751 6.81577 64.6595C4.98295 63.7108 9.25039 34.27 9.25039 34.27H9.25235Z" fill="#666000"/>
<path id="Vector_13" d="M5.24587 33.6173C5.89471 34.6876 11.6323 33.8663 13.075 34.8013C14.5217 35.7383 14.0885 50.7419 13.1064 59.1278C12.5085 64.2244 12.14 67.1413 12.14 67.1413C12.14 67.1413 3.10725 66.4493 1 61.6291L5.24587 33.6173Z" fill="url(#paint7_linear_34_21685)"/>
<path id="Vector_14" d="M63.3967 33.8408C63.3967 33.8408 65.4882 34.274 65.7058 34.6974C65.9234 35.1208 67.9033 62.6151 67.6974 63.3188C67.4916 64.0225 65.3687 64.5341 65.3687 64.5341C65.3687 64.5341 61.4992 45.3787 63.3986 33.8408H63.3967Z" fill="url(#paint8_linear_34_21685)"/>
<g id="Vector_15" style="mix-blend-mode:multiply" opacity="0.8">
<path d="M13.9512 2.38681C13.1632 2.1457 13.5454 10.9374 12.4104 17.7315C11.2833 24.4826 17.2561 25.4666 18.3499 18.1353C19.4496 10.7511 15.239 2.78082 13.9512 2.38485V2.38681Z" fill="#AB6363"/>
</g>
<path id="Vector_16" d="M34.2734 19.2037C34.2734 19.2037 36.7453 20.0172 39.2132 19.237C41.6831 18.4568 42.7417 15.3812 42.7417 15.3812C42.7417 15.3812 41.2029 22.5478 34.3087 20.6347L34.2734 19.2056V19.2037Z" fill="#726800"/>
<path id="Vector_17" d="M8.21165 28.4031C6.29258 31.5865 6.37687 32.2745 9.57205 31.0592C10.364 30.7573 11.4833 29.7772 12.3497 29.2126C14.5667 27.7719 16.6426 26.4565 16.6426 26.4565C16.6426 26.4565 15.2469 29.3753 10.6757 32.0785C6.11615 34.7758 5.32618 33.2154 5.32422 32.6293C5.32422 32.0432 8.20968 28.4011 8.20968 28.4011L8.21165 28.4031Z" fill="#666100"/>
<path id="Vector_18" d="M37.6543 19.3997C37.6543 19.3997 38.705 19.9015 38.8265 20.5053C38.9481 21.109 40.8671 46.6333 40.181 69.0662C40.181 69.0662 39.1127 24.118 38.2522 20.715C38.0346 19.8545 37.6523 19.4017 37.6523 19.4017L37.6543 19.3997Z" fill="url(#paint9_linear_34_21685)"/>
<g id="Vector_19" style="mix-blend-mode:soft-light" opacity="0.3">
<path d="M44.3938 3.84133C44.3938 3.84133 43.9743 8.75564 45.3387 10.0337C47.8693 12.4056 57.5843 9.7534 58.5212 8.44788C59.4602 7.14041 59.7131 0.148247 59.7131 0.148247C59.7131 0.148247 54.4753 -0.363374 44.3938 3.84329V3.84133Z" fill="#BAFFFF"/>
</g>
<g id="Vector_20" style="mix-blend-mode:soft-light" opacity="0.3">
<path d="M13.5713 0.428528C13.5713 0.428528 16.3352 2.60831 19.0835 9.68672C21.6279 16.2417 31.578 10.7845 32.662 10.1572C33.748 9.53186 33.009 4.8469 32.468 4.08045C31.9269 3.31399 13.5713 0.428528 13.5713 0.428528Z" fill="#BAFFFF"/>
</g>
<path id="Vector_21" d="M17.8663 67.8704C16.8568 66.8119 18.4721 37.9945 19.1523 36.5204C19.8325 35.0443 34.7048 36.0637 35.4398 36.1636C36.1749 36.2636 36.1887 69.0779 35.8515 69.7248C35.5143 70.3717 19.8285 69.9306 17.8663 67.8724V67.8704Z" fill="url(#paint10_linear_34_21685)"/>
<path id="Vector_22" d="M18.2461 38.0729C18.2461 38.0729 19.63 35.8304 20.3004 35.5227C20.9728 35.2149 33.9378 35.2659 34.6807 35.3737C35.4256 35.4835 35.6099 36.8674 35.6099 36.8674C35.6099 36.8674 26.1321 35.2639 18.2461 38.0729Z" fill="#666000"/>
<path id="Vector_23" d="M62.8922 65.528C62.8667 66.363 62.8393 66.8668 62.8079 66.9472C62.7824 67.004 62.5707 67.0981 62.212 67.2059C61.865 67.3138 61.3848 67.4431 60.7928 67.5803C60.6379 67.2138 60.4654 66.7825 60.3008 66.3199C59.3363 63.7167 58.2896 60.2667 58.0583 62.7562C57.9132 64.3224 57.8956 65.7867 58.0426 66.8884C58.1053 67.3784 58.2014 67.7881 58.3229 68.1116C55.2728 68.7153 51.2053 69.3759 47.9003 69.6562C47.8709 69.6562 47.8415 69.6641 47.8043 69.6641C46.9712 69.7366 46.193 69.7797 45.4931 69.7934C44.4836 69.815 44.1935 68.9309 43.2016 68.9956C43.1899 68.9956 43.184 68.9525 43.1742 68.8741C42.9684 66.8237 43.2761 38.2591 43.9779 36.7106C44.6993 35.1149 60.9437 36.1107 61.6043 36.3989C62.8118 36.9321 63.0373 59.6002 62.8902 65.528H62.8922Z" fill="url(#paint11_linear_34_21685)"/>
<path id="Vector_24" d="M44.3564 37.1026C44.3564 37.1026 44.5152 35.9656 45.315 35.6383C46.1069 35.3148 60.1305 35.5344 60.8499 35.6461C61.5614 35.7578 61.7986 37.0673 61.7986 37.0673C61.7986 37.0673 52.3248 35.9519 44.3564 37.1006V37.1026Z" fill="#666000"/>
<path id="Vector_25" d="M43.9779 36.7125C44.2072 35.0796 45.9401 36.1675 46.2557 36.7282C45.3873 55.3151 45.995 68.9113 45.8675 69.5935C45.7401 70.2737 43.2016 68.9956 43.2016 68.9956C43.2016 68.9956 42.886 44.475 43.9759 36.7125H43.9779Z" fill="url(#paint12_linear_34_21685)"/>
<g id="Vector_26" style="mix-blend-mode:multiply" opacity="0.8">
<path d="M44.1784 36.1538C43.6962 36.2871 41.7968 48.4641 42.1653 57.4929C42.5318 66.4414 43.3649 68.7957 44.251 68.8133C45.137 68.8309 45.829 47.2958 46.0426 42.0247C46.2563 36.7262 45.2428 35.8598 44.1784 36.1538Z" fill="#7C6363"/>
</g>
<g id="Vector_27" style="mix-blend-mode:multiply" opacity="0.8">
<path d="M20.3009 35.5226C20.3009 35.5226 18.2681 36.6988 17.8545 37.8808C17.4409 39.0609 16.2354 55.5915 16.2452 60.1158C16.253 64.6204 17.6801 67.1765 17.6801 67.1765C17.6801 67.1765 18.3681 39.3373 19.1404 37.3182C19.5717 36.1891 20.3009 35.5226 20.3009 35.5226Z" fill="#7C6363"/>
</g>
<g id="Vector_28" style="mix-blend-mode:multiply" opacity="0.5">
<path d="M5.28902 34.8915C6.19269 33.5663 12.3361 36.0872 13.1319 43.0813C13.9219 50.0284 8.84488 61.7016 6.86701 63.4795C4.89305 65.2535 1.48028 64.687 1.65278 58.9965C1.82528 53.2726 5.28902 34.8915 5.28902 34.8915Z" fill="#928687"/>
</g>
<g id="Vector_29" style="mix-blend-mode:multiply" opacity="0.5">
<path d="M64.4925 64.9183C64.4925 64.9183 62.4381 51.3182 62.9909 45.6629C63.5476 39.9763 66.3449 41.8914 66.3841 42.4109C66.4233 42.9304 67.9444 62.4778 67.6955 63.3207C67.4465 64.1617 64.4905 64.9203 64.4905 64.9203L64.4925 64.9183Z" fill="#928687"/>
</g>
<path id="Vector_30" d="M34.8023 29.9222C34.1006 30.079 34.2888 34.3602 34.3966 34.5229C34.5063 34.6856 42.4688 34.9032 43.0686 34.7111C43.6665 34.519 43.5489 30.9357 43.1235 30.1653C42.6962 29.3969 36.247 29.5988 34.8023 29.9203V29.9222Z" fill="url(#paint13_linear_34_21685)"/>
<path id="Vector_31" d="M35.967 29.9085C35.3593 30.0634 35.5142 34.3465 35.6083 34.5092C35.7024 34.6719 42.6004 34.9032 43.1199 34.713C43.6394 34.5229 43.5413 30.9376 43.1748 30.1673C42.8063 29.3969 37.2196 29.589 35.969 29.9085H35.967Z" fill="#221733"/>
<g id="Vector_32" style="mix-blend-mode:multiply" opacity="0.8">
<path d="M34.3828 30.9671C34.8846 29.542 35.6099 34.5072 35.6099 34.5072C35.6099 34.5072 40.1714 35.0306 43.1216 34.7111C43.1216 34.7111 42.5923 35.3678 39.4304 35.75C36.2705 36.1323 33.8457 35.7736 33.7163 35.3149C33.587 34.8562 34.3848 30.9671 34.3848 30.9671H34.3828Z" fill="#928687"/>
</g>
<g id="Vector_33" style="mix-blend-mode:multiply" opacity="0.2">
<path d="M35.8711 68.7604C35.8711 68.7604 35.9162 51.5613 35.9397 44.5162C35.9632 37.4221 42.7731 39.0942 43.1279 46.9293C43.4807 54.7036 43.2024 68.9976 43.2024 68.9976C43.2024 68.9976 37.4138 69.2857 35.8691 68.7624L35.8711 68.7604Z" fill="#72454A"/>
</g>
<g id="Vector_34" style="mix-blend-mode:multiply" opacity="0.2">
<path d="M18.2307 67.6039C17.8798 67.2432 17.3937 55.768 18.9187 54.092C32.7443 38.8982 33.7714 66.0553 34.3752 68.433C34.977 70.8049 20.1615 69.5915 18.2287 67.6039H18.2307Z" fill="#72484A"/>
</g>
<g id="Vector_35" style="mix-blend-mode:multiply" opacity="0.2">
<path d="M62.3688 65.7024C62.3218 66.4885 62.2512 67.0354 62.21 67.2079C62.1689 67.3725 61.6769 67.5744 60.8849 67.7901C60.8516 67.7254 60.8242 67.6528 60.7908 67.5823C60.636 67.2157 60.4635 66.7845 60.2988 66.3219C59.3344 63.7187 58.2876 60.2686 58.0563 62.7581C57.9112 64.3244 57.8936 65.7887 58.0406 66.8903C58.1033 67.3804 58.1994 67.7901 58.3209 68.1135C58.3543 68.186 58.3817 68.2566 58.417 68.3213C55.1454 68.9329 50.5427 69.5131 47.8984 69.6582C47.869 69.6582 47.8396 69.666 47.8023 69.666C46.7869 69.717 46.0753 69.7013 45.8636 69.5935C45.7401 69.5288 45.7833 69.2054 45.9558 68.6879C47.1456 65.2045 52.7676 49.2384 59.7872 49.2384C63.7684 49.2384 62.6276 62.0348 62.3669 65.7024H62.3688Z" fill="#72484A"/>
</g>
<g id="Vector_36" style="mix-blend-mode:soft-light" opacity="0.5">
<path d="M13.5083 34.517C13.0732 34.8013 14.1101 37.377 14.0513 39.3784C13.9925 41.3759 15.2824 39.4882 15.7097 38.4061C16.137 37.3241 15.8449 34.9581 15.5195 34.8463C15.1941 34.7346 13.5083 34.517 13.5083 34.517Z" fill="#BAFFFF"/>
</g>
<g id="Vector_37" style="mix-blend-mode:soft-light" opacity="0.5">
<path d="M17.9467 6.64639C17.8801 5.1919 20.1912 6.40724 20.7205 7.42068C21.2478 8.43216 20.0089 10.1003 19.4737 9.96311C18.9386 9.82589 17.9487 6.64639 17.9487 6.64639H17.9467Z" fill="#BAFFFF"/>
</g>
<g id="Vector_38" style="mix-blend-mode:soft-light" opacity="0.5">
<path d="M44.9012 9.39076C44.5699 8.02448 45.7323 6.90518 46.2557 7.97351C46.7791 9.04184 45.3991 11.447 44.9012 9.39076Z" fill="#BAFFFF"/>
</g>
<g id="Vector_39" style="mix-blend-mode:soft-light" opacity="0.5">
<path d="M46.3169 36.4518C45.7798 36.4087 45.325 35.8971 45.425 35.7912C45.525 35.6834 47.3264 35.5266 48.7064 35.603C50.0864 35.6795 51.1705 35.9618 51.1959 36.046C51.2214 36.1303 48.1223 36.5988 46.3189 36.4518H46.3169Z" fill="#BAFFFF"/>
</g>
<g id="Vector_40" style="mix-blend-mode:soft-light" opacity="0.5">
<path d="M20.6354 35.4619C19.7553 35.5677 19.1417 37.5339 19.3476 37.7122C19.5534 37.8906 23.6875 36.593 24.3285 36.2911C24.9695 35.9892 21.6312 35.3423 20.6354 35.4619Z" fill="#BAFFFF"/>
</g>
<g id="Vector_41" style="mix-blend-mode:soft-light" opacity="0.5">
<path d="M63.3964 33.8408C63.3964 33.8408 62.875 39.7744 62.875 40.8525C62.875 41.9287 65.4958 41.0642 65.7056 40.5957C65.9153 40.1272 66.229 35.0404 65.7056 34.6993C65.1822 34.3563 63.3964 33.8427 63.3964 33.8427V33.8408Z" fill="#BAFFFF"/>
</g>
<g id="Vector_42" style="mix-blend-mode:multiply" opacity="0.3">
<path d="M28.7706 20.4681C29.2744 22.9811 28.851 25.4647 27.4278 25.1138C25.7322 24.6943 23.7132 24.7884 23.4387 22.4126C23.3937 21.9951 23.3251 21.558 23.2721 21.113C23.0114 19.0253 22.8703 16.8514 24.9305 16.6495C24.9305 16.6495 27.3925 16.2085 28.3981 19.0861C28.5589 19.533 28.6824 20.0035 28.7725 20.4681H28.7706Z" fill="#A47959"/>
</g>
<g id="Vector_43" style="mix-blend-mode:multiply" opacity="0.5">
<path d="M28.7706 20.4681L28.7804 20.7915C28.7804 20.7915 28.455 19.237 27.4788 18.2295C26.5046 17.2278 25.3265 16.624 24.2679 17.661C23.2231 18.696 23.2721 21.113 23.2721 21.113C23.0114 19.0253 22.8703 16.8514 24.9305 16.6495C24.9305 16.6495 27.3925 16.2085 28.3981 19.0861C28.5589 19.533 28.6824 20.0035 28.7725 20.4681H28.7706Z" fill="#A47959"/>
</g>
<g id="Vector_44" style="mix-blend-mode:multiply" opacity="0.3">
<path d="M31.4919 16.1653C31.4802 16.3104 31.4606 16.4691 31.4233 16.6299C31.1783 17.7452 30.3393 19.1155 29.7709 18.2765C29.4964 17.8668 29.1965 17.3826 29.022 16.8788C29.022 16.8788 29.0201 16.8743 29.0162 16.8651C29.0162 16.8651 29.0083 16.8435 29.0083 16.8377C28.7927 16.1888 28.7751 15.5125 29.2788 14.9284C29.663 14.4756 31.5684 15.0244 31.4939 16.1653H31.4919Z" fill="#A47959"/>
</g>
<g id="Vector_45" style="mix-blend-mode:multiply" opacity="0.5">
<path d="M31.4919 16.1653C31.4802 16.3104 31.4606 16.4691 31.4233 16.6299L31.3822 16.6612C31.3822 16.6612 31.4919 16.1653 31.3724 15.7674C31.2528 15.3695 30.0296 14.7912 29.6356 15.0362C29.2553 15.2656 28.777 16.1457 29.0083 16.8357C28.7927 16.1869 28.7751 15.5106 29.2788 14.9264C29.663 14.4736 31.5684 15.0225 31.4939 16.1633L31.4919 16.1653Z" fill="#A47959"/>
</g>
<g id="Vector_46" style="mix-blend-mode:multiply" opacity="0.3">
<path d="M53.4072 44.5064C53.3935 44.6475 53.3739 44.8024 53.3347 44.9572C53.0818 46.0413 52.2389 47.3742 51.6881 46.5588C51.4235 46.1608 51.1294 45.6884 50.9628 45.1984C50.9628 45.1984 50.9609 45.1938 50.9569 45.1846C50.9569 45.1846 50.9511 45.165 50.9511 45.1572C50.7452 44.526 50.7354 43.8674 51.2373 43.3008C51.6215 42.8618 53.4954 43.3949 53.4092 44.5044L53.4072 44.5064Z" fill="#A47959"/>
</g>
<g id="Vector_47" style="mix-blend-mode:multiply" opacity="0.5">
<path d="M53.4072 44.5064C53.3935 44.6475 53.3739 44.8024 53.3347 44.9572L53.2955 44.9886C53.2955 44.9886 53.4092 44.5044 53.2955 44.1183C53.1818 43.7321 51.9821 43.1695 51.5901 43.4067C51.2118 43.6302 50.7315 44.4848 50.9511 45.1572C50.7452 44.526 50.7354 43.8674 51.2373 43.3008C51.6215 42.8618 53.4954 43.3949 53.4092 44.5044L53.4072 44.5064Z" fill="#A47959"/>
</g>
<path id="Vector_48" d="M58.7148 11.2118C58.7148 11.2118 57.4014 13.2857 57.1662 13.4249C56.931 13.5641 56.2919 13.6817 56.0959 13.4249C55.8999 13.1681 57.5661 11.4509 58.7148 11.2118Z" fill="url(#paint14_linear_34_21685)"/>
<path id="Vector_49" d="M57.9661 66.0572C57.9524 65.6162 57.925 66.9354 58.07 67.3392L60.7908 67.5823C60.7908 67.5823 59.5794 61.88 58.5365 60.8116C57.4937 59.7433 57.9661 66.0572 57.9661 66.0572Z" fill="url(#paint15_linear_34_21685)"/>
<path id="Vector_50" d="M15.7075 25.1922C17.0346 22.9615 17.8952 24.7237 17.5286 27.4308C17.164 30.1301 12.8848 29.5322 12.6398 29.3558C12.3948 29.1793 13.9512 28.1463 15.7095 25.1922H15.7075Z" fill="url(#paint16_linear_34_21685)"/>
<path id="Vector_51" d="M12.3516 29.2126C12.3516 29.2126 13.2807 29.8262 14.945 29.5361C16.6092 29.246 16.9895 28.5971 16.9895 28.5971C16.9895 28.5971 15.1645 29.0166 14.5196 28.7873C13.8766 28.5579 13.1435 28.1816 12.3516 29.2146V29.2126Z" fill="#697100"/>
<path id="Vector_52" d="M16.5115 24.3512C16.5115 24.3512 16.682 25.6019 17.0035 26.8603C17.323 28.1169 16.3115 28.7284 16.3115 28.7284C16.3115 28.7284 17.1505 29.1205 17.5269 27.4308C17.9052 25.7391 17.5131 24.4649 17.227 24.1768C16.9427 23.8906 16.5095 24.3512 16.5095 24.3512H16.5115Z" fill="#332A00"/>
<path id="Vector_53" d="M37.6543 19.3997C37.6543 19.3997 38.3933 21.456 38.4658 22.3106C38.5384 23.1653 38.7501 26.4271 38.7501 26.4271C38.7501 26.4271 39.5342 20.517 39.738 20.0074C39.9438 19.4977 40.0615 18.8234 37.6543 19.3997Z" fill="url(#paint17_linear_34_21685)"/>
</g>
</g>
<defs>
<linearGradient id="paint0_linear_34_21685" x1="36.9887" y1="25.8407" x2="37.1062" y2="4.12166" gradientUnits="userSpaceOnUse">
<stop stop-color="#1F1500"/>
<stop offset="1" stop-color="#272200"/>
</linearGradient>
<linearGradient id="paint1_linear_34_21685" x1="33.4733" y1="69.0407" x2="33.4733" y2="0.148254" gradientUnits="userSpaceOnUse">
<stop stop-color="#362C00"/>
<stop offset="1" stop-color="#5C5700"/>
</linearGradient>
<linearGradient id="paint2_linear_34_21685" x1="12.3221" y1="33.1152" x2="12.4996" y2="0.316991" gradientUnits="userSpaceOnUse">
<stop stop-color="#1F1500"/>
<stop offset="1" stop-color="#272200"/>
</linearGradient>
<linearGradient id="paint3_linear_34_21685" x1="24.0333" y1="30.8869" x2="24.1978" y2="0.488049" gradientUnits="userSpaceOnUse">
<stop stop-color="#564D00"/>
<stop offset="1" stop-color="#5C5700"/>
</linearGradient>
<linearGradient id="paint4_linear_34_21685" x1="51.6313" y1="30.6926" x2="51.6313" y2="-0.000744593" gradientUnits="userSpaceOnUse">
<stop stop-color="#564D00"/>
<stop offset="1" stop-color="#5C5700"/>
</linearGradient>
<linearGradient id="paint5_linear_34_21685" x1="13.4895" y1="15.6378" x2="27.552" y2="15.7139" gradientUnits="userSpaceOnUse">
<stop stop-color="#262400"/>
<stop offset="1" stop-color="#272200"/>
</linearGradient>
<linearGradient id="paint6_linear_34_21685" x1="40.5298" y1="17.3131" x2="50.5013" y2="17.3671" gradientUnits="userSpaceOnUse">
<stop stop-color="#262400"/>
<stop offset="1" stop-color="#272200"/>
</linearGradient>
<linearGradient id="paint7_linear_34_21685" x1="1.05958" y1="50.3379" x2="13.9675" y2="50.4077" gradientUnits="userSpaceOnUse">
<stop stop-color="#383600"/>
<stop offset="1" stop-color="#403400"/>
</linearGradient>
<linearGradient id="paint8_linear_34_21685" x1="65.223" y1="64.5323" x2="65.389" y2="33.8512" gradientUnits="userSpaceOnUse">
<stop stop-color="#383600"/>
<stop offset="1" stop-color="#4A4600"/>
</linearGradient>
<linearGradient id="paint9_linear_34_21685" x1="37.5181" y1="44.225" x2="40.4134" y2="44.2407" gradientUnits="userSpaceOnUse">
<stop stop-color="#3F3800"/>
<stop offset="1" stop-color="#272200"/>
</linearGradient>
<linearGradient id="paint10_linear_34_21685" x1="26.7548" y1="69.9678" x2="26.94" y2="35.7367" gradientUnits="userSpaceOnUse">
<stop stop-color="#383600"/>
<stop offset="1" stop-color="#454100"/>
</linearGradient>
<linearGradient id="paint11_linear_34_21685" x1="53.0224" y1="69.7934" x2="53.0224" y2="35.8265" gradientUnits="userSpaceOnUse">
<stop stop-color="#383600"/>
<stop offset="1" stop-color="#454100"/>
</linearGradient>
<linearGradient id="paint12_linear_34_21685" x1="44.5895" y1="69.7879" x2="44.7732" y2="35.8508" gradientUnits="userSpaceOnUse">
<stop stop-color="#262400"/>
<stop offset="1" stop-color="#272200"/>
</linearGradient>
<linearGradient id="paint13_linear_34_21685" x1="34.2862" y1="32.2744" x2="43.4772" y2="32.1766" gradientUnits="userSpaceOnUse">
<stop stop-color="#1F001B"/>
<stop offset="1" stop-color="#1D1431"/>
</linearGradient>
<linearGradient id="paint14_linear_34_21685" x1="57.3975" y1="13.5739" x2="57.3975" y2="11.2118" gradientUnits="userSpaceOnUse">
<stop stop-color="#262400"/>
<stop offset="1" stop-color="#272200"/>
</linearGradient>
<linearGradient id="paint15_linear_34_21685" x1="59.3265" y1="67.5803" x2="59.3265" y2="60.6901" gradientUnits="userSpaceOnUse">
<stop stop-color="#262400"/>
<stop offset="1" stop-color="#272200"/>
</linearGradient>
<linearGradient id="paint16_linear_34_21685" x1="15.1116" y1="29.5361" x2="15.1116" y2="24.1768" gradientUnits="userSpaceOnUse">
<stop stop-color="#1F1500"/>
<stop offset="1" stop-color="#272200"/>
</linearGradient>
<linearGradient id="paint17_linear_34_21685" x1="37.6543" y1="22.8046" x2="39.838" y2="22.8046" gradientUnits="userSpaceOnUse">
<stop stop-color="#262400"/>
<stop offset="1" stop-color="#272200"/>
</linearGradient>
</defs>
</svg>
